<?xml version="1.0" encoding="utf-8" standalone="no"?>
<!DOCTYPE svg PUBLIC "-//W3C//DTD SVG 1.1//EN"
  "http://www.w3.org/Graphics/SVG/1.1/DTD/svg11.dtd">
<svg xmlns:xlink="http://www.w3.org/1999/xlink" width="180pt" height="180pt" viewBox="0 0 180 180" xmlns="http://www.w3.org/2000/svg" version="1.1">
 <metadata>
  <rdf:RDF xmlns:dc="http://purl.org/dc/elements/1.1/" xmlns:cc="http://creativecommons.org/ns#" xmlns:rdf="http://www.w3.org/1999/02/22-rdf-syntax-ns#">
   <cc:Work>
    <dc:type rdf:resource="http://purl.org/dc/dcmitype/StillImage"/>
    <dc:date>2025-11-08T21:00:32.927777</dc:date>
    <dc:format>image/svg+xml</dc:format>
    <dc:creator>
     <cc:Agent>
      <dc:title>Matplotlib v3.10.6, https://matplotlib.org/</dc:title>
     </cc:Agent>
    </dc:creator>
   </cc:Work>
  </rdf:RDF>
 </metadata>
 <defs>
  <style type="text/css">*{stroke-linejoin: round; stroke-linecap: butt}</style>
 </defs>
 <g id="figure_1">
  <g id="patch_1">
   <path d="M 0 180 
L 180 180 
L 180 0 
L 0 0 
z
" style="fill: #ffffff"/>
  </g>
  <g id="axes_1">
   <g id="patch_2">
    <path d="M 149.965 91.84 
C 149.965 84.384047 148.49634 77.000594 145.64307 70.112191 
C 142.7898 63.223789 138.60741 56.9644 133.335255 51.692245 
C 128.0631 46.42009 121.803711 42.2377 114.915309 39.38443 
C 108.026906 36.53116 100.643453 35.0625 93.1875 35.0625 
C 85.731547 35.0625 78.348094 36.53116 71.459691 39.38443 
C 64.571289 42.2377 58.3119 46.42009 53.039745 51.692245 
C 47.76759 56.9644 43.5852 63.223789 40.73193 70.112191 
C 37.87866 77.000594 36.41 84.384047 36.41 91.84 
C 36.41 99.295953 37.87866 106.679406 40.73193 113.567809 
C 43.5852 120.456211 47.76759 126.7156 53.039745 131.987755 
C 58.3119 137.25991 64.571289 141.4423 71.459691 144.29557 
C 78.348094 147.14884 85.731547 148.6175 93.1875 148.6175 
C 100.643453 148.6175 108.026906 147.14884 114.915309 144.29557 
C 121.803711 141.4423 128.0631 137.25991 133.335255 131.987755 
C 138.60741 126.7156 142.7898 120.456211 145.64307 113.567809 
C 148.49634 106.679406 149.965 99.295953 149.965 91.84 
M 93.1875 91.84 
C 93.1875 91.84 93.1875 91.84 93.1875 91.84 
C 93.1875 91.84 93.1875 91.84 93.1875 91.84 
C 93.1875 91.84 93.1875 91.84 93.1875 91.84 
C 93.1875 91.84 93.1875 91.84 93.1875 91.84 
C 93.1875 91.84 93.1875 91.84 93.1875 91.84 
C 93.1875 91.84 93.1875 91.84 93.1875 91.84 
C 93.1875 91.84 93.1875 91.84 93.1875 91.84 
C 93.1875 91.84 93.1875 91.84 93.1875 91.84 
C 93.1875 91.84 93.1875 91.84 93.1875 91.84 
C 93.1875 91.84 93.1875 91.84 93.1875 91.84 
C 93.1875 91.84 93.1875 91.84 93.1875 91.84 
C 93.1875 91.84 93.1875 91.84 93.1875 91.84 
C 93.1875 91.84 93.1875 91.84 93.1875 91.84 
C 93.1875 91.84 93.1875 91.84 93.1875 91.84 
C 93.1875 91.84 93.1875 91.84 93.1875 91.84 
C 93.1875 91.84 93.1875 91.84 93.1875 91.84 
z
" style="fill: #ffffff"/>
   </g>
   <g id="matplotlib.axis_1">
    <g id="xtick_1">
     <g id="line2d_1">
      <path d="M 93.1875 91.84 
L 149.965 91.84 
" clip-path="url(#p860ebdcde0)" style="fill: none; stroke: #b0b0b0; stroke-width: 0.8; stroke-linecap: square"/>
     </g>
     <g id="text_1">
      <!-- 0째 -->
      <g transform="translate(158.28375 94.599375) scale(0.1 -0.1)">
       <defs>
        <path id="DejaVuSans-30" d="M 2034 4250 
Q 1547 4250 1301 3770 
Q 1056 3291 1056 2328 
Q 1056 1369 1301 889 
Q 1547 409 2034 409 
Q 2525 409 2770 889 
Q 3016 1369 3016 2328 
Q 3016 3291 2770 3770 
Q 2525 4250 2034 4250 
z
M 2034 4750 
Q 2819 4750 3233 4129 
Q 3647 3509 3647 2328 
Q 3647 1150 3233 529 
Q 2819 -91 2034 -91 
Q 1250 -91 836 529 
Q 422 1150 422 2328 
Q 422 3509 836 4129 
Q 1250 4750 2034 4750 
z
" transform="scale(0.015625)"/>
        <path id="DejaVuSans-b0" d="M 1600 4347 
Q 1350 4347 1178 4173 
Q 1006 4000 1006 3750 
Q 1006 3503 1178 3333 
Q 1350 3163 1600 3163 
Q 1850 3163 2022 3333 
Q 2194 3503 2194 3750 
Q 2194 3997 2020 4172 
Q 1847 4347 1600 4347 
z
M 1600 4750 
Q 1800 4750 1984 4673 
Q 2169 4597 2303 4453 
Q 2447 4313 2519 4134 
Q 2591 3956 2591 3750 
Q 2591 3338 2302 3052 
Q 2013 2766 1594 2766 
Q 1172 2766 890 3047 
Q 609 3328 609 3750 
Q 609 4169 896 4459 
Q 1184 4750 1600 4750 
z
" transform="scale(0.015625)"/>
       </defs>
       <use xlink:href="#DejaVuSans-30"/>
       <use xlink:href="#DejaVuSans-b0" transform="translate(63.623047 0)"/>
      </g>
     </g>
    </g>
    <g id="xtick_2">
     <g id="line2d_2">
      <path d="M 93.1875 91.84 
L 93.1875 35.0625 
" clip-path="url(#p860ebdcde0)" style="fill: none; stroke: #b0b0b0; stroke-width: 0.8; stroke-linecap: square"/>
     </g>
     <g id="text_2">
      <!-- 90째 -->
      <g transform="translate(84.325 23.821875) scale(0.1 -0.1)">
       <defs>
        <path id="DejaVuSans-39" d="M 703 97 
L 703 672 
Q 941 559 1184 500 
Q 1428 441 1663 441 
Q 2288 441 2617 861 
Q 2947 1281 2994 2138 
Q 2813 1869 2534 1725 
Q 2256 1581 1919 1581 
Q 1219 1581 811 2004 
Q 403 2428 403 3163 
Q 403 3881 828 4315 
Q 1253 4750 1959 4750 
Q 2769 4750 3195 4129 
Q 3622 3509 3622 2328 
Q 3622 1225 3098 567 
Q 2575 -91 1691 -91 
Q 1453 -91 1209 -44 
Q 966 3 703 97 
z
M 1959 2075 
Q 2384 2075 2632 2365 
Q 2881 2656 2881 3163 
Q 2881 3666 2632 3958 
Q 2384 4250 1959 4250 
Q 1534 4250 1286 3958 
Q 1038 3666 1038 3163 
Q 1038 2656 1286 2365 
Q 1534 2075 1959 2075 
z
" transform="scale(0.015625)"/>
       </defs>
       <use xlink:href="#DejaVuSans-39"/>
       <use xlink:href="#DejaVuSans-30" transform="translate(63.623047 0)"/>
       <use xlink:href="#DejaVuSans-b0" transform="translate(127.246094 0)"/>
      </g>
     </g>
    </g>
    <g id="xtick_3">
     <g id="line2d_3">
      <path d="M 93.1875 91.84 
L 36.41 91.84 
" clip-path="url(#p860ebdcde0)" style="fill: none; stroke: #b0b0b0; stroke-width: 0.8; stroke-linecap: square"/>
     </g>
     <g id="text_3">
      <!-- 180째 -->
      <g transform="translate(10.36625 94.599375) scale(0.1 -0.1)">
       <defs>
        <path id="DejaVuSans-31" d="M 794 531 
L 1825 531 
L 1825 4091 
L 703 3866 
L 703 4441 
L 1819 4666 
L 2450 4666 
L 2450 531 
L 3481 531 
L 3481 0 
L 794 0 
L 794 531 
z
" transform="scale(0.015625)"/>
        <path id="DejaVuSans-38" d="M 2034 2216 
Q 1584 2216 1326 1975 
Q 1069 1734 1069 1313 
Q 1069 891 1326 650 
Q 1584 409 2034 409 
Q 2484 409 2743 651 
Q 3003 894 3003 1313 
Q 3003 1734 2745 1975 
Q 2488 2216 2034 2216 
z
M 1403 2484 
Q 997 2584 770 2862 
Q 544 3141 544 3541 
Q 544 4100 942 4425 
Q 1341 4750 2034 4750 
Q 2731 4750 3128 4425 
Q 3525 4100 3525 3541 
Q 3525 3141 3298 2862 
Q 3072 2584 2669 2484 
Q 3125 2378 3379 2068 
Q 3634 1759 3634 1313 
Q 3634 634 3220 271 
Q 2806 -91 2034 -91 
Q 1263 -91 848 271 
Q 434 634 434 1313 
Q 434 1759 690 2068 
Q 947 2378 1403 2484 
z
M 1172 3481 
Q 1172 3119 1398 2916 
Q 1625 2713 2034 2713 
Q 2441 2713 2670 2916 
Q 2900 3119 2900 3481 
Q 2900 3844 2670 4047 
Q 2441 4250 2034 4250 
Q 1625 4250 1398 4047 
Q 1172 3844 1172 3481 
z
" transform="scale(0.015625)"/>
       </defs>
       <use xlink:href="#DejaVuSans-31"/>
       <use xlink:href="#DejaVuSans-38" transform="translate(63.623047 0)"/>
       <use xlink:href="#DejaVuSans-30" transform="translate(127.246094 0)"/>
       <use xlink:href="#DejaVuSans-b0" transform="translate(190.869141 0)"/>
      </g>
     </g>
    </g>
    <g id="xtick_4">
     <g id="line2d_4">
      <path d="M 93.1875 91.84 
L 93.1875 148.6175 
" clip-path="url(#p860ebdcde0)" style="fill: none; stroke: #b0b0b0; stroke-width: 0.8; stroke-linecap: square"/>
     </g>
     <g id="text_4">
      <!-- 270째 -->
      <g transform="translate(81.14375 165.376875) scale(0.1 -0.1)">
       <defs>
        <path id="DejaVuSans-32" d="M 1228 531 
L 3431 531 
L 3431 0 
L 469 0 
L 469 531 
Q 828 903 1448 1529 
Q 2069 2156 2228 2338 
Q 2531 2678 2651 2914 
Q 2772 3150 2772 3378 
Q 2772 3750 2511 3984 
Q 2250 4219 1831 4219 
Q 1534 4219 1204 4116 
Q 875 4013 500 3803 
L 500 4441 
Q 881 4594 1212 4672 
Q 1544 4750 1819 4750 
Q 2544 4750 2975 4387 
Q 3406 4025 3406 3419 
Q 3406 3131 3298 2873 
Q 3191 2616 2906 2266 
Q 2828 2175 2409 1742 
Q 1991 1309 1228 531 
z
" transform="scale(0.015625)"/>
        <path id="DejaVuSans-37" d="M 525 4666 
L 3525 4666 
L 3525 4397 
L 1831 0 
L 1172 0 
L 2766 4134 
L 525 4134 
L 525 4666 
z
" transform="scale(0.015625)"/>
       </defs>
       <use xlink:href="#DejaVuSans-32"/>
       <use xlink:href="#DejaVuSans-37" transform="translate(63.623047 0)"/>
       <use xlink:href="#DejaVuSans-30" transform="translate(127.246094 0)"/>
       <use xlink:href="#DejaVuSans-b0" transform="translate(190.869141 0)"/>
      </g>
     </g>
    </g>
   </g>
   <g id="matplotlib.axis_2">
    <g id="ytick_1">
     <g id="line2d_5">
      <path d="M 93.1875 91.84 
C 93.1875 91.84 93.1875 91.84 93.1875 91.84 
C 93.1875 91.84 93.1875 91.84 93.1875 91.84 
C 93.1875 91.84 93.1875 91.84 93.1875 91.84 
C 93.1875 91.84 93.1875 91.84 93.1875 91.84 
C 93.1875 91.84 93.1875 91.84 93.1875 91.84 
C 93.1875 91.84 93.1875 91.84 93.1875 91.84 
C 93.1875 91.84 93.1875 91.84 93.1875 91.84 
C 93.1875 91.84 93.1875 91.84 93.1875 91.84 
C 93.1875 91.84 93.1875 91.84 93.1875 91.84 
C 93.1875 91.84 93.1875 91.84 93.1875 91.84 
C 93.1875 91.84 93.1875 91.84 93.1875 91.84 
C 93.1875 91.84 93.1875 91.84 93.1875 91.84 
C 93.1875 91.84 93.1875 91.84 93.1875 91.84 
C 93.1875 91.84 93.1875 91.84 93.1875 91.84 
C 93.1875 91.84 93.1875 91.84 93.1875 91.84 
C 93.1875 91.84 93.1875 91.84 93.1875 91.84 
" clip-path="url(#p860ebdcde0)" style="fill: none; stroke: #b0b0b0; stroke-width: 0.8; stroke-linecap: square"/>
     </g>
     <g id="text_5">
      <!-- 0.0 -->
      <g transform="translate(93.1875 89.760312) scale(0.1 -0.1)">
       <defs>
        <path id="DejaVuSans-2e" d="M 684 794 
L 1344 794 
L 1344 0 
L 684 0 
L 684 794 
z
" transform="scale(0.015625)"/>
       </defs>
       <use xlink:href="#DejaVuSans-30"/>
       <use xlink:href="#DejaVuSans-2e" transform="translate(63.623047 0)"/>
       <use xlink:href="#DejaVuSans-30" transform="translate(95.410156 0)"/>
      </g>
     </g>
    </g>
    <g id="ytick_2">
     <g id="line2d_6">
      <path d="M 112.875202 91.84 
C 112.875202 89.254635 112.365941 86.694409 111.376565 84.305843 
C 110.387188 81.917277 108.936937 79.746822 107.108807 77.918693 
C 105.280678 76.090563 103.110223 74.640312 100.721657 73.650935 
C 98.333091 72.661559 95.772865 72.152298 93.1875 72.152298 
C 90.602135 72.152298 88.041909 72.661559 85.653343 73.650935 
C 83.264777 74.640312 81.094322 76.090563 79.266193 77.918693 
C 77.438063 79.746822 75.987812 81.917277 74.998435 84.305843 
C 74.009059 86.694409 73.499798 89.254635 73.499798 91.84 
C 73.499798 94.425365 74.009059 96.985591 74.998435 99.374157 
C 75.987812 101.762723 77.438063 103.933178 79.266193 105.761307 
C 81.094322 107.589437 83.264777 109.039688 85.653343 110.029065 
C 88.041909 111.018441 90.602135 111.527702 93.1875 111.527702 
C 95.772865 111.527702 98.333091 111.018441 100.721657 110.029065 
C 103.110223 109.039688 105.280678 107.589437 107.108807 105.761307 
C 108.936937 103.933178 110.387188 101.762723 111.376565 99.374157 
C 112.365941 96.985591 112.875202 94.425365 112.875202 91.84 
" clip-path="url(#p860ebdcde0)" style="fill: none; stroke: #b0b0b0; stroke-width: 0.8; stroke-linecap: square"/>
     </g>
     <g id="text_6">
      <!-- 0.5 -->
      <g transform="translate(111.376565 97.29447) scale(0.1 -0.1)">
       <defs>
        <path id="DejaVuSans-35" d="M 691 4666 
L 3169 4666 
L 3169 4134 
L 1269 4134 
L 1269 2991 
Q 1406 3038 1543 3061 
Q 1681 3084 1819 3084 
Q 2600 3084 3056 2656 
Q 3513 2228 3513 1497 
Q 3513 744 3044 326 
Q 2575 -91 1722 -91 
Q 1428 -91 1123 -41 
Q 819 9 494 109 
L 494 744 
Q 775 591 1075 516 
Q 1375 441 1709 441 
Q 2250 441 2565 725 
Q 2881 1009 2881 1497 
Q 2881 1984 2565 2268 
Q 2250 2553 1709 2553 
Q 1456 2553 1204 2497 
Q 953 2441 691 2322 
L 691 4666 
z
" transform="scale(0.015625)"/>
       </defs>
       <use xlink:href="#DejaVuSans-30"/>
       <use xlink:href="#DejaVuSans-2e" transform="translate(63.623047 0)"/>
       <use xlink:href="#DejaVuSans-35" transform="translate(95.410156 0)"/>
      </g>
     </g>
    </g>
    <g id="ytick_3">
     <g id="line2d_7">
      <path d="M 132.562903 91.84 
C 132.562903 86.669269 131.544382 81.548818 129.565629 76.771686 
C 127.586876 71.994553 124.686373 67.653644 121.030115 63.997385 
C 117.373856 60.341127 113.032947 57.440624 108.255814 55.461871 
C 103.478682 53.483118 98.358231 52.464597 93.1875 52.464597 
C 88.016769 52.464597 82.896318 53.483118 78.119186 55.461871 
C 73.342053 57.440624 69.001144 60.341127 65.344885 63.997385 
C 61.688627 67.653644 58.788124 71.994553 56.809371 76.771686 
C 54.830618 81.548818 53.812097 86.669269 53.812097 91.84 
C 53.812097 97.010731 54.830618 102.131182 56.809371 106.908314 
C 58.788124 111.685447 61.688627 116.026356 65.344885 119.682615 
C 69.001144 123.338873 73.342053 126.239376 78.119186 128.218129 
C 82.896318 130.196882 88.016769 131.215403 93.1875 131.215403 
C 98.358231 131.215403 103.478682 130.196882 108.255814 128.218129 
C 113.032947 126.239376 117.373856 123.338873 121.030115 119.682615 
C 124.686373 116.026356 127.586876 111.685447 129.565629 106.908314 
C 131.544382 102.131182 132.562903 97.010731 132.562903 91.84 
" clip-path="url(#p860ebdcde0)" style="fill: none; stroke: #b0b0b0; stroke-width: 0.8; stroke-linecap: square"/>
     </g>
     <g id="text_7">
      <!-- 1.0 -->
      <g transform="translate(129.565629 104.828627) scale(0.1 -0.1)">
       <use xlink:href="#DejaVuSans-31"/>
       <use xlink:href="#DejaVuSans-2e" transform="translate(63.623047 0)"/>
       <use xlink:href="#DejaVuSans-30" transform="translate(95.410156 0)"/>
      </g>
     </g>
    </g>
   </g>
   <g id="line2d_8">
    <path d="M 128.430695 91.84 
L 127.564419 89.655283 
L 126.575806 87.579012 
L 125.476687 85.616769 
L 124.279139 83.772834 
L 122.995348 82.050159 
L 121.637467 80.450351 
L 120.217469 78.973679 
L 118.746984 77.619085 
L 117.237145 76.384232 
L 115.698418 75.265562 
L 114.140449 74.258388 
L 112.571911 73.357001 
L 111.000361 72.554815 
L 109.432117 71.844521 
L 107.872159 71.218282 
L 106.324046 70.667925 
L 104.789871 70.185173 
L 103.270245 69.761869 
L 101.764319 69.390219 
L 100.269844 69.06303 
L 98.783265 68.773941 
L 97.29986 68.51765 
L 95.81391 68.29011 
L 94.318913 68.088709 
L 92.807818 67.912416 
L 91.27329 67.761887 
L 89.707998 67.639532 
L 88.104913 67.549539 
L 86.457614 67.49784 
L 84.760588 67.492037 
L 83.009529 67.541273 
L 81.20161 67.656055 
L 79.335732 67.848034 
L 77.412738 68.129735 
L 75.43559 68.514262 
L 73.409492 69.014962 
L 71.341968 69.645073 
L 69.242877 70.41736 
L 67.124379 71.343735 
L 65.000831 72.434897 
L 62.888636 73.699974 
L 60.806028 75.146191 
L 58.772813 76.778575 
L 56.810052 78.599692 
L 54.93972 80.609439 
L 53.184318 82.804883 
L 51.566471 85.180164 
L 50.108506 87.726455 
L 48.832035 90.431984 
L 47.757529 93.282125 
L 46.903922 96.259546 
L 46.288231 99.344414 
L 45.925214 102.514658 
L 45.827064 105.746279 
L 46.003161 109.013695 
L 46.459866 112.290128 
L 47.20038 115.548008 
L 48.224665 118.759392 
L 49.529418 121.896392 
L 51.108117 124.931593 
L 52.951114 127.838463 
L 55.045793 130.59174 
L 57.376773 133.167782 
L 59.926161 135.544889 
L 62.673834 137.703583 
L 65.597761 139.62683 
L 68.674343 141.300227 
L 71.87877 142.712127 
L 75.185378 143.853716 
L 78.568012 144.719039 
L 82.000377 145.304977 
L 85.456372 145.611179 
L 88.910404 145.639953 
L 92.337674 145.396121 
L 95.714433 144.886844 
L 99.018204 144.121419 
L 102.227972 143.111067 
L 105.32433 141.868696 
L 108.289598 140.40867 
L 111.107905 138.746569 
L 113.765236 136.898957 
L 116.249455 134.883157 
L 118.550298 132.717036 
L 120.659346 130.418809 
L 122.569978 128.006854 
L 124.277314 125.499547 
L 125.77814 122.915113 
L 127.070833 120.271493 
L 128.155278 117.586229 
L 129.032779 114.876362 
L 129.705983 112.158338 
L 130.178787 109.44793 
L 130.456263 106.760162 
L 130.544574 104.109246 
L 130.450894 101.508515 
L 130.183332 98.970362 
L 129.750848 96.506184 
L 129.163167 94.126321 
L 128.430695 91.84 
" clip-path="url(#p860ebdcde0)" style="fill: none; stroke: #0000ff; stroke-width: 2; stroke-linecap: square"/>
   </g>
   <g id="line2d_9">
    <path d="M 136.31736 91.84 
L 137.268202 89.038589 
L 138.009983 86.119792 
L 138.526245 83.101673 
L 138.802478 80.004549 
L 138.826442 76.850726 
L 138.588444 73.664204 
L 138.081569 70.47033 
L 137.301867 67.295425 
L 136.248475 64.166392 
L 134.923684 61.110298 
L 133.332949 58.153968 
L 131.484833 55.323567 
L 129.390898 52.644205 
L 127.065542 50.139562 
L 124.525781 47.831543 
L 121.790989 45.739967 
L 118.882601 43.882303 
L 115.823784 42.273451 
L 112.639086 40.925573 
L 109.354066 39.84798 
L 105.994927 39.047065 
L 102.588143 38.526302 
L 99.160098 38.28628 
L 95.736743 38.324795 
L 92.343277 38.636982 
L 89.003851 39.215486 
L 85.741317 40.05066 
L 82.577001 41.130797 
L 79.530521 42.442379 
L 76.619647 43.970332 
L 73.860195 45.698296 
L 71.265966 47.608893 
L 68.848714 49.683987 
L 66.618156 51.904932 
L 64.582003 54.252815 
L 62.746027 56.708668 
L 61.114144 59.253668 
L 59.68851 61.869312 
L 58.46964 64.537573 
L 57.456526 67.241023 
L 56.646766 69.962946 
L 56.036689 72.687426 
L 55.621484 75.399411 
L 55.395316 78.08477 
L 55.351448 80.730333 
L 55.482344 83.323915 
L 55.779776 85.854341 
L 56.234917 88.311456 
L 56.838432 90.686138 
L 57.580561 92.970304 
L 58.451205 95.156914 
L 59.440005 97.239981 
L 60.536424 99.214571 
L 61.72983 101.076805 
L 63.009582 102.823864 
L 64.365123 104.453977 
L 65.786076 105.966416 
L 67.262341 107.361475 
L 68.784205 108.64044 
L 70.342445 109.80555 
L 71.92844 110.859936 
L 73.534276 111.807554 
L 75.152852 112.653093 
L 76.777974 113.401865 
L 78.40444 114.059687 
L 80.028111 114.632731 
L 81.645963 115.127374 
L 83.256119 115.550024 
L 84.85785 115.906942 
L 86.451559 116.204058 
L 88.038725 116.446782 
L 89.621824 116.639824 
L 91.204212 116.787017 
L 92.789989 116.89116 
L 94.383821 116.953877 
L 95.990746 116.975505 
L 97.615953 116.955006 
L 99.264545 116.889922 
L 100.941291 116.776357 
L 102.65037 116.609013 
L 104.395116 116.381257 
L 106.177776 116.085233 
L 107.999271 115.712023 
L 109.858996 115.251841 
L 111.754634 114.694262 
L 113.682014 114.028491 
L 115.635006 113.243654 
L 117.605467 112.329107 
L 119.583227 111.274762 
L 121.556138 110.071417 
L 123.510167 108.711079 
L 125.429543 107.18728 
L 127.296959 105.495368 
L 129.093815 103.632771 
L 130.800506 101.599227 
L 132.396749 99.396963 
L 133.861936 97.030838 
L 135.175511 94.508417 
L 136.31736 91.84 
" clip-path="url(#p860ebdcde0)" style="fill: none; stroke: #ffa500; stroke-width: 2; stroke-linecap: square"/>
   </g>
   <g id="patch_3">
    <path d="M 149.965 91.84 
C 149.965 84.384047 148.49634 77.000594 145.64307 70.112191 
C 142.7898 63.223789 138.60741 56.9644 133.335255 51.692245 
C 128.0631 46.42009 121.803711 42.2377 114.915309 39.38443 
C 108.026906 36.53116 100.643453 35.0625 93.1875 35.0625 
C 85.731547 35.0625 78.348094 36.53116 71.459691 39.38443 
C 64.571289 42.2377 58.3119 46.42009 53.039745 51.692245 
C 47.76759 56.9644 43.5852 63.223789 40.73193 70.112191 
C 37.87866 77.000594 36.41 84.384047 36.41 91.84 
C 36.41 99.295953 37.87866 106.679406 40.73193 113.567809 
C 43.5852 120.456211 47.76759 126.7156 53.039745 131.987755 
C 58.3119 137.25991 64.571289 141.4423 71.459691 144.29557 
C 78.348094 147.14884 85.731547 148.6175 93.1875 148.6175 
C 100.643453 148.6175 108.026906 147.14884 114.915309 144.29557 
C 121.803711 141.4423 128.0631 137.25991 133.335255 131.987755 
C 138.60741 126.7156 142.7898 120.456211 145.64307 113.567809 
C 148.49634 106.679406 149.965 99.295953 149.965 91.84 
" style="fill: none; stroke: #000000; stroke-width: 0.8; stroke-linejoin: miter; stroke-linecap: square"/>
   </g>
   <g id="legend_1">
    <g id="patch_4">
     <path d="M 20.699 50.728062 
L 73.299 50.728062 
Q 75.299 50.728062 75.299 48.728062 
L 75.299 19.3515 
Q 75.299 17.3515 73.299 17.3515 
L 20.699 17.3515 
Q 18.699 17.3515 18.699 19.3515 
L 18.699 48.728062 
Q 18.699 50.728062 20.699 50.728062 
z
" style="fill: #ffffff; opacity: 0.8; stroke: #cccccc; stroke-linejoin: miter"/>
    </g>
    <g id="line2d_10">
     <path d="M 22.699 25.449937 
L 32.699 25.449937 
L 42.699 25.449937 
" style="fill: none; stroke: #0000ff; stroke-width: 2; stroke-linecap: square"/>
    </g>
    <g id="text_8">
     <!-- $D_{air}$ -->
     <g transform="translate(50.699 28.949937) scale(0.1 -0.1)">
      <defs>
       <path id="DejaVuSans-Oblique-44" d="M 1081 4666 
L 2438 4666 
Q 3519 4666 4070 4208 
Q 4622 3750 4622 2847 
Q 4622 2250 4412 1698 
Q 4203 1147 3834 769 
Q 3463 381 2891 190 
Q 2319 0 1538 0 
L 172 0 
L 1081 4666 
z
M 1613 4147 
L 909 519 
L 1734 519 
Q 2794 519 3375 1128 
Q 3956 1738 3956 2847 
Q 3956 3519 3581 3833 
Q 3206 4147 2406 4147 
L 1613 4147 
z
" transform="scale(0.015625)"/>
       <path id="DejaVuSans-Oblique-61" d="M 3438 1997 
L 3047 0 
L 2472 0 
L 2578 531 
Q 2325 219 2001 64 
Q 1678 -91 1281 -91 
Q 834 -91 548 182 
Q 263 456 263 884 
Q 263 1497 752 1853 
Q 1241 2209 2100 2209 
L 2900 2209 
L 2931 2363 
Q 2938 2388 2941 2417 
Q 2944 2447 2944 2509 
Q 2944 2788 2717 2942 
Q 2491 3097 2081 3097 
Q 1800 3097 1504 3025 
Q 1209 2953 897 2809 
L 997 3341 
Q 1322 3463 1633 3523 
Q 1944 3584 2234 3584 
Q 2853 3584 3176 3315 
Q 3500 3047 3500 2534 
Q 3500 2431 3484 2292 
Q 3469 2153 3438 1997 
z
M 2816 1759 
L 2241 1759 
Q 1534 1759 1195 1570 
Q 856 1381 856 984 
Q 856 709 1029 553 
Q 1203 397 1509 397 
Q 1978 397 2328 733 
Q 2678 1069 2791 1631 
L 2816 1759 
z
" transform="scale(0.015625)"/>
       <path id="DejaVuSans-Oblique-69" d="M 1172 4863 
L 1747 4863 
L 1606 4134 
L 1031 4134 
L 1172 4863 
z
M 909 3500 
L 1484 3500 
L 800 0 
L 225 0 
L 909 3500 
z
" transform="scale(0.015625)"/>
       <path id="DejaVuSans-Oblique-72" d="M 2853 2969 
Q 2766 3016 2653 3041 
Q 2541 3066 2413 3066 
Q 1953 3066 1609 2717 
Q 1266 2369 1153 1784 
L 800 0 
L 225 0 
L 909 3500 
L 1484 3500 
L 1375 2956 
Q 1603 3259 1920 3421 
Q 2238 3584 2597 3584 
Q 2691 3584 2781 3573 
Q 2872 3563 2963 3538 
L 2853 2969 
z
" transform="scale(0.015625)"/>
      </defs>
      <use xlink:href="#DejaVuSans-Oblique-44" transform="translate(0 0.09375)"/>
      <use xlink:href="#DejaVuSans-Oblique-61" transform="translate(77.001953 -16.3125) scale(0.7)"/>
      <use xlink:href="#DejaVuSans-Oblique-69" transform="translate(119.897461 -16.3125) scale(0.7)"/>
      <use xlink:href="#DejaVuSans-Oblique-72" transform="translate(139.345703 -16.3125) scale(0.7)"/>
     </g>
    </g>
    <g id="line2d_11">
     <path d="M 22.699 40.128062 
L 32.699 40.128062 
L 42.699 40.128062 
" style="fill: none; stroke: #ffa500; stroke-width: 2; stroke-linecap: square"/>
    </g>
    <g id="text_9">
     <!-- $D_{spp}$ -->
     <g transform="translate(50.699 43.628062) scale(0.1 -0.1)">
      <defs>
       <path id="DejaVuSans-Oblique-73" d="M 3200 3397 
L 3091 2853 
Q 2863 2978 2609 3040 
Q 2356 3103 2088 3103 
Q 1634 3103 1373 2948 
Q 1113 2794 1113 2528 
Q 1113 2219 1719 2053 
Q 1766 2041 1788 2034 
L 1972 1978 
Q 2547 1819 2739 1644 
Q 2931 1469 2931 1166 
Q 2931 609 2489 259 
Q 2047 -91 1331 -91 
Q 1053 -91 747 -37 
Q 441 16 72 128 
L 184 722 
Q 500 559 806 475 
Q 1113 391 1394 391 
Q 1816 391 2080 572 
Q 2344 753 2344 1031 
Q 2344 1331 1650 1516 
L 1591 1531 
L 1394 1581 
Q 956 1697 753 1886 
Q 550 2075 550 2369 
Q 550 2928 970 3256 
Q 1391 3584 2113 3584 
Q 2397 3584 2667 3537 
Q 2938 3491 3200 3397 
z
" transform="scale(0.015625)"/>
       <path id="DejaVuSans-Oblique-70" d="M 3175 2156 
Q 3175 2616 2975 2859 
Q 2775 3103 2400 3103 
Q 2144 3103 1911 2972 
Q 1678 2841 1497 2591 
Q 1319 2344 1212 1994 
Q 1106 1644 1106 1300 
Q 1106 863 1306 627 
Q 1506 391 1875 391 
Q 2147 391 2380 519 
Q 2613 647 2778 891 
Q 2956 1147 3065 1494 
Q 3175 1841 3175 2156 
z
M 1394 2969 
Q 1625 3272 1939 3428 
Q 2253 3584 2638 3584 
Q 3175 3584 3472 3232 
Q 3769 2881 3769 2247 
Q 3769 1728 3584 1258 
Q 3400 788 3053 416 
Q 2822 169 2531 39 
Q 2241 -91 1919 -91 
Q 1547 -91 1294 64 
Q 1041 219 916 525 
L 556 -1331 
L -19 -1331 
L 922 3500 
L 1497 3500 
L 1394 2969 
z
" transform="scale(0.015625)"/>
      </defs>
      <use xlink:href="#DejaVuSans-Oblique-44" transform="translate(0 0.09375)"/>
      <use xlink:href="#DejaVuSans-Oblique-73" transform="translate(77.001953 -16.3125) scale(0.7)"/>
      <use xlink:href="#DejaVuSans-Oblique-70" transform="translate(113.47168 -16.3125) scale(0.7)"/>
      <use xlink:href="#DejaVuSans-Oblique-70" transform="translate(157.905273 -16.3125) scale(0.7)"/>
     </g>
    </g>
   </g>
  </g>
 </g>
 <defs>
  <clipPath id="p860ebdcde0">
   <path d="M 149.965 91.84 
C 149.965 84.384047 148.49634 77.000594 145.64307 70.112191 
C 142.7898 63.223789 138.60741 56.9644 133.335255 51.692245 
C 128.0631 46.42009 121.803711 42.2377 114.915309 39.38443 
C 108.026906 36.53116 100.643453 35.0625 93.1875 35.0625 
C 85.731547 35.0625 78.348094 36.53116 71.459691 39.38443 
C 64.571289 42.2377 58.3119 46.42009 53.039745 51.692245 
C 47.76759 56.9644 43.5852 63.223789 40.73193 70.112191 
C 37.87866 77.000594 36.41 84.384047 36.41 91.84 
C 36.41 99.295953 37.87866 106.679406 40.73193 113.567809 
C 43.5852 120.456211 47.76759 126.7156 53.039745 131.987755 
C 58.3119 137.25991 64.571289 141.4423 71.459691 144.29557 
C 78.348094 147.14884 85.731547 148.6175 93.1875 148.6175 
C 100.643453 148.6175 108.026906 147.14884 114.915309 144.29557 
C 121.803711 141.4423 128.0631 137.25991 133.335255 131.987755 
C 138.60741 126.7156 142.7898 120.456211 145.64307 113.567809 
C 148.49634 106.679406 149.965 99.295953 149.965 91.84 
M 93.1875 91.84 
C 93.1875 91.84 93.1875 91.84 93.1875 91.84 
C 93.1875 91.84 93.1875 91.84 93.1875 91.84 
C 93.1875 91.84 93.1875 91.84 93.1875 91.84 
C 93.1875 91.84 93.1875 91.84 93.1875 91.84 
C 93.1875 91.84 93.1875 91.84 93.1875 91.84 
C 93.1875 91.84 93.1875 91.84 93.1875 91.84 
C 93.1875 91.84 93.1875 91.84 93.1875 91.84 
C 93.1875 91.84 93.1875 91.84 93.1875 91.84 
C 93.1875 91.84 93.1875 91.84 93.1875 91.84 
C 93.1875 91.84 93.1875 91.84 93.1875 91.84 
C 93.1875 91.84 93.1875 91.84 93.1875 91.84 
C 93.1875 91.84 93.1875 91.84 93.1875 91.84 
C 93.1875 91.84 93.1875 91.84 93.1875 91.84 
C 93.1875 91.84 93.1875 91.84 93.1875 91.84 
C 93.1875 91.84 93.1875 91.84 93.1875 91.84 
C 93.1875 91.84 93.1875 91.84 93.1875 91.84 
z
"/>
  </clipPath>
 </defs>
</svg>
