<?xml version="1.0" encoding="utf-8" standalone="no"?>
<!DOCTYPE svg PUBLIC "-//W3C//DTD SVG 1.1//EN"
  "http://www.w3.org/Graphics/SVG/1.1/DTD/svg11.dtd">
<svg xmlns:xlink="http://www.w3.org/1999/xlink" width="180pt" height="180pt" viewBox="0 0 180 180" xmlns="http://www.w3.org/2000/svg" version="1.1">
 <metadata>
  <rdf:RDF xmlns:dc="http://purl.org/dc/elements/1.1/" xmlns:cc="http://creativecommons.org/ns#" xmlns:rdf="http://www.w3.org/1999/02/22-rdf-syntax-ns#">
   <cc:Work>
    <dc:type rdf:resource="http://purl.org/dc/dcmitype/StillImage"/>
    <dc:date>2025-11-20T17:30:28.397829</dc:date>
    <dc:format>image/svg+xml</dc:format>
    <dc:creator>
     <cc:Agent>
      <dc:title>Matplotlib v3.10.6, https://matplotlib.org/</dc:title>
     </cc:Agent>
    </dc:creator>
   </cc:Work>
  </rdf:RDF>
 </metadata>
 <defs>
  <style type="text/css">*{stroke-linejoin: round; stroke-linecap: butt}</style>
 </defs>
 <g id="figure_1">
  <g id="patch_1">
   <path d="M 0 180 
L 180 180 
L 180 0 
L 0 0 
z
" style="fill: #ffffff"/>
  </g>
  <g id="axes_1">
   <g id="patch_2">
    <path d="M 149.965 91.84 
C 149.965 84.384047 148.49634 77.000594 145.64307 70.112191 
C 142.7898 63.223789 138.60741 56.9644 133.335255 51.692245 
C 128.0631 46.42009 121.803711 42.2377 114.915309 39.38443 
C 108.026906 36.53116 100.643453 35.0625 93.1875 35.0625 
C 85.731547 35.0625 78.348094 36.53116 71.459691 39.38443 
C 64.571289 42.2377 58.3119 46.42009 53.039745 51.692245 
C 47.76759 56.9644 43.5852 63.223789 40.73193 70.112191 
C 37.87866 77.000594 36.41 84.384047 36.41 91.84 
C 36.41 99.295953 37.87866 106.679406 40.73193 113.567809 
C 43.5852 120.456211 47.76759 126.7156 53.039745 131.987755 
C 58.3119 137.25991 64.571289 141.4423 71.459691 144.29557 
C 78.348094 147.14884 85.731547 148.6175 93.1875 148.6175 
C 100.643453 148.6175 108.026906 147.14884 114.915309 144.29557 
C 121.803711 141.4423 128.0631 137.25991 133.335255 131.987755 
C 138.60741 126.7156 142.7898 120.456211 145.64307 113.567809 
C 148.49634 106.679406 149.965 99.295953 149.965 91.84 
M 93.1875 91.84 
C 93.1875 91.84 93.1875 91.84 93.1875 91.84 
C 93.1875 91.84 93.1875 91.84 93.1875 91.84 
C 93.1875 91.84 93.1875 91.84 93.1875 91.84 
C 93.1875 91.84 93.1875 91.84 93.1875 91.84 
C 93.1875 91.84 93.1875 91.84 93.1875 91.84 
C 93.1875 91.84 93.1875 91.84 93.1875 91.84 
C 93.1875 91.84 93.1875 91.84 93.1875 91.84 
C 93.1875 91.84 93.1875 91.84 93.1875 91.84 
C 93.1875 91.84 93.1875 91.84 93.1875 91.84 
C 93.1875 91.84 93.1875 91.84 93.1875 91.84 
C 93.1875 91.84 93.1875 91.84 93.1875 91.84 
C 93.1875 91.84 93.1875 91.84 93.1875 91.84 
C 93.1875 91.84 93.1875 91.84 93.1875 91.84 
C 93.1875 91.84 93.1875 91.84 93.1875 91.84 
C 93.1875 91.84 93.1875 91.84 93.1875 91.84 
C 93.1875 91.84 93.1875 91.84 93.1875 91.84 
z
" style="fill: #ffffff"/>
   </g>
   <g id="matplotlib.axis_1">
    <g id="xtick_1">
     <g id="line2d_1">
      <path d="M 93.1875 91.84 
L 149.965 91.84 
" clip-path="url(#p8e66af86d2)" style="fill: none; stroke: #b0b0b0; stroke-width: 0.8; stroke-linecap: square"/>
     </g>
     <g id="text_1">
      <!-- 0째 -->
      <g transform="translate(158.28375 94.599375) scale(0.1 -0.1)">
       <defs>
        <path id="DejaVuSans-30" d="M 2034 4250 
Q 1547 4250 1301 3770 
Q 1056 3291 1056 2328 
Q 1056 1369 1301 889 
Q 1547 409 2034 409 
Q 2525 409 2770 889 
Q 3016 1369 3016 2328 
Q 3016 3291 2770 3770 
Q 2525 4250 2034 4250 
z
M 2034 4750 
Q 2819 4750 3233 4129 
Q 3647 3509 3647 2328 
Q 3647 1150 3233 529 
Q 2819 -91 2034 -91 
Q 1250 -91 836 529 
Q 422 1150 422 2328 
Q 422 3509 836 4129 
Q 1250 4750 2034 4750 
z
" transform="scale(0.015625)"/>
        <path id="DejaVuSans-b0" d="M 1600 4347 
Q 1350 4347 1178 4173 
Q 1006 4000 1006 3750 
Q 1006 3503 1178 3333 
Q 1350 3163 1600 3163 
Q 1850 3163 2022 3333 
Q 2194 3503 2194 3750 
Q 2194 3997 2020 4172 
Q 1847 4347 1600 4347 
z
M 1600 4750 
Q 1800 4750 1984 4673 
Q 2169 4597 2303 4453 
Q 2447 4313 2519 4134 
Q 2591 3956 2591 3750 
Q 2591 3338 2302 3052 
Q 2013 2766 1594 2766 
Q 1172 2766 890 3047 
Q 609 3328 609 3750 
Q 609 4169 896 4459 
Q 1184 4750 1600 4750 
z
" transform="scale(0.015625)"/>
       </defs>
       <use xlink:href="#DejaVuSans-30"/>
       <use xlink:href="#DejaVuSans-b0" transform="translate(63.623047 0)"/>
      </g>
     </g>
    </g>
    <g id="xtick_2">
     <g id="line2d_2">
      <path d="M 93.1875 91.84 
L 93.1875 35.0625 
" clip-path="url(#p8e66af86d2)" style="fill: none; stroke: #b0b0b0; stroke-width: 0.8; stroke-linecap: square"/>
     </g>
     <g id="text_2">
      <!-- 90째 -->
      <g transform="translate(84.325 23.821875) scale(0.1 -0.1)">
       <defs>
        <path id="DejaVuSans-39" d="M 703 97 
L 703 672 
Q 941 559 1184 500 
Q 1428 441 1663 441 
Q 2288 441 2617 861 
Q 2947 1281 2994 2138 
Q 2813 1869 2534 1725 
Q 2256 1581 1919 1581 
Q 1219 1581 811 2004 
Q 403 2428 403 3163 
Q 403 3881 828 4315 
Q 1253 4750 1959 4750 
Q 2769 4750 3195 4129 
Q 3622 3509 3622 2328 
Q 3622 1225 3098 567 
Q 2575 -91 1691 -91 
Q 1453 -91 1209 -44 
Q 966 3 703 97 
z
M 1959 2075 
Q 2384 2075 2632 2365 
Q 2881 2656 2881 3163 
Q 2881 3666 2632 3958 
Q 2384 4250 1959 4250 
Q 1534 4250 1286 3958 
Q 1038 3666 1038 3163 
Q 1038 2656 1286 2365 
Q 1534 2075 1959 2075 
z
" transform="scale(0.015625)"/>
       </defs>
       <use xlink:href="#DejaVuSans-39"/>
       <use xlink:href="#DejaVuSans-30" transform="translate(63.623047 0)"/>
       <use xlink:href="#DejaVuSans-b0" transform="translate(127.246094 0)"/>
      </g>
     </g>
    </g>
    <g id="xtick_3">
     <g id="line2d_3">
      <path d="M 93.1875 91.84 
L 36.41 91.84 
" clip-path="url(#p8e66af86d2)" style="fill: none; stroke: #b0b0b0; stroke-width: 0.8; stroke-linecap: square"/>
     </g>
     <g id="text_3">
      <!-- 180째 -->
      <g transform="translate(10.36625 94.599375) scale(0.1 -0.1)">
       <defs>
        <path id="DejaVuSans-31" d="M 794 531 
L 1825 531 
L 1825 4091 
L 703 3866 
L 703 4441 
L 1819 4666 
L 2450 4666 
L 2450 531 
L 3481 531 
L 3481 0 
L 794 0 
L 794 531 
z
" transform="scale(0.015625)"/>
        <path id="DejaVuSans-38" d="M 2034 2216 
Q 1584 2216 1326 1975 
Q 1069 1734 1069 1313 
Q 1069 891 1326 650 
Q 1584 409 2034 409 
Q 2484 409 2743 651 
Q 3003 894 3003 1313 
Q 3003 1734 2745 1975 
Q 2488 2216 2034 2216 
z
M 1403 2484 
Q 997 2584 770 2862 
Q 544 3141 544 3541 
Q 544 4100 942 4425 
Q 1341 4750 2034 4750 
Q 2731 4750 3128 4425 
Q 3525 4100 3525 3541 
Q 3525 3141 3298 2862 
Q 3072 2584 2669 2484 
Q 3125 2378 3379 2068 
Q 3634 1759 3634 1313 
Q 3634 634 3220 271 
Q 2806 -91 2034 -91 
Q 1263 -91 848 271 
Q 434 634 434 1313 
Q 434 1759 690 2068 
Q 947 2378 1403 2484 
z
M 1172 3481 
Q 1172 3119 1398 2916 
Q 1625 2713 2034 2713 
Q 2441 2713 2670 2916 
Q 2900 3119 2900 3481 
Q 2900 3844 2670 4047 
Q 2441 4250 2034 4250 
Q 1625 4250 1398 4047 
Q 1172 3844 1172 3481 
z
" transform="scale(0.015625)"/>
       </defs>
       <use xlink:href="#DejaVuSans-31"/>
       <use xlink:href="#DejaVuSans-38" transform="translate(63.623047 0)"/>
       <use xlink:href="#DejaVuSans-30" transform="translate(127.246094 0)"/>
       <use xlink:href="#DejaVuSans-b0" transform="translate(190.869141 0)"/>
      </g>
     </g>
    </g>
    <g id="xtick_4">
     <g id="line2d_4">
      <path d="M 93.1875 91.84 
L 93.1875 148.6175 
" clip-path="url(#p8e66af86d2)" style="fill: none; stroke: #b0b0b0; stroke-width: 0.8; stroke-linecap: square"/>
     </g>
     <g id="text_4">
      <!-- 270째 -->
      <g transform="translate(81.14375 165.376875) scale(0.1 -0.1)">
       <defs>
        <path id="DejaVuSans-32" d="M 1228 531 
L 3431 531 
L 3431 0 
L 469 0 
L 469 531 
Q 828 903 1448 1529 
Q 2069 2156 2228 2338 
Q 2531 2678 2651 2914 
Q 2772 3150 2772 3378 
Q 2772 3750 2511 3984 
Q 2250 4219 1831 4219 
Q 1534 4219 1204 4116 
Q 875 4013 500 3803 
L 500 4441 
Q 881 4594 1212 4672 
Q 1544 4750 1819 4750 
Q 2544 4750 2975 4387 
Q 3406 4025 3406 3419 
Q 3406 3131 3298 2873 
Q 3191 2616 2906 2266 
Q 2828 2175 2409 1742 
Q 1991 1309 1228 531 
z
" transform="scale(0.015625)"/>
        <path id="DejaVuSans-37" d="M 525 4666 
L 3525 4666 
L 3525 4397 
L 1831 0 
L 1172 0 
L 2766 4134 
L 525 4134 
L 525 4666 
z
" transform="scale(0.015625)"/>
       </defs>
       <use xlink:href="#DejaVuSans-32"/>
       <use xlink:href="#DejaVuSans-37" transform="translate(63.623047 0)"/>
       <use xlink:href="#DejaVuSans-30" transform="translate(127.246094 0)"/>
       <use xlink:href="#DejaVuSans-b0" transform="translate(190.869141 0)"/>
      </g>
     </g>
    </g>
   </g>
   <g id="matplotlib.axis_2">
    <g id="ytick_1">
     <g id="line2d_5">
      <path d="M 93.1875 91.84 
C 93.1875 91.84 93.1875 91.84 93.1875 91.84 
C 93.1875 91.84 93.1875 91.84 93.1875 91.84 
C 93.1875 91.84 93.1875 91.84 93.1875 91.84 
C 93.1875 91.84 93.1875 91.84 93.1875 91.84 
C 93.1875 91.84 93.1875 91.84 93.1875 91.84 
C 93.1875 91.84 93.1875 91.84 93.1875 91.84 
C 93.1875 91.84 93.1875 91.84 93.1875 91.84 
C 93.1875 91.84 93.1875 91.84 93.1875 91.84 
C 93.1875 91.84 93.1875 91.84 93.1875 91.84 
C 93.1875 91.84 93.1875 91.84 93.1875 91.84 
C 93.1875 91.84 93.1875 91.84 93.1875 91.84 
C 93.1875 91.84 93.1875 91.84 93.1875 91.84 
C 93.1875 91.84 93.1875 91.84 93.1875 91.84 
C 93.1875 91.84 93.1875 91.84 93.1875 91.84 
C 93.1875 91.84 93.1875 91.84 93.1875 91.84 
C 93.1875 91.84 93.1875 91.84 93.1875 91.84 
" clip-path="url(#p8e66af86d2)" style="fill: none; stroke: #b0b0b0; stroke-width: 0.8; stroke-linecap: square"/>
     </g>
     <g id="text_5">
      <!-- 0.0 -->
      <g transform="translate(93.1875 89.760312) scale(0.1 -0.1)">
       <defs>
        <path id="DejaVuSans-2e" d="M 684 794 
L 1344 794 
L 1344 0 
L 684 0 
L 684 794 
z
" transform="scale(0.015625)"/>
       </defs>
       <use xlink:href="#DejaVuSans-30"/>
       <use xlink:href="#DejaVuSans-2e" transform="translate(63.623047 0)"/>
       <use xlink:href="#DejaVuSans-30" transform="translate(95.410156 0)"/>
      </g>
     </g>
    </g>
    <g id="ytick_2">
     <g id="line2d_6">
      <path d="M 116.482493 91.84 
C 116.482493 88.78093 115.879923 85.751605 114.709267 82.925392 
C 113.538612 80.099179 111.822637 77.531042 109.659548 75.367952 
C 107.496458 73.204863 104.928321 71.488888 102.102108 70.318233 
C 99.275895 69.147577 96.24657 68.545007 93.1875 68.545007 
C 90.12843 68.545007 87.099105 69.147577 84.272892 70.318233 
C 81.446679 71.488888 78.878542 73.204863 76.715452 75.367952 
C 74.552363 77.531042 72.836388 80.099179 71.665733 82.925392 
C 70.495077 85.751605 69.892507 88.78093 69.892507 91.84 
C 69.892507 94.89907 70.495077 97.928395 71.665733 100.754608 
C 72.836388 103.580821 74.552363 106.148958 76.715452 108.312048 
C 78.878542 110.475137 81.446679 112.191112 84.272892 113.361767 
C 87.099105 114.532423 90.12843 115.134993 93.1875 115.134993 
C 96.24657 115.134993 99.275895 114.532423 102.102108 113.361767 
C 104.928321 112.191112 107.496458 110.475137 109.659548 108.312048 
C 111.822637 106.148958 113.538612 103.580821 114.709267 100.754608 
C 115.879923 97.928395 116.482493 94.89907 116.482493 91.84 
" clip-path="url(#p8e66af86d2)" style="fill: none; stroke: #b0b0b0; stroke-width: 0.8; stroke-linecap: square"/>
     </g>
     <g id="text_6">
      <!-- 0.8 -->
      <g transform="translate(114.709267 98.67492) scale(0.1 -0.1)">
       <use xlink:href="#DejaVuSans-30"/>
       <use xlink:href="#DejaVuSans-2e" transform="translate(63.623047 0)"/>
       <use xlink:href="#DejaVuSans-38" transform="translate(95.410156 0)"/>
      </g>
     </g>
    </g>
    <g id="ytick_3">
     <g id="line2d_7">
      <path d="M 139.777486 91.84 
C 139.777486 85.721859 138.572346 79.663209 136.231035 74.010784 
C 133.889724 68.358359 130.457774 63.222084 126.131595 58.895905 
C 121.805416 54.569726 116.669141 51.137776 111.016716 48.796465 
C 105.364291 46.455154 99.305641 45.250014 93.1875 45.250014 
C 87.069359 45.250014 81.010709 46.455154 75.358284 48.796465 
C 69.705859 51.137776 64.569584 54.569726 60.243405 58.895905 
C 55.917226 63.222084 52.485276 68.358359 50.143965 74.010784 
C 47.802654 79.663209 46.597514 85.721859 46.597514 91.84 
C 46.597514 97.958141 47.802654 104.016791 50.143965 109.669216 
C 52.485276 115.321641 55.917226 120.457916 60.243405 124.784095 
C 64.569584 129.110274 69.705859 132.542224 75.358284 134.883535 
C 81.010709 137.224846 87.069359 138.429986 93.1875 138.429986 
C 99.305641 138.429986 105.364291 137.224846 111.016716 134.883535 
C 116.669141 132.542224 121.805416 129.110274 126.131595 124.784095 
C 130.457774 120.457916 133.889724 115.321641 136.231035 109.669216 
C 138.572346 104.016791 139.777486 97.958141 139.777486 91.84 
" clip-path="url(#p8e66af86d2)" style="fill: none; stroke: #b0b0b0; stroke-width: 0.8; stroke-linecap: square"/>
     </g>
     <g id="text_7">
      <!-- 1.6 -->
      <g transform="translate(136.231035 107.589528) scale(0.1 -0.1)">
       <defs>
        <path id="DejaVuSans-36" d="M 2113 2584 
Q 1688 2584 1439 2293 
Q 1191 2003 1191 1497 
Q 1191 994 1439 701 
Q 1688 409 2113 409 
Q 2538 409 2786 701 
Q 3034 994 3034 1497 
Q 3034 2003 2786 2293 
Q 2538 2584 2113 2584 
z
M 3366 4563 
L 3366 3988 
Q 3128 4100 2886 4159 
Q 2644 4219 2406 4219 
Q 1781 4219 1451 3797 
Q 1122 3375 1075 2522 
Q 1259 2794 1537 2939 
Q 1816 3084 2150 3084 
Q 2853 3084 3261 2657 
Q 3669 2231 3669 1497 
Q 3669 778 3244 343 
Q 2819 -91 2113 -91 
Q 1303 -91 875 529 
Q 447 1150 447 2328 
Q 447 3434 972 4092 
Q 1497 4750 2381 4750 
Q 2619 4750 2861 4703 
Q 3103 4656 3366 4563 
z
" transform="scale(0.015625)"/>
       </defs>
       <use xlink:href="#DejaVuSans-31"/>
       <use xlink:href="#DejaVuSans-2e" transform="translate(63.623047 0)"/>
       <use xlink:href="#DejaVuSans-36" transform="translate(95.410156 0)"/>
      </g>
     </g>
    </g>
   </g>
   <g id="line2d_8">
    <path d="M 135.687715 91.84 
L 136.992293 89.056123 
L 137.983696 86.123146 
L 138.64545 83.078698 
L 138.966807 79.961911 
L 138.942806 76.812508 
L 138.574187 73.669912 
L 137.867148 70.572395 
L 136.832983 67.556305 
L 135.487596 64.655379 
L 133.850919 61.900159 
L 131.946264 59.317535 
L 129.799616 56.930418 
L 127.43891 54.757534 
L 124.893305 52.813366 
L 122.192479 51.108206 
L 119.36598 49.648336 
L 116.442626 48.436306 
L 113.450008 47.471297 
L 110.414065 46.749554 
L 107.358779 46.264865 
L 104.305965 46.009064 
L 101.275172 45.972534 
L 98.283685 46.144699 
L 95.346621 46.514472 
L 92.477102 47.070651 
L 89.686499 47.802249 
L 86.984724 48.698743 
L 84.380551 49.75024 
L 81.881949 50.947552 
L 79.496409 52.282191 
L 77.231238 53.746271 
L 75.093818 55.332354 
L 73.091797 57.033221 
L 71.233221 58.841609 
L 69.52658 60.749914 
L 67.980774 62.749888 
L 66.604999 64.832342 
L 65.408546 66.986882 
L 64.400541 69.201685 
L 63.58961 71.463343 
L 62.983507 73.756773 
L 62.588705 76.065225 
L 62.409984 78.370366 
L 62.450013 80.65247 
L 62.708977 82.890698 
L 63.184239 85.063465 
L 63.870074 87.14888 
L 64.757486 89.125263 
L 65.834122 90.971697 
L 67.08429 92.668618 
L 68.489094 94.198412 
L 70.026686 95.545992 
L 71.672625 96.699349 
L 73.400354 97.65003 
L 75.181769 98.39355 
L 76.987864 98.929694 
L 78.789449 99.262711 
L 80.557906 99.401378 
L 82.265966 99.358926 
L 83.888473 99.152836 
L 85.403122 98.804484 
L 86.791138 98.338665 
L 88.037871 97.782988 
L 89.133289 97.167171 
L 90.072343 96.522238 
L 90.855198 95.879665 
L 91.487311 95.270473 
L 91.97935 94.724317 
L 92.346956 94.268592 
L 92.610348 93.927574 
L 92.793781 93.721644 
L 92.924874 93.666601 
L 93.033818 93.773103 
L 93.152491 94.046245 
L 93.313511 94.48529 
L 93.549241 95.083573 
L 93.890793 95.828571 
L 94.367045 96.70215 
L 95.003712 97.680976 
L 95.822495 98.737085 
L 96.840333 99.838588 
L 98.068789 100.950506 
L 99.513579 102.035694 
L 101.174264 103.055841 
L 103.04412 103.972501 
L 105.110178 104.748149 
L 107.353444 105.3472 
L 109.749289 105.736991 
L 112.267997 105.888672 
L 114.875452 105.778 
L 117.533947 105.386 
L 120.203093 104.699479 
L 122.840789 103.711386 
L 125.40424 102.420998 
L 127.85098 100.83393 
L 130.139877 98.961987 
L 132.232089 96.822838 
L 134.091942 94.439554 
L 135.687715 91.84 
" clip-path="url(#p8e66af86d2)" style="fill: none; stroke: #0000ff; stroke-width: 2; stroke-linecap: square"/>
   </g>
   <g id="line2d_9">
    <path d="M 147.009507 91.84 
L 147.237055 88.40505 
L 146.913444 84.983539 
L 146.050885 81.651418 
L 144.674966 78.480848 
L 142.823674 75.537908 
L 140.546001 72.880516 
L 137.900204 70.55666 
L 134.951761 68.602989 
L 131.77111 67.043819 
L 128.431257 65.890572 
L 125.00532 65.141679 
L 121.564121 64.782946 
L 118.17389 64.788357 
L 114.894172 65.121286 
L 111.776018 65.736079 
L 108.860503 66.579936 
L 106.177638 67.595024 
L 103.745709 68.720748 
L 101.571054 69.896091 
L 99.648297 71.061939 
L 97.961014 72.163306 
L 96.482809 73.151374 
L 95.178754 73.985284 
L 94.007142 74.633598 
L 92.92148 75.075398 
L 91.872647 75.300965 
L 90.811136 75.312027 
L 89.689301 75.12157 
L 88.463507 74.753205 
L 87.096128 74.240136 
L 85.557291 73.62376 
L 83.826324 72.951943 
L 81.892832 72.277061 
L 79.757381 71.653852 
L 77.431747 71.137182 
L 74.938731 70.779797 
L 72.311537 70.63015 
L 69.592749 70.730381 
L 66.832924 71.114532 
L 64.088876 71.807062 
L 61.421692 72.82171 
L 58.894569 74.160766 
L 56.570545 75.814763 
L 54.510205 77.762616 
L 52.769456 79.972191 
L 51.397443 82.401299 
L 50.434695 84.999067 
L 49.911561 87.707649 
L 49.846995 90.464203 
L 50.24775 93.203076 
L 51.107993 95.858106 
L 52.409376 98.364961 
L 54.121546 100.663435 
L 56.20309 102.699603 
L 58.602879 104.427773 
L 61.261764 105.812148 
L 64.11456 106.828142 
L 67.092258 107.463304 
L 70.124374 107.717801 
L 73.141357 107.604461 
L 76.076976 107.148347 
L 78.87058 106.385903 
L 81.469172 105.363672 
L 83.829207 104.136654 
L 85.918053 102.766347 
L 87.71506 101.318545 
L 89.212198 99.860972 
L 90.414241 98.460835 
L 91.338485 97.182379 
L 92.01401 96.084543 
L 92.480515 95.218789 
L 92.786762 94.627191 
L 92.988683 94.340845 
L 93.147216 94.378671 
L 93.32596 94.746636 
L 93.588706 95.437441 
L 93.99696 96.430674 
L 94.607527 97.69343 
L 95.470253 99.181383 
L 96.626002 100.840262 
L 98.104939 102.607689 
L 99.925185 104.41531 
L 102.091897 106.191151 
L 104.596791 107.862108 
L 107.418151 109.35649 
L 110.521295 110.606522 
L 113.859516 111.550728 
L 117.375439 112.13609 
L 121.002756 112.319939 
L 124.66829 112.071476 
L 128.294302 111.3729 
L 131.800959 110.220087 
L 135.108897 108.622796 
L 138.141762 106.604403 
L 140.828667 104.201175 
L 143.106461 101.461091 
L 144.921734 98.44228 
L 146.232505 95.211109 
L 147.009507 91.84 
" clip-path="url(#p8e66af86d2)" style="fill: none; stroke: #ffa500; stroke-width: 2; stroke-linecap: square"/>
   </g>
   <g id="patch_3">
    <path d="M 149.965 91.84 
C 149.965 84.384047 148.49634 77.000594 145.64307 70.112191 
C 142.7898 63.223789 138.60741 56.9644 133.335255 51.692245 
C 128.0631 46.42009 121.803711 42.2377 114.915309 39.38443 
C 108.026906 36.53116 100.643453 35.0625 93.1875 35.0625 
C 85.731547 35.0625 78.348094 36.53116 71.459691 39.38443 
C 64.571289 42.2377 58.3119 46.42009 53.039745 51.692245 
C 47.76759 56.9644 43.5852 63.223789 40.73193 70.112191 
C 37.87866 77.000594 36.41 84.384047 36.41 91.84 
C 36.41 99.295953 37.87866 106.679406 40.73193 113.567809 
C 43.5852 120.456211 47.76759 126.7156 53.039745 131.987755 
C 58.3119 137.25991 64.571289 141.4423 71.459691 144.29557 
C 78.348094 147.14884 85.731547 148.6175 93.1875 148.6175 
C 100.643453 148.6175 108.026906 147.14884 114.915309 144.29557 
C 121.803711 141.4423 128.0631 137.25991 133.335255 131.987755 
C 138.60741 126.7156 142.7898 120.456211 145.64307 113.567809 
C 148.49634 106.679406 149.965 99.295953 149.965 91.84 
" style="fill: none; stroke: #000000; stroke-width: 0.8; stroke-linejoin: miter; stroke-linecap: square"/>
   </g>
   <g id="legend_1">
    <g id="patch_4">
     <path d="M 20.699 50.728062 
L 73.299 50.728062 
Q 75.299 50.728062 75.299 48.728062 
L 75.299 19.3515 
Q 75.299 17.3515 73.299 17.3515 
L 20.699 17.3515 
Q 18.699 17.3515 18.699 19.3515 
L 18.699 48.728062 
Q 18.699 50.728062 20.699 50.728062 
z
" style="fill: #ffffff; opacity: 0.8; stroke: #cccccc; stroke-linejoin: miter"/>
    </g>
    <g id="line2d_10">
     <path d="M 22.699 25.449937 
L 32.699 25.449937 
L 42.699 25.449937 
" style="fill: none; stroke: #0000ff; stroke-width: 2; stroke-linecap: square"/>
    </g>
    <g id="text_8">
     <!-- $D_{air}$ -->
     <g transform="translate(50.699 28.949937) scale(0.1 -0.1)">
      <defs>
       <path id="DejaVuSans-Oblique-44" d="M 1081 4666 
L 2438 4666 
Q 3519 4666 4070 4208 
Q 4622 3750 4622 2847 
Q 4622 2250 4412 1698 
Q 4203 1147 3834 769 
Q 3463 381 2891 190 
Q 2319 0 1538 0 
L 172 0 
L 1081 4666 
z
M 1613 4147 
L 909 519 
L 1734 519 
Q 2794 519 3375 1128 
Q 3956 1738 3956 2847 
Q 3956 3519 3581 3833 
Q 3206 4147 2406 4147 
L 1613 4147 
z
" transform="scale(0.015625)"/>
       <path id="DejaVuSans-Oblique-61" d="M 3438 1997 
L 3047 0 
L 2472 0 
L 2578 531 
Q 2325 219 2001 64 
Q 1678 -91 1281 -91 
Q 834 -91 548 182 
Q 263 456 263 884 
Q 263 1497 752 1853 
Q 1241 2209 2100 2209 
L 2900 2209 
L 2931 2363 
Q 2938 2388 2941 2417 
Q 2944 2447 2944 2509 
Q 2944 2788 2717 2942 
Q 2491 3097 2081 3097 
Q 1800 3097 1504 3025 
Q 1209 2953 897 2809 
L 997 3341 
Q 1322 3463 1633 3523 
Q 1944 3584 2234 3584 
Q 2853 3584 3176 3315 
Q 3500 3047 3500 2534 
Q 3500 2431 3484 2292 
Q 3469 2153 3438 1997 
z
M 2816 1759 
L 2241 1759 
Q 1534 1759 1195 1570 
Q 856 1381 856 984 
Q 856 709 1029 553 
Q 1203 397 1509 397 
Q 1978 397 2328 733 
Q 2678 1069 2791 1631 
L 2816 1759 
z
" transform="scale(0.015625)"/>
       <path id="DejaVuSans-Oblique-69" d="M 1172 4863 
L 1747 4863 
L 1606 4134 
L 1031 4134 
L 1172 4863 
z
M 909 3500 
L 1484 3500 
L 800 0 
L 225 0 
L 909 3500 
z
" transform="scale(0.015625)"/>
       <path id="DejaVuSans-Oblique-72" d="M 2853 2969 
Q 2766 3016 2653 3041 
Q 2541 3066 2413 3066 
Q 1953 3066 1609 2717 
Q 1266 2369 1153 1784 
L 800 0 
L 225 0 
L 909 3500 
L 1484 3500 
L 1375 2956 
Q 1603 3259 1920 3421 
Q 2238 3584 2597 3584 
Q 2691 3584 2781 3573 
Q 2872 3563 2963 3538 
L 2853 2969 
z
" transform="scale(0.015625)"/>
      </defs>
      <use xlink:href="#DejaVuSans-Oblique-44" transform="translate(0 0.09375)"/>
      <use xlink:href="#DejaVuSans-Oblique-61" transform="translate(77.001953 -16.3125) scale(0.7)"/>
      <use xlink:href="#DejaVuSans-Oblique-69" transform="translate(119.897461 -16.3125) scale(0.7)"/>
      <use xlink:href="#DejaVuSans-Oblique-72" transform="translate(139.345703 -16.3125) scale(0.7)"/>
     </g>
    </g>
    <g id="line2d_11">
     <path d="M 22.699 40.128062 
L 32.699 40.128062 
L 42.699 40.128062 
" style="fill: none; stroke: #ffa500; stroke-width: 2; stroke-linecap: square"/>
    </g>
    <g id="text_9">
     <!-- $D_{spp}$ -->
     <g transform="translate(50.699 43.628062) scale(0.1 -0.1)">
      <defs>
       <path id="DejaVuSans-Oblique-73" d="M 3200 3397 
L 3091 2853 
Q 2863 2978 2609 3040 
Q 2356 3103 2088 3103 
Q 1634 3103 1373 2948 
Q 1113 2794 1113 2528 
Q 1113 2219 1719 2053 
Q 1766 2041 1788 2034 
L 1972 1978 
Q 2547 1819 2739 1644 
Q 2931 1469 2931 1166 
Q 2931 609 2489 259 
Q 2047 -91 1331 -91 
Q 1053 -91 747 -37 
Q 441 16 72 128 
L 184 722 
Q 500 559 806 475 
Q 1113 391 1394 391 
Q 1816 391 2080 572 
Q 2344 753 2344 1031 
Q 2344 1331 1650 1516 
L 1591 1531 
L 1394 1581 
Q 956 1697 753 1886 
Q 550 2075 550 2369 
Q 550 2928 970 3256 
Q 1391 3584 2113 3584 
Q 2397 3584 2667 3537 
Q 2938 3491 3200 3397 
z
" transform="scale(0.015625)"/>
       <path id="DejaVuSans-Oblique-70" d="M 3175 2156 
Q 3175 2616 2975 2859 
Q 2775 3103 2400 3103 
Q 2144 3103 1911 2972 
Q 1678 2841 1497 2591 
Q 1319 2344 1212 1994 
Q 1106 1644 1106 1300 
Q 1106 863 1306 627 
Q 1506 391 1875 391 
Q 2147 391 2380 519 
Q 2613 647 2778 891 
Q 2956 1147 3065 1494 
Q 3175 1841 3175 2156 
z
M 1394 2969 
Q 1625 3272 1939 3428 
Q 2253 3584 2638 3584 
Q 3175 3584 3472 3232 
Q 3769 2881 3769 2247 
Q 3769 1728 3584 1258 
Q 3400 788 3053 416 
Q 2822 169 2531 39 
Q 2241 -91 1919 -91 
Q 1547 -91 1294 64 
Q 1041 219 916 525 
L 556 -1331 
L -19 -1331 
L 922 3500 
L 1497 3500 
L 1394 2969 
z
" transform="scale(0.015625)"/>
      </defs>
      <use xlink:href="#DejaVuSans-Oblique-44" transform="translate(0 0.09375)"/>
      <use xlink:href="#DejaVuSans-Oblique-73" transform="translate(77.001953 -16.3125) scale(0.7)"/>
      <use xlink:href="#DejaVuSans-Oblique-70" transform="translate(113.47168 -16.3125) scale(0.7)"/>
      <use xlink:href="#DejaVuSans-Oblique-70" transform="translate(157.905273 -16.3125) scale(0.7)"/>
     </g>
    </g>
   </g>
  </g>
 </g>
 <defs>
  <clipPath id="p8e66af86d2">
   <path d="M 149.965 91.84 
C 149.965 84.384047 148.49634 77.000594 145.64307 70.112191 
C 142.7898 63.223789 138.60741 56.9644 133.335255 51.692245 
C 128.0631 46.42009 121.803711 42.2377 114.915309 39.38443 
C 108.026906 36.53116 100.643453 35.0625 93.1875 35.0625 
C 85.731547 35.0625 78.348094 36.53116 71.459691 39.38443 
C 64.571289 42.2377 58.3119 46.42009 53.039745 51.692245 
C 47.76759 56.9644 43.5852 63.223789 40.73193 70.112191 
C 37.87866 77.000594 36.41 84.384047 36.41 91.84 
C 36.41 99.295953 37.87866 106.679406 40.73193 113.567809 
C 43.5852 120.456211 47.76759 126.7156 53.039745 131.987755 
C 58.3119 137.25991 64.571289 141.4423 71.459691 144.29557 
C 78.348094 147.14884 85.731547 148.6175 93.1875 148.6175 
C 100.643453 148.6175 108.026906 147.14884 114.915309 144.29557 
C 121.803711 141.4423 128.0631 137.25991 133.335255 131.987755 
C 138.60741 126.7156 142.7898 120.456211 145.64307 113.567809 
C 148.49634 106.679406 149.965 99.295953 149.965 91.84 
M 93.1875 91.84 
C 93.1875 91.84 93.1875 91.84 93.1875 91.84 
C 93.1875 91.84 93.1875 91.84 93.1875 91.84 
C 93.1875 91.84 93.1875 91.84 93.1875 91.84 
C 93.1875 91.84 93.1875 91.84 93.1875 91.84 
C 93.1875 91.84 93.1875 91.84 93.1875 91.84 
C 93.1875 91.84 93.1875 91.84 93.1875 91.84 
C 93.1875 91.84 93.1875 91.84 93.1875 91.84 
C 93.1875 91.84 93.1875 91.84 93.1875 91.84 
C 93.1875 91.84 93.1875 91.84 93.1875 91.84 
C 93.1875 91.84 93.1875 91.84 93.1875 91.84 
C 93.1875 91.84 93.1875 91.84 93.1875 91.84 
C 93.1875 91.84 93.1875 91.84 93.1875 91.84 
C 93.1875 91.84 93.1875 91.84 93.1875 91.84 
C 93.1875 91.84 93.1875 91.84 93.1875 91.84 
C 93.1875 91.84 93.1875 91.84 93.1875 91.84 
C 93.1875 91.84 93.1875 91.84 93.1875 91.84 
z
"/>
  </clipPath>
 </defs>
</svg>
