<?xml version="1.0" encoding="utf-8" standalone="no"?>
<!DOCTYPE svg PUBLIC "-//W3C//DTD SVG 1.1//EN"
  "http://www.w3.org/Graphics/SVG/1.1/DTD/svg11.dtd">
<svg xmlns:xlink="http://www.w3.org/1999/xlink" width="288pt" height="216pt" viewBox="0 0 288 216" xmlns="http://www.w3.org/2000/svg" version="1.1">
 <metadata>
  <rdf:RDF xmlns:dc="http://purl.org/dc/elements/1.1/" xmlns:cc="http://creativecommons.org/ns#" xmlns:rdf="http://www.w3.org/1999/02/22-rdf-syntax-ns#">
   <cc:Work>
    <dc:type rdf:resource="http://purl.org/dc/dcmitype/StillImage"/>
    <dc:date>2025-11-28T16:46:33.322538</dc:date>
    <dc:format>image/svg+xml</dc:format>
    <dc:creator>
     <cc:Agent>
      <dc:title>Matplotlib v3.10.6, https://matplotlib.org/</dc:title>
     </cc:Agent>
    </dc:creator>
   </cc:Work>
  </rdf:RDF>
 </metadata>
 <defs>
  <style type="text/css">*{stroke-linejoin: round; stroke-linecap: butt}</style>
 </defs>
 <g id="figure_1">
  <g id="patch_1">
   <path d="M 0 216 
L 288 216 
L 288 0 
L 0 0 
z
" style="fill: #ffffff"/>
  </g>
  <g id="axes_1">
   <g id="patch_2">
    <path d="M 57.688 174.04 
L 267.66 174.04 
L 267.66 10.8 
L 57.688 10.8 
z
" style="fill: #ffffff"/>
   </g>
   <g id="matplotlib.axis_1">
    <g id="xtick_1">
     <g id="line2d_1">
      <path d="M 57.688 174.04 
L 57.688 10.8 
" clip-path="url(#pe18c13a3b3)" style="fill: none; stroke: #b0b0b0; stroke-width: 0.8; stroke-linecap: square"/>
     </g>
     <g id="line2d_2">
      <defs>
       <path id="m2b45a2a817" d="M 0 0 
L 0 3.5 
" style="stroke: #000000; stroke-width: 0.8"/>
      </defs>
      <g>
       <use xlink:href="#m2b45a2a817" x="57.688" y="174.04" style="stroke: #000000; stroke-width: 0.8"/>
      </g>
     </g>
     <g id="text_1">
      <!-- 100 -->
      <g transform="translate(48.14425 188.638438) scale(0.1 -0.1)">
       <defs>
        <path id="DejaVuSans-31" d="M 794 531 
L 1825 531 
L 1825 4091 
L 703 3866 
L 703 4441 
L 1819 4666 
L 2450 4666 
L 2450 531 
L 3481 531 
L 3481 0 
L 794 0 
L 794 531 
z
" transform="scale(0.015625)"/>
        <path id="DejaVuSans-30" d="M 2034 4250 
Q 1547 4250 1301 3770 
Q 1056 3291 1056 2328 
Q 1056 1369 1301 889 
Q 1547 409 2034 409 
Q 2525 409 2770 889 
Q 3016 1369 3016 2328 
Q 3016 3291 2770 3770 
Q 2525 4250 2034 4250 
z
M 2034 4750 
Q 2819 4750 3233 4129 
Q 3647 3509 3647 2328 
Q 3647 1150 3233 529 
Q 2819 -91 2034 -91 
Q 1250 -91 836 529 
Q 422 1150 422 2328 
Q 422 3509 836 4129 
Q 1250 4750 2034 4750 
z
" transform="scale(0.015625)"/>
       </defs>
       <use xlink:href="#DejaVuSans-31"/>
       <use xlink:href="#DejaVuSans-30" transform="translate(63.623047 0)"/>
       <use xlink:href="#DejaVuSans-30" transform="translate(127.246094 0)"/>
      </g>
     </g>
    </g>
    <g id="xtick_2">
     <g id="line2d_3">
      <path d="M 92.683333 174.04 
L 92.683333 10.8 
" clip-path="url(#pe18c13a3b3)" style="fill: none; stroke: #b0b0b0; stroke-width: 0.8; stroke-linecap: square"/>
     </g>
     <g id="line2d_4">
      <g>
       <use xlink:href="#m2b45a2a817" x="92.683333" y="174.04" style="stroke: #000000; stroke-width: 0.8"/>
      </g>
     </g>
     <g id="text_2">
      <!-- 110 -->
      <g transform="translate(83.139583 188.638438) scale(0.1 -0.1)">
       <use xlink:href="#DejaVuSans-31"/>
       <use xlink:href="#DejaVuSans-31" transform="translate(63.623047 0)"/>
       <use xlink:href="#DejaVuSans-30" transform="translate(127.246094 0)"/>
      </g>
     </g>
    </g>
    <g id="xtick_3">
     <g id="line2d_5">
      <path d="M 127.678667 174.04 
L 127.678667 10.8 
" clip-path="url(#pe18c13a3b3)" style="fill: none; stroke: #b0b0b0; stroke-width: 0.8; stroke-linecap: square"/>
     </g>
     <g id="line2d_6">
      <g>
       <use xlink:href="#m2b45a2a817" x="127.678667" y="174.04" style="stroke: #000000; stroke-width: 0.8"/>
      </g>
     </g>
     <g id="text_3">
      <!-- 120 -->
      <g transform="translate(118.134917 188.638438) scale(0.1 -0.1)">
       <defs>
        <path id="DejaVuSans-32" d="M 1228 531 
L 3431 531 
L 3431 0 
L 469 0 
L 469 531 
Q 828 903 1448 1529 
Q 2069 2156 2228 2338 
Q 2531 2678 2651 2914 
Q 2772 3150 2772 3378 
Q 2772 3750 2511 3984 
Q 2250 4219 1831 4219 
Q 1534 4219 1204 4116 
Q 875 4013 500 3803 
L 500 4441 
Q 881 4594 1212 4672 
Q 1544 4750 1819 4750 
Q 2544 4750 2975 4387 
Q 3406 4025 3406 3419 
Q 3406 3131 3298 2873 
Q 3191 2616 2906 2266 
Q 2828 2175 2409 1742 
Q 1991 1309 1228 531 
z
" transform="scale(0.015625)"/>
       </defs>
       <use xlink:href="#DejaVuSans-31"/>
       <use xlink:href="#DejaVuSans-32" transform="translate(63.623047 0)"/>
       <use xlink:href="#DejaVuSans-30" transform="translate(127.246094 0)"/>
      </g>
     </g>
    </g>
    <g id="xtick_4">
     <g id="line2d_7">
      <path d="M 162.674 174.04 
L 162.674 10.8 
" clip-path="url(#pe18c13a3b3)" style="fill: none; stroke: #b0b0b0; stroke-width: 0.8; stroke-linecap: square"/>
     </g>
     <g id="line2d_8">
      <g>
       <use xlink:href="#m2b45a2a817" x="162.674" y="174.04" style="stroke: #000000; stroke-width: 0.8"/>
      </g>
     </g>
     <g id="text_4">
      <!-- 130 -->
      <g transform="translate(153.13025 188.638438) scale(0.1 -0.1)">
       <defs>
        <path id="DejaVuSans-33" d="M 2597 2516 
Q 3050 2419 3304 2112 
Q 3559 1806 3559 1356 
Q 3559 666 3084 287 
Q 2609 -91 1734 -91 
Q 1441 -91 1130 -33 
Q 819 25 488 141 
L 488 750 
Q 750 597 1062 519 
Q 1375 441 1716 441 
Q 2309 441 2620 675 
Q 2931 909 2931 1356 
Q 2931 1769 2642 2001 
Q 2353 2234 1838 2234 
L 1294 2234 
L 1294 2753 
L 1863 2753 
Q 2328 2753 2575 2939 
Q 2822 3125 2822 3475 
Q 2822 3834 2567 4026 
Q 2313 4219 1838 4219 
Q 1578 4219 1281 4162 
Q 984 4106 628 3988 
L 628 4550 
Q 988 4650 1302 4700 
Q 1616 4750 1894 4750 
Q 2613 4750 3031 4423 
Q 3450 4097 3450 3541 
Q 3450 3153 3228 2886 
Q 3006 2619 2597 2516 
z
" transform="scale(0.015625)"/>
       </defs>
       <use xlink:href="#DejaVuSans-31"/>
       <use xlink:href="#DejaVuSans-33" transform="translate(63.623047 0)"/>
       <use xlink:href="#DejaVuSans-30" transform="translate(127.246094 0)"/>
      </g>
     </g>
    </g>
    <g id="xtick_5">
     <g id="line2d_9">
      <path d="M 197.669333 174.04 
L 197.669333 10.8 
" clip-path="url(#pe18c13a3b3)" style="fill: none; stroke: #b0b0b0; stroke-width: 0.8; stroke-linecap: square"/>
     </g>
     <g id="line2d_10">
      <g>
       <use xlink:href="#m2b45a2a817" x="197.669333" y="174.04" style="stroke: #000000; stroke-width: 0.8"/>
      </g>
     </g>
     <g id="text_5">
      <!-- 140 -->
      <g transform="translate(188.125583 188.638438) scale(0.1 -0.1)">
       <defs>
        <path id="DejaVuSans-34" d="M 2419 4116 
L 825 1625 
L 2419 1625 
L 2419 4116 
z
M 2253 4666 
L 3047 4666 
L 3047 1625 
L 3713 1625 
L 3713 1100 
L 3047 1100 
L 3047 0 
L 2419 0 
L 2419 1100 
L 313 1100 
L 313 1709 
L 2253 4666 
z
" transform="scale(0.015625)"/>
       </defs>
       <use xlink:href="#DejaVuSans-31"/>
       <use xlink:href="#DejaVuSans-34" transform="translate(63.623047 0)"/>
       <use xlink:href="#DejaVuSans-30" transform="translate(127.246094 0)"/>
      </g>
     </g>
    </g>
    <g id="xtick_6">
     <g id="line2d_11">
      <path d="M 232.664667 174.04 
L 232.664667 10.8 
" clip-path="url(#pe18c13a3b3)" style="fill: none; stroke: #b0b0b0; stroke-width: 0.8; stroke-linecap: square"/>
     </g>
     <g id="line2d_12">
      <g>
       <use xlink:href="#m2b45a2a817" x="232.664667" y="174.04" style="stroke: #000000; stroke-width: 0.8"/>
      </g>
     </g>
     <g id="text_6">
      <!-- 150 -->
      <g transform="translate(223.120917 188.638438) scale(0.1 -0.1)">
       <defs>
        <path id="DejaVuSans-35" d="M 691 4666 
L 3169 4666 
L 3169 4134 
L 1269 4134 
L 1269 2991 
Q 1406 3038 1543 3061 
Q 1681 3084 1819 3084 
Q 2600 3084 3056 2656 
Q 3513 2228 3513 1497 
Q 3513 744 3044 326 
Q 2575 -91 1722 -91 
Q 1428 -91 1123 -41 
Q 819 9 494 109 
L 494 744 
Q 775 591 1075 516 
Q 1375 441 1709 441 
Q 2250 441 2565 725 
Q 2881 1009 2881 1497 
Q 2881 1984 2565 2268 
Q 2250 2553 1709 2553 
Q 1456 2553 1204 2497 
Q 953 2441 691 2322 
L 691 4666 
z
" transform="scale(0.015625)"/>
       </defs>
       <use xlink:href="#DejaVuSans-31"/>
       <use xlink:href="#DejaVuSans-35" transform="translate(63.623047 0)"/>
       <use xlink:href="#DejaVuSans-30" transform="translate(127.246094 0)"/>
      </g>
     </g>
    </g>
    <g id="xtick_7">
     <g id="line2d_13">
      <path d="M 267.66 174.04 
L 267.66 10.8 
" clip-path="url(#pe18c13a3b3)" style="fill: none; stroke: #b0b0b0; stroke-width: 0.8; stroke-linecap: square"/>
     </g>
     <g id="line2d_14">
      <g>
       <use xlink:href="#m2b45a2a817" x="267.66" y="174.04" style="stroke: #000000; stroke-width: 0.8"/>
      </g>
     </g>
     <g id="text_7">
      <!-- 160 -->
      <g transform="translate(258.11625 188.638438) scale(0.1 -0.1)">
       <defs>
        <path id="DejaVuSans-36" d="M 2113 2584 
Q 1688 2584 1439 2293 
Q 1191 2003 1191 1497 
Q 1191 994 1439 701 
Q 1688 409 2113 409 
Q 2538 409 2786 701 
Q 3034 994 3034 1497 
Q 3034 2003 2786 2293 
Q 2538 2584 2113 2584 
z
M 3366 4563 
L 3366 3988 
Q 3128 4100 2886 4159 
Q 2644 4219 2406 4219 
Q 1781 4219 1451 3797 
Q 1122 3375 1075 2522 
Q 1259 2794 1537 2939 
Q 1816 3084 2150 3084 
Q 2853 3084 3261 2657 
Q 3669 2231 3669 1497 
Q 3669 778 3244 343 
Q 2819 -91 2113 -91 
Q 1303 -91 875 529 
Q 447 1150 447 2328 
Q 447 3434 972 4092 
Q 1497 4750 2381 4750 
Q 2619 4750 2861 4703 
Q 3103 4656 3366 4563 
z
" transform="scale(0.015625)"/>
       </defs>
       <use xlink:href="#DejaVuSans-31"/>
       <use xlink:href="#DejaVuSans-36" transform="translate(63.623047 0)"/>
       <use xlink:href="#DejaVuSans-30" transform="translate(127.246094 0)"/>
      </g>
     </g>
    </g>
    <g id="text_8">
     <!-- $R$ (nm) -->
     <g transform="translate(145.624 202.316563) scale(0.1 -0.1)">
      <defs>
       <path id="DejaVuSans-Oblique-52" d="M 1613 4147 
L 1294 2491 
L 2106 2491 
Q 2584 2491 2879 2755 
Q 3175 3019 3175 3444 
Q 3175 3784 2976 3965 
Q 2778 4147 2406 4147 
L 1613 4147 
z
M 2772 2241 
Q 2972 2194 3105 2009 
Q 3238 1825 3413 1275 
L 3809 0 
L 3144 0 
L 2778 1197 
Q 2638 1659 2453 1815 
Q 2269 1972 1888 1972 
L 1191 1972 
L 806 0 
L 172 0 
L 1081 4666 
L 2503 4666 
Q 3150 4666 3495 4373 
Q 3841 4081 3841 3531 
Q 3841 3044 3547 2687 
Q 3253 2331 2772 2241 
z
" transform="scale(0.015625)"/>
       <path id="DejaVuSans-20" transform="scale(0.015625)"/>
       <path id="DejaVuSans-28" d="M 1984 4856 
Q 1566 4138 1362 3434 
Q 1159 2731 1159 2009 
Q 1159 1288 1364 580 
Q 1569 -128 1984 -844 
L 1484 -844 
Q 1016 -109 783 600 
Q 550 1309 550 2009 
Q 550 2706 781 3412 
Q 1013 4119 1484 4856 
L 1984 4856 
z
" transform="scale(0.015625)"/>
       <path id="DejaVuSans-6e" d="M 3513 2113 
L 3513 0 
L 2938 0 
L 2938 2094 
Q 2938 2591 2744 2837 
Q 2550 3084 2163 3084 
Q 1697 3084 1428 2787 
Q 1159 2491 1159 1978 
L 1159 0 
L 581 0 
L 581 3500 
L 1159 3500 
L 1159 2956 
Q 1366 3272 1645 3428 
Q 1925 3584 2291 3584 
Q 2894 3584 3203 3211 
Q 3513 2838 3513 2113 
z
" transform="scale(0.015625)"/>
       <path id="DejaVuSans-6d" d="M 3328 2828 
Q 3544 3216 3844 3400 
Q 4144 3584 4550 3584 
Q 5097 3584 5394 3201 
Q 5691 2819 5691 2113 
L 5691 0 
L 5113 0 
L 5113 2094 
Q 5113 2597 4934 2840 
Q 4756 3084 4391 3084 
Q 3944 3084 3684 2787 
Q 3425 2491 3425 1978 
L 3425 0 
L 2847 0 
L 2847 2094 
Q 2847 2600 2669 2842 
Q 2491 3084 2119 3084 
Q 1678 3084 1418 2786 
Q 1159 2488 1159 1978 
L 1159 0 
L 581 0 
L 581 3500 
L 1159 3500 
L 1159 2956 
Q 1356 3278 1631 3431 
Q 1906 3584 2284 3584 
Q 2666 3584 2933 3390 
Q 3200 3197 3328 2828 
z
" transform="scale(0.015625)"/>
       <path id="DejaVuSans-29" d="M 513 4856 
L 1013 4856 
Q 1481 4119 1714 3412 
Q 1947 2706 1947 2009 
Q 1947 1309 1714 600 
Q 1481 -109 1013 -844 
L 513 -844 
Q 928 -128 1133 580 
Q 1338 1288 1338 2009 
Q 1338 2731 1133 3434 
Q 928 4138 513 4856 
z
" transform="scale(0.015625)"/>
      </defs>
      <use xlink:href="#DejaVuSans-Oblique-52" transform="translate(0 0.125)"/>
      <use xlink:href="#DejaVuSans-20" transform="translate(69.482422 0.125)"/>
      <use xlink:href="#DejaVuSans-28" transform="translate(101.269531 0.125)"/>
      <use xlink:href="#DejaVuSans-6e" transform="translate(140.283203 0.125)"/>
      <use xlink:href="#DejaVuSans-6d" transform="translate(203.662109 0.125)"/>
      <use xlink:href="#DejaVuSans-29" transform="translate(301.074219 0.125)"/>
     </g>
    </g>
   </g>
   <g id="matplotlib.axis_2">
    <g id="ytick_1">
     <g id="line2d_15">
      <path d="M 57.688 161.483077 
L 267.66 161.483077 
" clip-path="url(#pe18c13a3b3)" style="fill: none; stroke: #b0b0b0; stroke-width: 0.8; stroke-linecap: square"/>
     </g>
     <g id="line2d_16">
      <defs>
       <path id="m2806ff1598" d="M 0 0 
L -3.5 0 
" style="stroke: #000000; stroke-width: 0.8"/>
      </defs>
      <g>
       <use xlink:href="#m2806ff1598" x="57.688" y="161.483077" style="stroke: #000000; stroke-width: 0.8"/>
      </g>
     </g>
     <g id="text_9">
      <!-- −0.5 -->
      <g transform="translate(26.405188 165.282296) scale(0.1 -0.1)">
       <defs>
        <path id="DejaVuSans-2212" d="M 678 2272 
L 4684 2272 
L 4684 1741 
L 678 1741 
L 678 2272 
z
" transform="scale(0.015625)"/>
        <path id="DejaVuSans-2e" d="M 684 794 
L 1344 794 
L 1344 0 
L 684 0 
L 684 794 
z
" transform="scale(0.015625)"/>
       </defs>
       <use xlink:href="#DejaVuSans-2212"/>
       <use xlink:href="#DejaVuSans-30" transform="translate(83.789062 0)"/>
       <use xlink:href="#DejaVuSans-2e" transform="translate(147.412109 0)"/>
       <use xlink:href="#DejaVuSans-35" transform="translate(179.199219 0)"/>
      </g>
     </g>
    </g>
    <g id="ytick_2">
     <g id="line2d_17">
      <path d="M 57.688 136.369231 
L 267.66 136.369231 
" clip-path="url(#pe18c13a3b3)" style="fill: none; stroke: #b0b0b0; stroke-width: 0.8; stroke-linecap: square"/>
     </g>
     <g id="line2d_18">
      <g>
       <use xlink:href="#m2806ff1598" x="57.688" y="136.369231" style="stroke: #000000; stroke-width: 0.8"/>
      </g>
     </g>
     <g id="text_10">
      <!-- −0.4 -->
      <g transform="translate(26.405188 140.16845) scale(0.1 -0.1)">
       <use xlink:href="#DejaVuSans-2212"/>
       <use xlink:href="#DejaVuSans-30" transform="translate(83.789062 0)"/>
       <use xlink:href="#DejaVuSans-2e" transform="translate(147.412109 0)"/>
       <use xlink:href="#DejaVuSans-34" transform="translate(179.199219 0)"/>
      </g>
     </g>
    </g>
    <g id="ytick_3">
     <g id="line2d_19">
      <path d="M 57.688 111.255385 
L 267.66 111.255385 
" clip-path="url(#pe18c13a3b3)" style="fill: none; stroke: #b0b0b0; stroke-width: 0.8; stroke-linecap: square"/>
     </g>
     <g id="line2d_20">
      <g>
       <use xlink:href="#m2806ff1598" x="57.688" y="111.255385" style="stroke: #000000; stroke-width: 0.8"/>
      </g>
     </g>
     <g id="text_11">
      <!-- −0.3 -->
      <g transform="translate(26.405188 115.054603) scale(0.1 -0.1)">
       <use xlink:href="#DejaVuSans-2212"/>
       <use xlink:href="#DejaVuSans-30" transform="translate(83.789062 0)"/>
       <use xlink:href="#DejaVuSans-2e" transform="translate(147.412109 0)"/>
       <use xlink:href="#DejaVuSans-33" transform="translate(179.199219 0)"/>
      </g>
     </g>
    </g>
    <g id="ytick_4">
     <g id="line2d_21">
      <path d="M 57.688 86.141538 
L 267.66 86.141538 
" clip-path="url(#pe18c13a3b3)" style="fill: none; stroke: #b0b0b0; stroke-width: 0.8; stroke-linecap: square"/>
     </g>
     <g id="line2d_22">
      <g>
       <use xlink:href="#m2806ff1598" x="57.688" y="86.141538" style="stroke: #000000; stroke-width: 0.8"/>
      </g>
     </g>
     <g id="text_12">
      <!-- −0.2 -->
      <g transform="translate(26.405188 89.940757) scale(0.1 -0.1)">
       <use xlink:href="#DejaVuSans-2212"/>
       <use xlink:href="#DejaVuSans-30" transform="translate(83.789062 0)"/>
       <use xlink:href="#DejaVuSans-2e" transform="translate(147.412109 0)"/>
       <use xlink:href="#DejaVuSans-32" transform="translate(179.199219 0)"/>
      </g>
     </g>
    </g>
    <g id="ytick_5">
     <g id="line2d_23">
      <path d="M 57.688 61.027692 
L 267.66 61.027692 
" clip-path="url(#pe18c13a3b3)" style="fill: none; stroke: #b0b0b0; stroke-width: 0.8; stroke-linecap: square"/>
     </g>
     <g id="line2d_24">
      <g>
       <use xlink:href="#m2806ff1598" x="57.688" y="61.027692" style="stroke: #000000; stroke-width: 0.8"/>
      </g>
     </g>
     <g id="text_13">
      <!-- −0.1 -->
      <g transform="translate(26.405188 64.826911) scale(0.1 -0.1)">
       <use xlink:href="#DejaVuSans-2212"/>
       <use xlink:href="#DejaVuSans-30" transform="translate(83.789062 0)"/>
       <use xlink:href="#DejaVuSans-2e" transform="translate(147.412109 0)"/>
       <use xlink:href="#DejaVuSans-31" transform="translate(179.199219 0)"/>
      </g>
     </g>
    </g>
    <g id="ytick_6">
     <g id="line2d_25">
      <path d="M 57.688 35.913846 
L 267.66 35.913846 
" clip-path="url(#pe18c13a3b3)" style="fill: none; stroke: #b0b0b0; stroke-width: 0.8; stroke-linecap: square"/>
     </g>
     <g id="line2d_26">
      <g>
       <use xlink:href="#m2806ff1598" x="57.688" y="35.913846" style="stroke: #000000; stroke-width: 0.8"/>
      </g>
     </g>
     <g id="text_14">
      <!-- 0.0 -->
      <g transform="translate(34.784875 39.713065) scale(0.1 -0.1)">
       <use xlink:href="#DejaVuSans-30"/>
       <use xlink:href="#DejaVuSans-2e" transform="translate(63.623047 0)"/>
       <use xlink:href="#DejaVuSans-30" transform="translate(95.410156 0)"/>
      </g>
     </g>
    </g>
    <g id="ytick_7">
     <g id="line2d_27">
      <path d="M 57.688 10.8 
L 267.66 10.8 
" clip-path="url(#pe18c13a3b3)" style="fill: none; stroke: #b0b0b0; stroke-width: 0.8; stroke-linecap: square"/>
     </g>
     <g id="line2d_28">
      <g>
       <use xlink:href="#m2806ff1598" x="57.688" y="10.8" style="stroke: #000000; stroke-width: 0.8"/>
      </g>
     </g>
     <g id="text_15">
      <!-- 0.1 -->
      <g transform="translate(34.784875 14.599219) scale(0.1 -0.1)">
       <use xlink:href="#DejaVuSans-30"/>
       <use xlink:href="#DejaVuSans-2e" transform="translate(63.623047 0)"/>
       <use xlink:href="#DejaVuSans-31" transform="translate(95.410156 0)"/>
      </g>
     </g>
    </g>
    <g id="text_16">
     <!-- $F_x^{\text{no press}}/F_0^{max}$ (1) -->
     <g transform="translate(19.505187 132.07) rotate(-90) scale(0.1 -0.1)">
      <defs>
       <path id="DejaVuSans-Oblique-46" d="M 1081 4666 
L 3756 4666 
L 3653 4134 
L 1606 4134 
L 1338 2759 
L 3188 2759 
L 3084 2228 
L 1234 2228 
L 800 0 
L 172 0 
L 1081 4666 
z
" transform="scale(0.015625)"/>
       <path id="DejaVuSans-6f" d="M 1959 3097 
Q 1497 3097 1228 2736 
Q 959 2375 959 1747 
Q 959 1119 1226 758 
Q 1494 397 1959 397 
Q 2419 397 2687 759 
Q 2956 1122 2956 1747 
Q 2956 2369 2687 2733 
Q 2419 3097 1959 3097 
z
M 1959 3584 
Q 2709 3584 3137 3096 
Q 3566 2609 3566 1747 
Q 3566 888 3137 398 
Q 2709 -91 1959 -91 
Q 1206 -91 779 398 
Q 353 888 353 1747 
Q 353 2609 779 3096 
Q 1206 3584 1959 3584 
z
" transform="scale(0.015625)"/>
       <path id="DejaVuSans-70" d="M 1159 525 
L 1159 -1331 
L 581 -1331 
L 581 3500 
L 1159 3500 
L 1159 2969 
Q 1341 3281 1617 3432 
Q 1894 3584 2278 3584 
Q 2916 3584 3314 3078 
Q 3713 2572 3713 1747 
Q 3713 922 3314 415 
Q 2916 -91 2278 -91 
Q 1894 -91 1617 61 
Q 1341 213 1159 525 
z
M 3116 1747 
Q 3116 2381 2855 2742 
Q 2594 3103 2138 3103 
Q 1681 3103 1420 2742 
Q 1159 2381 1159 1747 
Q 1159 1113 1420 752 
Q 1681 391 2138 391 
Q 2594 391 2855 752 
Q 3116 1113 3116 1747 
z
" transform="scale(0.015625)"/>
       <path id="DejaVuSans-72" d="M 2631 2963 
Q 2534 3019 2420 3045 
Q 2306 3072 2169 3072 
Q 1681 3072 1420 2755 
Q 1159 2438 1159 1844 
L 1159 0 
L 581 0 
L 581 3500 
L 1159 3500 
L 1159 2956 
Q 1341 3275 1631 3429 
Q 1922 3584 2338 3584 
Q 2397 3584 2469 3576 
Q 2541 3569 2628 3553 
L 2631 2963 
z
" transform="scale(0.015625)"/>
       <path id="DejaVuSans-65" d="M 3597 1894 
L 3597 1613 
L 953 1613 
Q 991 1019 1311 708 
Q 1631 397 2203 397 
Q 2534 397 2845 478 
Q 3156 559 3463 722 
L 3463 178 
Q 3153 47 2828 -22 
Q 2503 -91 2169 -91 
Q 1331 -91 842 396 
Q 353 884 353 1716 
Q 353 2575 817 3079 
Q 1281 3584 2069 3584 
Q 2775 3584 3186 3129 
Q 3597 2675 3597 1894 
z
M 3022 2063 
Q 3016 2534 2758 2815 
Q 2500 3097 2075 3097 
Q 1594 3097 1305 2825 
Q 1016 2553 972 2059 
L 3022 2063 
z
" transform="scale(0.015625)"/>
       <path id="DejaVuSans-73" d="M 2834 3397 
L 2834 2853 
Q 2591 2978 2328 3040 
Q 2066 3103 1784 3103 
Q 1356 3103 1142 2972 
Q 928 2841 928 2578 
Q 928 2378 1081 2264 
Q 1234 2150 1697 2047 
L 1894 2003 
Q 2506 1872 2764 1633 
Q 3022 1394 3022 966 
Q 3022 478 2636 193 
Q 2250 -91 1575 -91 
Q 1294 -91 989 -36 
Q 684 19 347 128 
L 347 722 
Q 666 556 975 473 
Q 1284 391 1588 391 
Q 1994 391 2212 530 
Q 2431 669 2431 922 
Q 2431 1156 2273 1281 
Q 2116 1406 1581 1522 
L 1381 1569 
Q 847 1681 609 1914 
Q 372 2147 372 2553 
Q 372 3047 722 3315 
Q 1072 3584 1716 3584 
Q 2034 3584 2315 3537 
Q 2597 3491 2834 3397 
z
" transform="scale(0.015625)"/>
       <path id="DejaVuSans-Oblique-78" d="M 3841 3500 
L 2234 1784 
L 3219 0 
L 2559 0 
L 1819 1388 
L 531 0 
L -166 0 
L 1556 1844 
L 641 3500 
L 1300 3500 
L 1972 2234 
L 3144 3500 
L 3841 3500 
z
" transform="scale(0.015625)"/>
       <path id="DejaVuSans-2f" d="M 1625 4666 
L 2156 4666 
L 531 -594 
L 0 -594 
L 1625 4666 
z
" transform="scale(0.015625)"/>
       <path id="DejaVuSans-Oblique-6d" d="M 5747 2113 
L 5338 0 
L 4763 0 
L 5166 2094 
Q 5191 2228 5203 2325 
Q 5216 2422 5216 2491 
Q 5216 2772 5059 2928 
Q 4903 3084 4622 3084 
Q 4203 3084 3875 2770 
Q 3547 2456 3450 1953 
L 3066 0 
L 2491 0 
L 2900 2094 
Q 2925 2209 2937 2307 
Q 2950 2406 2950 2484 
Q 2950 2769 2794 2926 
Q 2638 3084 2363 3084 
Q 1938 3084 1609 2770 
Q 1281 2456 1184 1953 
L 800 0 
L 225 0 
L 909 3500 
L 1484 3500 
L 1375 2956 
Q 1609 3263 1923 3423 
Q 2238 3584 2597 3584 
Q 2978 3584 3223 3384 
Q 3469 3184 3519 2828 
Q 3781 3197 4126 3390 
Q 4472 3584 4856 3584 
Q 5306 3584 5551 3325 
Q 5797 3066 5797 2591 
Q 5797 2488 5784 2364 
Q 5772 2241 5747 2113 
z
" transform="scale(0.015625)"/>
       <path id="DejaVuSans-Oblique-61" d="M 3438 1997 
L 3047 0 
L 2472 0 
L 2578 531 
Q 2325 219 2001 64 
Q 1678 -91 1281 -91 
Q 834 -91 548 182 
Q 263 456 263 884 
Q 263 1497 752 1853 
Q 1241 2209 2100 2209 
L 2900 2209 
L 2931 2363 
Q 2938 2388 2941 2417 
Q 2944 2447 2944 2509 
Q 2944 2788 2717 2942 
Q 2491 3097 2081 3097 
Q 1800 3097 1504 3025 
Q 1209 2953 897 2809 
L 997 3341 
Q 1322 3463 1633 3523 
Q 1944 3584 2234 3584 
Q 2853 3584 3176 3315 
Q 3500 3047 3500 2534 
Q 3500 2431 3484 2292 
Q 3469 2153 3438 1997 
z
M 2816 1759 
L 2241 1759 
Q 1534 1759 1195 1570 
Q 856 1381 856 984 
Q 856 709 1029 553 
Q 1203 397 1509 397 
Q 1978 397 2328 733 
Q 2678 1069 2791 1631 
L 2816 1759 
z
" transform="scale(0.015625)"/>
      </defs>
      <use xlink:href="#DejaVuSans-Oblique-46" transform="translate(0 0.51875)"/>
      <use xlink:href="#DejaVuSans-6e" transform="translate(64.536302 38.8) scale(0.7)"/>
      <use xlink:href="#DejaVuSans-6f" transform="translate(108.901536 38.8) scale(0.7)"/>
      <use xlink:href="#DejaVuSans-20" transform="translate(151.728685 38.8) scale(0.7)"/>
      <use xlink:href="#DejaVuSans-70" transform="translate(173.979661 38.8) scale(0.7)"/>
      <use xlink:href="#DejaVuSans-72" transform="translate(218.413255 38.8) scale(0.7)"/>
      <use xlink:href="#DejaVuSans-65" transform="translate(247.192552 38.8) scale(0.7)"/>
      <use xlink:href="#DejaVuSans-73" transform="translate(290.258958 38.8) scale(0.7)"/>
      <use xlink:href="#DejaVuSans-73" transform="translate(326.728685 38.8) scale(0.7)"/>
      <use xlink:href="#DejaVuSans-Oblique-78" transform="translate(57.519531 -26.825) scale(0.7)"/>
      <use xlink:href="#DejaVuSans-2f" transform="translate(365.932786 0.51875)"/>
      <use xlink:href="#DejaVuSans-Oblique-46" transform="translate(399.624193 0.51875)"/>
      <use xlink:href="#DejaVuSans-Oblique-6d" transform="translate(464.160495 38.8) scale(0.7)"/>
      <use xlink:href="#DejaVuSans-Oblique-61" transform="translate(532.348971 38.8) scale(0.7)"/>
      <use xlink:href="#DejaVuSans-Oblique-78" transform="translate(575.244479 38.8) scale(0.7)"/>
      <use xlink:href="#DejaVuSans-30" transform="translate(457.143724 -26.825) scale(0.7)"/>
      <use xlink:href="#DejaVuSans-20" transform="translate(619.404635 0.51875)"/>
      <use xlink:href="#DejaVuSans-28" transform="translate(651.191745 0.51875)"/>
      <use xlink:href="#DejaVuSans-31" transform="translate(690.205417 0.51875)"/>
      <use xlink:href="#DejaVuSans-29" transform="translate(753.828464 0.51875)"/>
     </g>
    </g>
   </g>
   <g id="line2d_29">
    <path d="M 57.688 42.94267 
L 59.808929 43.317135 
L 61.929859 43.710838 
L 64.050788 44.124525 
L 66.171717 44.558889 
L 68.292646 45.014542 
L 70.413576 45.491983 
L 72.534505 45.991562 
L 74.655434 46.513432 
L 76.776364 47.0575 
L 78.897293 47.623367 
L 81.018222 48.210254 
L 83.139152 48.816938 
L 85.260081 49.44166 
L 87.38101 50.082046 
L 89.501939 50.735021 
L 91.622869 51.396725 
L 93.743798 52.062445 
L 95.864727 52.726558 
L 97.985657 53.382499 
L 100.106586 54.022778 
L 102.227515 54.639028 
L 104.348444 55.222106 
L 106.469374 55.762262 
L 108.590303 56.249353 
L 110.711232 56.67311 
L 112.832162 57.023415 
L 114.953091 57.290559 
L 117.07402 57.465358 
L 119.194949 57.538988 
L 121.315879 57.502171 
L 123.436808 57.343076 
L 125.557737 57.042881 
L 127.678667 56.568317 
L 129.799596 55.866686 
L 131.920525 54.891504 
L 134.041455 53.695381 
L 136.162384 52.473774 
L 138.283313 51.375873 
L 140.404242 50.378202 
L 142.525172 49.397992 
L 144.646101 48.382656 
L 146.76703 47.313288 
L 148.88796 46.188488 
L 151.008889 45.01382 
L 153.129818 43.797085 
L 155.250747 42.546542 
L 157.371677 41.270393 
L 159.492606 39.976803 
L 161.613535 38.674129 
L 163.734465 37.371249 
L 165.855394 36.07793 
L 167.976323 34.805175 
L 170.097253 33.565545 
L 172.218182 32.373381 
L 174.339111 31.244902 
L 176.46004 30.198098 
L 178.58097 29.252376 
L 180.701899 28.427893 
L 182.822828 27.744577 
L 184.943758 27.220845 
L 187.064687 26.872116 
L 189.185616 26.709289 
L 191.306545 26.737383 
L 193.427475 26.95458 
L 195.548404 27.35187 
L 197.669333 27.913403 
L 199.790263 28.617527 
L 201.911192 29.438381 
L 204.032121 30.347782 
L 206.153051 31.317158 
L 208.27398 32.319263 
L 210.394909 33.329506 
L 212.515838 34.32683 
L 214.636768 35.294123 
L 216.757697 36.218252 
L 218.878626 37.089811 
L 220.999556 37.902677 
L 223.120485 38.653492 
L 225.241414 39.341112 
L 227.362343 39.966097 
L 229.483273 40.53025 
L 231.604202 41.036239 
L 233.725131 41.487279 
L 235.846061 41.88689 
L 237.96699 42.238714 
L 240.087919 42.546373 
L 242.208848 42.813384 
L 244.329778 43.043085 
L 246.450707 43.238603 
L 248.571636 43.402829 
L 250.692566 43.538408 
L 252.813495 43.647741 
L 254.934424 43.732992 
L 257.055354 43.796097 
L 259.176283 43.838776 
L 261.297212 43.862549 
L 263.418141 43.868749 
L 265.539071 43.858534 
L 267.66 43.832905 
" clip-path="url(#pe18c13a3b3)" style="fill: none; stroke: #ffa500; stroke-width: 2; stroke-linecap: square"/>
   </g>
   <g id="line2d_30">
    <path d="M 57.688 43.342734 
L 59.808929 43.77678 
L 61.929859 44.237138 
L 64.050788 44.725358 
L 66.171717 45.24303 
L 68.292646 45.791764 
L 70.413576 46.373171 
L 72.534505 46.988845 
L 74.655434 47.640331 
L 76.776364 48.329099 
L 78.897293 49.05651 
L 81.018222 49.823785 
L 83.139152 50.631971 
L 85.260081 51.48193 
L 87.38101 52.374326 
L 89.501939 53.309659 
L 91.622869 54.288335 
L 93.743798 55.310812 
L 95.864727 56.377851 
L 97.985657 57.49092 
L 100.106586 58.652826 
L 102.227515 59.868667 
L 104.348444 61.147246 
L 106.469374 62.50317 
L 108.590303 63.959953 
L 110.711232 65.554643 
L 112.832162 67.344771 
L 114.953091 69.418922 
L 117.07402 71.912815 
L 119.194949 75.03343 
L 121.315879 79.092783 
L 123.436808 84.544945 
L 125.557737 91.984464 
L 127.678667 101.944565 
L 129.799596 114.060584 
L 131.920525 125.197267 
L 134.041455 128.79212 
L 136.162384 120.888929 
L 138.283313 106.034724 
L 140.404242 91.063464 
L 142.525172 78.964555 
L 144.646101 69.830347 
L 146.76703 62.92783 
L 148.88796 57.553722 
L 151.008889 53.202941 
L 153.129818 49.542219 
L 155.250747 46.357366 
L 157.371677 43.511923 
L 159.492606 40.919844 
L 161.613535 38.528374 
L 163.734465 36.307493 
L 165.855394 34.243377 
L 167.976323 32.334306 
L 170.097253 30.587996 
L 172.218182 29.0197 
L 174.339111 27.650637 
L 176.46004 26.506435 
L 178.58097 25.615361 
L 180.701899 25.006211 
L 182.822828 24.705821 
L 184.943758 24.736291 
L 187.064687 25.112132 
L 189.185616 25.837668 
L 191.306545 26.905092 
L 193.427475 28.29355 
L 195.548404 29.96952 
L 197.669333 31.888533 
L 199.790263 33.998048 
L 201.911192 36.241069 
L 204.032121 38.559986 
L 206.153051 40.900114 
L 208.27398 43.212521 
L 210.394909 45.455929 
L 212.515838 47.597633 
L 214.636768 49.613576 
L 216.757697 51.487762 
L 218.878626 53.211243 
L 220.999556 54.780906 
L 223.120485 56.198211 
L 225.241414 57.468007 
L 227.362343 58.597496 
L 229.483273 59.59537 
L 231.604202 60.47112 
L 233.725131 61.234522 
L 235.846061 61.895246 
L 237.96699 62.462601 
L 240.087919 62.945355 
L 242.208848 63.351637 
L 244.329778 63.688883 
L 246.450707 63.963824 
L 248.571636 64.1825 
L 250.692566 64.350281 
L 252.813495 64.471915 
L 254.934424 64.551564 
L 257.055354 64.592854 
L 259.176283 64.598918 
L 261.297212 64.572444 
L 263.418141 64.515708 
L 265.539071 64.430625 
L 267.66 64.318767 
" clip-path="url(#pe18c13a3b3)" style="fill: none; stroke: #0000ff; stroke-width: 2; stroke-linecap: square"/>
   </g>
   <g id="line2d_31">
    <path d="M 57.688 50.371559 
L 59.808929 51.18007 
L 61.929859 52.034129 
L 64.050788 52.936037 
L 66.171717 53.888073 
L 68.292646 54.892459 
L 70.413576 55.951308 
L 72.534505 57.06656 
L 74.655434 58.239916 
L 76.776364 59.472753 
L 78.897293 60.766031 
L 81.018222 62.120193 
L 83.139152 63.535063 
L 85.260081 65.009743 
L 87.38101 66.542525 
L 89.501939 68.130833 
L 91.622869 69.771214 
L 93.743798 71.459411 
L 95.864727 73.190563 
L 97.985657 74.959573 
L 100.106586 76.761758 
L 102.227515 78.593849 
L 104.348444 80.455506 
L 106.469374 82.351585 
L 108.590303 84.29546 
L 110.711232 86.313906 
L 112.832162 88.454341 
L 114.953091 90.795634 
L 117.07402 93.464326 
L 119.194949 96.658572 
L 121.315879 100.681108 
L 123.436808 105.974175 
L 125.557737 113.1135 
L 127.678667 122.599036 
L 129.799596 134.013424 
L 131.920525 144.174925 
L 134.041455 146.573654 
L 136.162384 137.448857 
L 138.283313 121.496751 
L 140.404242 105.52782 
L 142.525172 92.448702 
L 144.646101 82.299157 
L 146.76703 74.327272 
L 148.88796 67.828363 
L 151.008889 62.302915 
L 153.129818 57.425458 
L 155.250747 52.990062 
L 157.371677 48.868471 
L 159.492606 44.982801 
L 161.613535 41.288657 
L 163.734465 37.764896 
L 165.855394 34.40746 
L 167.976323 31.225635 
L 170.097253 28.239694 
L 172.218182 25.479234 
L 174.339111 22.981692 
L 176.46004 20.790687 
L 178.58097 18.953891 
L 180.701899 17.520258 
L 182.822828 16.536552 
L 184.943758 16.043289 
L 187.064687 16.070401 
L 189.185616 16.633111 
L 191.306545 17.728629 
L 193.427475 19.334284 
L 195.548404 21.407544 
L 197.669333 23.88809 
L 199.790263 26.701729 
L 201.911192 29.765604 
L 204.032121 32.993922 
L 206.153051 36.303426 
L 208.27398 39.617938 
L 210.394909 42.871589 
L 212.515838 46.010617 
L 214.636768 48.993853 
L 216.757697 51.792168 
L 218.878626 54.387207 
L 220.999556 56.769737 
L 223.120485 58.937857 
L 225.241414 60.895273 
L 227.362343 62.649747 
L 229.483273 64.211774 
L 231.604202 65.593513 
L 233.725131 66.807954 
L 235.846061 67.86829 
L 237.96699 68.787469 
L 240.087919 69.577883 
L 242.208848 70.251175 
L 244.329778 70.818122 
L 246.450707 71.288582 
L 248.571636 71.671482 
L 250.692566 71.974842 
L 252.813495 72.205809 
L 254.934424 72.370709 
L 257.055354 72.475105 
L 259.176283 72.523849 
L 261.297212 72.521147 
L 263.418141 72.470611 
L 265.539071 72.375312 
L 267.66 72.237826 
" clip-path="url(#pe18c13a3b3)" style="fill: none; stroke: #000000; stroke-width: 2; stroke-linecap: square"/>
   </g>
   <g id="line2d_32">
    <path d="M 57.688 55.278795 
L 59.437767 56.167998 
L 64.687067 59.303192 
L 68.1866 61.568912 
L 71.686133 64.142085 
L 73.4359 65.464362 
L 78.6852 69.999305 
L 82.184733 73.344756 
L 87.434033 78.849459 
L 92.683333 84.802637 
L 101.432167 95.462659 
L 115.4303 112.63789 
L 117.180067 115.130632 
L 118.929833 117.908121 
L 120.6796 121.138199 
L 122.429367 125.270619 
L 124.179133 130.157377 
L 125.9289 136.528168 
L 127.678667 144.239924 
L 129.428433 153.119958 
L 131.1782 161.136515 
L 132.927967 164.95436 
L 134.677733 161.774854 
L 136.4275 151.85071 
L 139.927033 126.426715 
L 141.6768 115.396584 
L 143.426567 106.337361 
L 145.176333 98.732915 
L 146.9261 92.352869 
L 148.675867 86.758922 
L 150.425633 81.74246 
L 153.925167 72.839522 
L 159.174467 61.105692 
L 164.423767 50.175573 
L 167.9233 43.207845 
L 169.673067 39.809643 
L 173.1726 33.581549 
L 174.922367 30.702132 
L 178.4219 25.872663 
L 180.171667 24.049436 
L 181.921433 22.499779 
L 183.6712 21.624125 
L 185.420967 21.09776 
L 187.170733 21.412986 
L 188.9205 22.108838 
L 190.670267 23.49645 
L 192.420033 25.505936 
L 194.1698 27.992284 
L 195.919567 30.88903 
L 197.669333 34.246834 
L 202.918633 45.609071 
L 206.418167 53.264587 
L 208.167933 56.829882 
L 211.667467 63.203819 
L 215.167 68.655931 
L 218.666533 72.861067 
L 222.166067 75.961922 
L 225.6656 78.307544 
L 227.415367 79.241388 
L 229.165133 79.786881 
L 230.9149 80.451944 
L 234.414433 81.044415 
L 236.1642 81.228909 
L 237.913967 81.293288 
L 243.163267 80.760928 
L 246.6628 80.213017 
L 253.661867 78.211107 
L 257.1614 77.033179 
L 265.910233 73.495308 
L 271.159533 70.909368 
L 278.1586 67.288992 
L 281.658133 65.20528 
L 289 60.757224 
L 289 60.757224 
" clip-path="url(#pe18c13a3b3)" style="fill: none; stroke-dasharray: 3.7,1.6; stroke-dashoffset: 0; stroke: #000000"/>
   </g>
   <g id="patch_3">
    <path d="M 57.688 174.04 
L 57.688 10.8 
" style="fill: none; stroke: #000000; stroke-width: 0.8; stroke-linejoin: miter; stroke-linecap: square"/>
   </g>
   <g id="patch_4">
    <path d="M 267.66 174.04 
L 267.66 10.8 
" style="fill: none; stroke: #000000; stroke-width: 0.8; stroke-linejoin: miter; stroke-linecap: square"/>
   </g>
   <g id="patch_5">
    <path d="M 57.688 174.04 
L 267.66 174.04 
" style="fill: none; stroke: #000000; stroke-width: 0.8; stroke-linejoin: miter; stroke-linecap: square"/>
   </g>
   <g id="patch_6">
    <path d="M 57.688 10.8 
L 267.66 10.8 
" style="fill: none; stroke: #000000; stroke-width: 0.8; stroke-linejoin: miter; stroke-linecap: square"/>
   </g>
   <g id="legend_1">
    <g id="patch_7">
     <path d="M 143.319375 169.04 
L 260.66 169.04 
Q 262.66 169.04 262.66 167.04 
L 262.66 109.3275 
Q 262.66 107.3275 260.66 107.3275 
L 143.319375 107.3275 
Q 141.319375 107.3275 141.319375 109.3275 
L 141.319375 167.04 
Q 141.319375 169.04 143.319375 169.04 
z
" style="fill: #ffffff; opacity: 0.8; stroke: #cccccc; stroke-linejoin: miter"/>
    </g>
    <g id="line2d_33">
     <path d="M 145.319375 115.425938 
L 155.319375 115.425938 
L 165.319375 115.425938 
" style="fill: none; stroke: #ffa500; stroke-width: 2; stroke-linecap: square"/>
    </g>
    <g id="text_17">
     <!-- SPP -->
     <g transform="translate(173.319375 118.925938) scale(0.1 -0.1)">
      <defs>
       <path id="DejaVuSans-53" d="M 3425 4513 
L 3425 3897 
Q 3066 4069 2747 4153 
Q 2428 4238 2131 4238 
Q 1616 4238 1336 4038 
Q 1056 3838 1056 3469 
Q 1056 3159 1242 3001 
Q 1428 2844 1947 2747 
L 2328 2669 
Q 3034 2534 3370 2195 
Q 3706 1856 3706 1288 
Q 3706 609 3251 259 
Q 2797 -91 1919 -91 
Q 1588 -91 1214 -16 
Q 841 59 441 206 
L 441 856 
Q 825 641 1194 531 
Q 1563 422 1919 422 
Q 2459 422 2753 634 
Q 3047 847 3047 1241 
Q 3047 1584 2836 1778 
Q 2625 1972 2144 2069 
L 1759 2144 
Q 1053 2284 737 2584 
Q 422 2884 422 3419 
Q 422 4038 858 4394 
Q 1294 4750 2059 4750 
Q 2388 4750 2728 4690 
Q 3069 4631 3425 4513 
z
" transform="scale(0.015625)"/>
       <path id="DejaVuSans-50" d="M 1259 4147 
L 1259 2394 
L 2053 2394 
Q 2494 2394 2734 2622 
Q 2975 2850 2975 3272 
Q 2975 3691 2734 3919 
Q 2494 4147 2053 4147 
L 1259 4147 
z
M 628 4666 
L 2053 4666 
Q 2838 4666 3239 4311 
Q 3641 3956 3641 3272 
Q 3641 2581 3239 2228 
Q 2838 1875 2053 1875 
L 1259 1875 
L 1259 0 
L 628 0 
L 628 4666 
z
" transform="scale(0.015625)"/>
      </defs>
      <use xlink:href="#DejaVuSans-53"/>
      <use xlink:href="#DejaVuSans-50" transform="translate(63.476562 0)"/>
      <use xlink:href="#DejaVuSans-50" transform="translate(123.779297 0)"/>
     </g>
    </g>
    <g id="line2d_34">
     <path d="M 145.319375 130.104062 
L 155.319375 130.104062 
L 165.319375 130.104062 
" style="fill: none; stroke: #0000ff; stroke-width: 2; stroke-linecap: square"/>
    </g>
    <g id="text_18">
     <!-- Air -->
     <g transform="translate(173.319375 133.604062) scale(0.1 -0.1)">
      <defs>
       <path id="DejaVuSans-41" d="M 2188 4044 
L 1331 1722 
L 3047 1722 
L 2188 4044 
z
M 1831 4666 
L 2547 4666 
L 4325 0 
L 3669 0 
L 3244 1197 
L 1141 1197 
L 716 0 
L 50 0 
L 1831 4666 
z
" transform="scale(0.015625)"/>
       <path id="DejaVuSans-69" d="M 603 3500 
L 1178 3500 
L 1178 0 
L 603 0 
L 603 3500 
z
M 603 4863 
L 1178 4863 
L 1178 4134 
L 603 4134 
L 603 4863 
z
" transform="scale(0.015625)"/>
      </defs>
      <use xlink:href="#DejaVuSans-41"/>
      <use xlink:href="#DejaVuSans-69" transform="translate(68.408203 0)"/>
      <use xlink:href="#DejaVuSans-72" transform="translate(96.191406 0)"/>
     </g>
    </g>
    <g id="line2d_35">
     <path d="M 145.319375 144.782188 
L 155.319375 144.782188 
L 165.319375 144.782188 
" style="fill: none; stroke: #000000; stroke-width: 2; stroke-linecap: square"/>
    </g>
    <g id="text_19">
     <!-- Total -->
     <g transform="translate(173.319375 148.282188) scale(0.1 -0.1)">
      <defs>
       <path id="DejaVuSans-54" d="M -19 4666 
L 3928 4666 
L 3928 4134 
L 2272 4134 
L 2272 0 
L 1638 0 
L 1638 4134 
L -19 4134 
L -19 4666 
z
" transform="scale(0.015625)"/>
       <path id="DejaVuSans-74" d="M 1172 4494 
L 1172 3500 
L 2356 3500 
L 2356 3053 
L 1172 3053 
L 1172 1153 
Q 1172 725 1289 603 
Q 1406 481 1766 481 
L 2356 481 
L 2356 0 
L 1766 0 
Q 1100 0 847 248 
Q 594 497 594 1153 
L 594 3053 
L 172 3053 
L 172 3500 
L 594 3500 
L 594 4494 
L 1172 4494 
z
" transform="scale(0.015625)"/>
       <path id="DejaVuSans-61" d="M 2194 1759 
Q 1497 1759 1228 1600 
Q 959 1441 959 1056 
Q 959 750 1161 570 
Q 1363 391 1709 391 
Q 2188 391 2477 730 
Q 2766 1069 2766 1631 
L 2766 1759 
L 2194 1759 
z
M 3341 1997 
L 3341 0 
L 2766 0 
L 2766 531 
Q 2569 213 2275 61 
Q 1981 -91 1556 -91 
Q 1019 -91 701 211 
Q 384 513 384 1019 
Q 384 1609 779 1909 
Q 1175 2209 1959 2209 
L 2766 2209 
L 2766 2266 
Q 2766 2663 2505 2880 
Q 2244 3097 1772 3097 
Q 1472 3097 1187 3025 
Q 903 2953 641 2809 
L 641 3341 
Q 956 3463 1253 3523 
Q 1550 3584 1831 3584 
Q 2591 3584 2966 3190 
Q 3341 2797 3341 1997 
z
" transform="scale(0.015625)"/>
       <path id="DejaVuSans-6c" d="M 603 4863 
L 1178 4863 
L 1178 0 
L 603 0 
L 603 4863 
z
" transform="scale(0.015625)"/>
      </defs>
      <use xlink:href="#DejaVuSans-54"/>
      <use xlink:href="#DejaVuSans-6f" transform="translate(44.083984 0)"/>
      <use xlink:href="#DejaVuSans-74" transform="translate(105.265625 0)"/>
      <use xlink:href="#DejaVuSans-61" transform="translate(144.474609 0)"/>
      <use xlink:href="#DejaVuSans-6c" transform="translate(205.753906 0)"/>
     </g>
    </g>
    <g id="line2d_36">
     <path d="M 145.319375 159.460313 
L 155.319375 159.460313 
L 165.319375 159.460313 
" style="fill: none; stroke-dasharray: 3.7,1.6; stroke-dashoffset: 0; stroke: #000000"/>
    </g>
    <g id="text_20">
     <!-- Total (Numerical) -->
     <g transform="translate(173.319375 162.960313) scale(0.1 -0.1)">
      <defs>
       <path id="DejaVuSans-4e" d="M 628 4666 
L 1478 4666 
L 3547 763 
L 3547 4666 
L 4159 4666 
L 4159 0 
L 3309 0 
L 1241 3903 
L 1241 0 
L 628 0 
L 628 4666 
z
" transform="scale(0.015625)"/>
       <path id="DejaVuSans-75" d="M 544 1381 
L 544 3500 
L 1119 3500 
L 1119 1403 
Q 1119 906 1312 657 
Q 1506 409 1894 409 
Q 2359 409 2629 706 
Q 2900 1003 2900 1516 
L 2900 3500 
L 3475 3500 
L 3475 0 
L 2900 0 
L 2900 538 
Q 2691 219 2414 64 
Q 2138 -91 1772 -91 
Q 1169 -91 856 284 
Q 544 659 544 1381 
z
M 1991 3584 
L 1991 3584 
z
" transform="scale(0.015625)"/>
       <path id="DejaVuSans-63" d="M 3122 3366 
L 3122 2828 
Q 2878 2963 2633 3030 
Q 2388 3097 2138 3097 
Q 1578 3097 1268 2742 
Q 959 2388 959 1747 
Q 959 1106 1268 751 
Q 1578 397 2138 397 
Q 2388 397 2633 464 
Q 2878 531 3122 666 
L 3122 134 
Q 2881 22 2623 -34 
Q 2366 -91 2075 -91 
Q 1284 -91 818 406 
Q 353 903 353 1747 
Q 353 2603 823 3093 
Q 1294 3584 2113 3584 
Q 2378 3584 2631 3529 
Q 2884 3475 3122 3366 
z
" transform="scale(0.015625)"/>
      </defs>
      <use xlink:href="#DejaVuSans-54"/>
      <use xlink:href="#DejaVuSans-6f" transform="translate(44.083984 0)"/>
      <use xlink:href="#DejaVuSans-74" transform="translate(105.265625 0)"/>
      <use xlink:href="#DejaVuSans-61" transform="translate(144.474609 0)"/>
      <use xlink:href="#DejaVuSans-6c" transform="translate(205.753906 0)"/>
      <use xlink:href="#DejaVuSans-20" transform="translate(233.537109 0)"/>
      <use xlink:href="#DejaVuSans-28" transform="translate(265.324219 0)"/>
      <use xlink:href="#DejaVuSans-4e" transform="translate(304.337891 0)"/>
      <use xlink:href="#DejaVuSans-75" transform="translate(379.142578 0)"/>
      <use xlink:href="#DejaVuSans-6d" transform="translate(442.521484 0)"/>
      <use xlink:href="#DejaVuSans-65" transform="translate(539.933594 0)"/>
      <use xlink:href="#DejaVuSans-72" transform="translate(601.457031 0)"/>
      <use xlink:href="#DejaVuSans-69" transform="translate(642.570312 0)"/>
      <use xlink:href="#DejaVuSans-63" transform="translate(670.353516 0)"/>
      <use xlink:href="#DejaVuSans-61" transform="translate(725.333984 0)"/>
      <use xlink:href="#DejaVuSans-6c" transform="translate(786.613281 0)"/>
      <use xlink:href="#DejaVuSans-29" transform="translate(814.396484 0)"/>
     </g>
    </g>
   </g>
  </g>
 </g>
 <defs>
  <clipPath id="pe18c13a3b3">
   <rect x="57.688" y="10.8" width="209.972" height="163.24"/>
  </clipPath>
 </defs>
</svg>
