<?xml version="1.0" encoding="utf-8" standalone="no"?>
<!DOCTYPE svg PUBLIC "-//W3C//DTD SVG 1.1//EN"
  "http://www.w3.org/Graphics/SVG/1.1/DTD/svg11.dtd">
<svg xmlns:xlink="http://www.w3.org/1999/xlink" width="288pt" height="216pt" viewBox="0 0 288 216" xmlns="http://www.w3.org/2000/svg" version="1.1">
 <metadata>
  <rdf:RDF xmlns:dc="http://purl.org/dc/elements/1.1/" xmlns:cc="http://creativecommons.org/ns#" xmlns:rdf="http://www.w3.org/1999/02/22-rdf-syntax-ns#">
   <cc:Work>
    <dc:type rdf:resource="http://purl.org/dc/dcmitype/StillImage"/>
    <dc:date>2025-11-28T16:23:34.775609</dc:date>
    <dc:format>image/svg+xml</dc:format>
    <dc:creator>
     <cc:Agent>
      <dc:title>Matplotlib v3.10.6, https://matplotlib.org/</dc:title>
     </cc:Agent>
    </dc:creator>
   </cc:Work>
  </rdf:RDF>
 </metadata>
 <defs>
  <style type="text/css">*{stroke-linejoin: round; stroke-linecap: butt}</style>
 </defs>
 <g id="figure_1">
  <g id="patch_1">
   <path d="M 0 216 
L 288 216 
L 288 0 
L 0 0 
z
" style="fill: #ffffff"/>
  </g>
  <g id="axes_1">
   <g id="patch_2">
    <path d="M 58.12 174.04 
L 267.66 174.04 
L 267.66 10.8 
L 58.12 10.8 
z
" style="fill: #ffffff"/>
   </g>
   <g id="matplotlib.axis_1">
    <g id="xtick_1">
     <g id="line2d_1">
      <path d="M 58.12 174.04 
L 58.12 10.8 
" clip-path="url(#p0657dd6702)" style="fill: none; stroke: #b0b0b0; stroke-width: 0.8; stroke-linecap: square"/>
     </g>
     <g id="line2d_2">
      <defs>
       <path id="ma4c1f86226" d="M 0 0 
L 0 3.5 
" style="stroke: #000000; stroke-width: 0.8"/>
      </defs>
      <g>
       <use xlink:href="#ma4c1f86226" x="58.12" y="174.04" style="stroke: #000000; stroke-width: 0.8"/>
      </g>
     </g>
     <g id="text_1">
      <!-- 100 -->
      <g transform="translate(48.57625 188.638438) scale(0.1 -0.1)">
       <defs>
        <path id="DejaVuSans-31" d="M 794 531 
L 1825 531 
L 1825 4091 
L 703 3866 
L 703 4441 
L 1819 4666 
L 2450 4666 
L 2450 531 
L 3481 531 
L 3481 0 
L 794 0 
L 794 531 
z
" transform="scale(0.015625)"/>
        <path id="DejaVuSans-30" d="M 2034 4250 
Q 1547 4250 1301 3770 
Q 1056 3291 1056 2328 
Q 1056 1369 1301 889 
Q 1547 409 2034 409 
Q 2525 409 2770 889 
Q 3016 1369 3016 2328 
Q 3016 3291 2770 3770 
Q 2525 4250 2034 4250 
z
M 2034 4750 
Q 2819 4750 3233 4129 
Q 3647 3509 3647 2328 
Q 3647 1150 3233 529 
Q 2819 -91 2034 -91 
Q 1250 -91 836 529 
Q 422 1150 422 2328 
Q 422 3509 836 4129 
Q 1250 4750 2034 4750 
z
" transform="scale(0.015625)"/>
       </defs>
       <use xlink:href="#DejaVuSans-31"/>
       <use xlink:href="#DejaVuSans-30" transform="translate(63.623047 0)"/>
       <use xlink:href="#DejaVuSans-30" transform="translate(127.246094 0)"/>
      </g>
     </g>
    </g>
    <g id="xtick_2">
     <g id="line2d_3">
      <path d="M 93.043333 174.04 
L 93.043333 10.8 
" clip-path="url(#p0657dd6702)" style="fill: none; stroke: #b0b0b0; stroke-width: 0.8; stroke-linecap: square"/>
     </g>
     <g id="line2d_4">
      <g>
       <use xlink:href="#ma4c1f86226" x="93.043333" y="174.04" style="stroke: #000000; stroke-width: 0.8"/>
      </g>
     </g>
     <g id="text_2">
      <!-- 110 -->
      <g transform="translate(83.499583 188.638438) scale(0.1 -0.1)">
       <use xlink:href="#DejaVuSans-31"/>
       <use xlink:href="#DejaVuSans-31" transform="translate(63.623047 0)"/>
       <use xlink:href="#DejaVuSans-30" transform="translate(127.246094 0)"/>
      </g>
     </g>
    </g>
    <g id="xtick_3">
     <g id="line2d_5">
      <path d="M 127.966667 174.04 
L 127.966667 10.8 
" clip-path="url(#p0657dd6702)" style="fill: none; stroke: #b0b0b0; stroke-width: 0.8; stroke-linecap: square"/>
     </g>
     <g id="line2d_6">
      <g>
       <use xlink:href="#ma4c1f86226" x="127.966667" y="174.04" style="stroke: #000000; stroke-width: 0.8"/>
      </g>
     </g>
     <g id="text_3">
      <!-- 120 -->
      <g transform="translate(118.422917 188.638438) scale(0.1 -0.1)">
       <defs>
        <path id="DejaVuSans-32" d="M 1228 531 
L 3431 531 
L 3431 0 
L 469 0 
L 469 531 
Q 828 903 1448 1529 
Q 2069 2156 2228 2338 
Q 2531 2678 2651 2914 
Q 2772 3150 2772 3378 
Q 2772 3750 2511 3984 
Q 2250 4219 1831 4219 
Q 1534 4219 1204 4116 
Q 875 4013 500 3803 
L 500 4441 
Q 881 4594 1212 4672 
Q 1544 4750 1819 4750 
Q 2544 4750 2975 4387 
Q 3406 4025 3406 3419 
Q 3406 3131 3298 2873 
Q 3191 2616 2906 2266 
Q 2828 2175 2409 1742 
Q 1991 1309 1228 531 
z
" transform="scale(0.015625)"/>
       </defs>
       <use xlink:href="#DejaVuSans-31"/>
       <use xlink:href="#DejaVuSans-32" transform="translate(63.623047 0)"/>
       <use xlink:href="#DejaVuSans-30" transform="translate(127.246094 0)"/>
      </g>
     </g>
    </g>
    <g id="xtick_4">
     <g id="line2d_7">
      <path d="M 162.89 174.04 
L 162.89 10.8 
" clip-path="url(#p0657dd6702)" style="fill: none; stroke: #b0b0b0; stroke-width: 0.8; stroke-linecap: square"/>
     </g>
     <g id="line2d_8">
      <g>
       <use xlink:href="#ma4c1f86226" x="162.89" y="174.04" style="stroke: #000000; stroke-width: 0.8"/>
      </g>
     </g>
     <g id="text_4">
      <!-- 130 -->
      <g transform="translate(153.34625 188.638438) scale(0.1 -0.1)">
       <defs>
        <path id="DejaVuSans-33" d="M 2597 2516 
Q 3050 2419 3304 2112 
Q 3559 1806 3559 1356 
Q 3559 666 3084 287 
Q 2609 -91 1734 -91 
Q 1441 -91 1130 -33 
Q 819 25 488 141 
L 488 750 
Q 750 597 1062 519 
Q 1375 441 1716 441 
Q 2309 441 2620 675 
Q 2931 909 2931 1356 
Q 2931 1769 2642 2001 
Q 2353 2234 1838 2234 
L 1294 2234 
L 1294 2753 
L 1863 2753 
Q 2328 2753 2575 2939 
Q 2822 3125 2822 3475 
Q 2822 3834 2567 4026 
Q 2313 4219 1838 4219 
Q 1578 4219 1281 4162 
Q 984 4106 628 3988 
L 628 4550 
Q 988 4650 1302 4700 
Q 1616 4750 1894 4750 
Q 2613 4750 3031 4423 
Q 3450 4097 3450 3541 
Q 3450 3153 3228 2886 
Q 3006 2619 2597 2516 
z
" transform="scale(0.015625)"/>
       </defs>
       <use xlink:href="#DejaVuSans-31"/>
       <use xlink:href="#DejaVuSans-33" transform="translate(63.623047 0)"/>
       <use xlink:href="#DejaVuSans-30" transform="translate(127.246094 0)"/>
      </g>
     </g>
    </g>
    <g id="xtick_5">
     <g id="line2d_9">
      <path d="M 197.813333 174.04 
L 197.813333 10.8 
" clip-path="url(#p0657dd6702)" style="fill: none; stroke: #b0b0b0; stroke-width: 0.8; stroke-linecap: square"/>
     </g>
     <g id="line2d_10">
      <g>
       <use xlink:href="#ma4c1f86226" x="197.813333" y="174.04" style="stroke: #000000; stroke-width: 0.8"/>
      </g>
     </g>
     <g id="text_5">
      <!-- 140 -->
      <g transform="translate(188.269583 188.638438) scale(0.1 -0.1)">
       <defs>
        <path id="DejaVuSans-34" d="M 2419 4116 
L 825 1625 
L 2419 1625 
L 2419 4116 
z
M 2253 4666 
L 3047 4666 
L 3047 1625 
L 3713 1625 
L 3713 1100 
L 3047 1100 
L 3047 0 
L 2419 0 
L 2419 1100 
L 313 1100 
L 313 1709 
L 2253 4666 
z
" transform="scale(0.015625)"/>
       </defs>
       <use xlink:href="#DejaVuSans-31"/>
       <use xlink:href="#DejaVuSans-34" transform="translate(63.623047 0)"/>
       <use xlink:href="#DejaVuSans-30" transform="translate(127.246094 0)"/>
      </g>
     </g>
    </g>
    <g id="xtick_6">
     <g id="line2d_11">
      <path d="M 232.736667 174.04 
L 232.736667 10.8 
" clip-path="url(#p0657dd6702)" style="fill: none; stroke: #b0b0b0; stroke-width: 0.8; stroke-linecap: square"/>
     </g>
     <g id="line2d_12">
      <g>
       <use xlink:href="#ma4c1f86226" x="232.736667" y="174.04" style="stroke: #000000; stroke-width: 0.8"/>
      </g>
     </g>
     <g id="text_6">
      <!-- 150 -->
      <g transform="translate(223.192917 188.638438) scale(0.1 -0.1)">
       <defs>
        <path id="DejaVuSans-35" d="M 691 4666 
L 3169 4666 
L 3169 4134 
L 1269 4134 
L 1269 2991 
Q 1406 3038 1543 3061 
Q 1681 3084 1819 3084 
Q 2600 3084 3056 2656 
Q 3513 2228 3513 1497 
Q 3513 744 3044 326 
Q 2575 -91 1722 -91 
Q 1428 -91 1123 -41 
Q 819 9 494 109 
L 494 744 
Q 775 591 1075 516 
Q 1375 441 1709 441 
Q 2250 441 2565 725 
Q 2881 1009 2881 1497 
Q 2881 1984 2565 2268 
Q 2250 2553 1709 2553 
Q 1456 2553 1204 2497 
Q 953 2441 691 2322 
L 691 4666 
z
" transform="scale(0.015625)"/>
       </defs>
       <use xlink:href="#DejaVuSans-31"/>
       <use xlink:href="#DejaVuSans-35" transform="translate(63.623047 0)"/>
       <use xlink:href="#DejaVuSans-30" transform="translate(127.246094 0)"/>
      </g>
     </g>
    </g>
    <g id="xtick_7">
     <g id="line2d_13">
      <path d="M 267.66 174.04 
L 267.66 10.8 
" clip-path="url(#p0657dd6702)" style="fill: none; stroke: #b0b0b0; stroke-width: 0.8; stroke-linecap: square"/>
     </g>
     <g id="line2d_14">
      <g>
       <use xlink:href="#ma4c1f86226" x="267.66" y="174.04" style="stroke: #000000; stroke-width: 0.8"/>
      </g>
     </g>
     <g id="text_7">
      <!-- 160 -->
      <g transform="translate(258.11625 188.638438) scale(0.1 -0.1)">
       <defs>
        <path id="DejaVuSans-36" d="M 2113 2584 
Q 1688 2584 1439 2293 
Q 1191 2003 1191 1497 
Q 1191 994 1439 701 
Q 1688 409 2113 409 
Q 2538 409 2786 701 
Q 3034 994 3034 1497 
Q 3034 2003 2786 2293 
Q 2538 2584 2113 2584 
z
M 3366 4563 
L 3366 3988 
Q 3128 4100 2886 4159 
Q 2644 4219 2406 4219 
Q 1781 4219 1451 3797 
Q 1122 3375 1075 2522 
Q 1259 2794 1537 2939 
Q 1816 3084 2150 3084 
Q 2853 3084 3261 2657 
Q 3669 2231 3669 1497 
Q 3669 778 3244 343 
Q 2819 -91 2113 -91 
Q 1303 -91 875 529 
Q 447 1150 447 2328 
Q 447 3434 972 4092 
Q 1497 4750 2381 4750 
Q 2619 4750 2861 4703 
Q 3103 4656 3366 4563 
z
" transform="scale(0.015625)"/>
       </defs>
       <use xlink:href="#DejaVuSans-31"/>
       <use xlink:href="#DejaVuSans-36" transform="translate(63.623047 0)"/>
       <use xlink:href="#DejaVuSans-30" transform="translate(127.246094 0)"/>
      </g>
     </g>
    </g>
    <g id="text_8">
     <!-- $R$ (nm) -->
     <g transform="translate(145.84 202.316563) scale(0.1 -0.1)">
      <defs>
       <path id="DejaVuSans-Oblique-52" d="M 1613 4147 
L 1294 2491 
L 2106 2491 
Q 2584 2491 2879 2755 
Q 3175 3019 3175 3444 
Q 3175 3784 2976 3965 
Q 2778 4147 2406 4147 
L 1613 4147 
z
M 2772 2241 
Q 2972 2194 3105 2009 
Q 3238 1825 3413 1275 
L 3809 0 
L 3144 0 
L 2778 1197 
Q 2638 1659 2453 1815 
Q 2269 1972 1888 1972 
L 1191 1972 
L 806 0 
L 172 0 
L 1081 4666 
L 2503 4666 
Q 3150 4666 3495 4373 
Q 3841 4081 3841 3531 
Q 3841 3044 3547 2687 
Q 3253 2331 2772 2241 
z
" transform="scale(0.015625)"/>
       <path id="DejaVuSans-20" transform="scale(0.015625)"/>
       <path id="DejaVuSans-28" d="M 1984 4856 
Q 1566 4138 1362 3434 
Q 1159 2731 1159 2009 
Q 1159 1288 1364 580 
Q 1569 -128 1984 -844 
L 1484 -844 
Q 1016 -109 783 600 
Q 550 1309 550 2009 
Q 550 2706 781 3412 
Q 1013 4119 1484 4856 
L 1984 4856 
z
" transform="scale(0.015625)"/>
       <path id="DejaVuSans-6e" d="M 3513 2113 
L 3513 0 
L 2938 0 
L 2938 2094 
Q 2938 2591 2744 2837 
Q 2550 3084 2163 3084 
Q 1697 3084 1428 2787 
Q 1159 2491 1159 1978 
L 1159 0 
L 581 0 
L 581 3500 
L 1159 3500 
L 1159 2956 
Q 1366 3272 1645 3428 
Q 1925 3584 2291 3584 
Q 2894 3584 3203 3211 
Q 3513 2838 3513 2113 
z
" transform="scale(0.015625)"/>
       <path id="DejaVuSans-6d" d="M 3328 2828 
Q 3544 3216 3844 3400 
Q 4144 3584 4550 3584 
Q 5097 3584 5394 3201 
Q 5691 2819 5691 2113 
L 5691 0 
L 5113 0 
L 5113 2094 
Q 5113 2597 4934 2840 
Q 4756 3084 4391 3084 
Q 3944 3084 3684 2787 
Q 3425 2491 3425 1978 
L 3425 0 
L 2847 0 
L 2847 2094 
Q 2847 2600 2669 2842 
Q 2491 3084 2119 3084 
Q 1678 3084 1418 2786 
Q 1159 2488 1159 1978 
L 1159 0 
L 581 0 
L 581 3500 
L 1159 3500 
L 1159 2956 
Q 1356 3278 1631 3431 
Q 1906 3584 2284 3584 
Q 2666 3584 2933 3390 
Q 3200 3197 3328 2828 
z
" transform="scale(0.015625)"/>
       <path id="DejaVuSans-29" d="M 513 4856 
L 1013 4856 
Q 1481 4119 1714 3412 
Q 1947 2706 1947 2009 
Q 1947 1309 1714 600 
Q 1481 -109 1013 -844 
L 513 -844 
Q 928 -128 1133 580 
Q 1338 1288 1338 2009 
Q 1338 2731 1133 3434 
Q 928 4138 513 4856 
z
" transform="scale(0.015625)"/>
      </defs>
      <use xlink:href="#DejaVuSans-Oblique-52" transform="translate(0 0.125)"/>
      <use xlink:href="#DejaVuSans-20" transform="translate(69.482422 0.125)"/>
      <use xlink:href="#DejaVuSans-28" transform="translate(101.269531 0.125)"/>
      <use xlink:href="#DejaVuSans-6e" transform="translate(140.283203 0.125)"/>
      <use xlink:href="#DejaVuSans-6d" transform="translate(203.662109 0.125)"/>
      <use xlink:href="#DejaVuSans-29" transform="translate(301.074219 0.125)"/>
     </g>
    </g>
   </g>
   <g id="matplotlib.axis_2">
    <g id="ytick_1">
     <g id="line2d_15">
      <path d="M 58.12 161.552799 
L 267.66 161.552799 
" clip-path="url(#p0657dd6702)" style="fill: none; stroke: #b0b0b0; stroke-width: 0.8; stroke-linecap: square"/>
     </g>
     <g id="line2d_16">
      <defs>
       <path id="m9ba41d0d09" d="M 0 0 
L -3.5 0 
" style="stroke: #000000; stroke-width: 0.8"/>
      </defs>
      <g>
       <use xlink:href="#m9ba41d0d09" x="58.12" y="161.552799" style="stroke: #000000; stroke-width: 0.8"/>
      </g>
     </g>
     <g id="text_9">
      <!-- −0.2 -->
      <g transform="translate(26.837188 165.352018) scale(0.1 -0.1)">
       <defs>
        <path id="DejaVuSans-2212" d="M 678 2272 
L 4684 2272 
L 4684 1741 
L 678 1741 
L 678 2272 
z
" transform="scale(0.015625)"/>
        <path id="DejaVuSans-2e" d="M 684 794 
L 1344 794 
L 1344 0 
L 684 0 
L 684 794 
z
" transform="scale(0.015625)"/>
       </defs>
       <use xlink:href="#DejaVuSans-2212"/>
       <use xlink:href="#DejaVuSans-30" transform="translate(83.789062 0)"/>
       <use xlink:href="#DejaVuSans-2e" transform="translate(147.412109 0)"/>
       <use xlink:href="#DejaVuSans-32" transform="translate(179.199219 0)"/>
      </g>
     </g>
    </g>
    <g id="ytick_2">
     <g id="line2d_17">
      <path d="M 58.12 126.756716 
L 267.66 126.756716 
" clip-path="url(#p0657dd6702)" style="fill: none; stroke: #b0b0b0; stroke-width: 0.8; stroke-linecap: square"/>
     </g>
     <g id="line2d_18">
      <g>
       <use xlink:href="#m9ba41d0d09" x="58.12" y="126.756716" style="stroke: #000000; stroke-width: 0.8"/>
      </g>
     </g>
     <g id="text_10">
      <!-- −0.1 -->
      <g transform="translate(26.837188 130.555935) scale(0.1 -0.1)">
       <use xlink:href="#DejaVuSans-2212"/>
       <use xlink:href="#DejaVuSans-30" transform="translate(83.789062 0)"/>
       <use xlink:href="#DejaVuSans-2e" transform="translate(147.412109 0)"/>
       <use xlink:href="#DejaVuSans-31" transform="translate(179.199219 0)"/>
      </g>
     </g>
    </g>
    <g id="ytick_3">
     <g id="line2d_19">
      <path d="M 58.12 91.960632 
L 267.66 91.960632 
" clip-path="url(#p0657dd6702)" style="fill: none; stroke: #b0b0b0; stroke-width: 0.8; stroke-linecap: square"/>
     </g>
     <g id="line2d_20">
      <g>
       <use xlink:href="#m9ba41d0d09" x="58.12" y="91.960632" style="stroke: #000000; stroke-width: 0.8"/>
      </g>
     </g>
     <g id="text_11">
      <!-- 0.0 -->
      <g transform="translate(35.216875 95.759851) scale(0.1 -0.1)">
       <use xlink:href="#DejaVuSans-30"/>
       <use xlink:href="#DejaVuSans-2e" transform="translate(63.623047 0)"/>
       <use xlink:href="#DejaVuSans-30" transform="translate(95.410156 0)"/>
      </g>
     </g>
    </g>
    <g id="ytick_4">
     <g id="line2d_21">
      <path d="M 58.12 57.164549 
L 267.66 57.164549 
" clip-path="url(#p0657dd6702)" style="fill: none; stroke: #b0b0b0; stroke-width: 0.8; stroke-linecap: square"/>
     </g>
     <g id="line2d_22">
      <g>
       <use xlink:href="#m9ba41d0d09" x="58.12" y="57.164549" style="stroke: #000000; stroke-width: 0.8"/>
      </g>
     </g>
     <g id="text_12">
      <!-- 0.1 -->
      <g transform="translate(35.216875 60.963768) scale(0.1 -0.1)">
       <use xlink:href="#DejaVuSans-30"/>
       <use xlink:href="#DejaVuSans-2e" transform="translate(63.623047 0)"/>
       <use xlink:href="#DejaVuSans-31" transform="translate(95.410156 0)"/>
      </g>
     </g>
    </g>
    <g id="ytick_5">
     <g id="line2d_23">
      <path d="M 58.12 22.368466 
L 267.66 22.368466 
" clip-path="url(#p0657dd6702)" style="fill: none; stroke: #b0b0b0; stroke-width: 0.8; stroke-linecap: square"/>
     </g>
     <g id="line2d_24">
      <g>
       <use xlink:href="#m9ba41d0d09" x="58.12" y="22.368466" style="stroke: #000000; stroke-width: 0.8"/>
      </g>
     </g>
     <g id="text_13">
      <!-- 0.2 -->
      <g transform="translate(35.216875 26.167684) scale(0.1 -0.1)">
       <use xlink:href="#DejaVuSans-30"/>
       <use xlink:href="#DejaVuSans-2e" transform="translate(63.623047 0)"/>
       <use xlink:href="#DejaVuSans-32" transform="translate(95.410156 0)"/>
      </g>
     </g>
    </g>
    <g id="text_14">
     <!-- $F_y/F_0^{max}$ (1) -->
     <g transform="translate(19.737188 118.87) rotate(-90) scale(0.1 -0.1)">
      <defs>
       <path id="DejaVuSans-Oblique-46" d="M 1081 4666 
L 3756 4666 
L 3653 4134 
L 1606 4134 
L 1338 2759 
L 3188 2759 
L 3084 2228 
L 1234 2228 
L 800 0 
L 172 0 
L 1081 4666 
z
" transform="scale(0.015625)"/>
       <path id="DejaVuSans-Oblique-79" d="M 1588 -325 
Q 1188 -997 936 -1164 
Q 684 -1331 294 -1331 
L -159 -1331 
L -63 -850 
L 269 -850 
Q 509 -850 678 -719 
Q 847 -588 1056 -206 
L 1234 128 
L 459 3500 
L 1069 3500 
L 1650 819 
L 3256 3500 
L 3859 3500 
L 1588 -325 
z
" transform="scale(0.015625)"/>
       <path id="DejaVuSans-2f" d="M 1625 4666 
L 2156 4666 
L 531 -594 
L 0 -594 
L 1625 4666 
z
" transform="scale(0.015625)"/>
       <path id="DejaVuSans-Oblique-6d" d="M 5747 2113 
L 5338 0 
L 4763 0 
L 5166 2094 
Q 5191 2228 5203 2325 
Q 5216 2422 5216 2491 
Q 5216 2772 5059 2928 
Q 4903 3084 4622 3084 
Q 4203 3084 3875 2770 
Q 3547 2456 3450 1953 
L 3066 0 
L 2491 0 
L 2900 2094 
Q 2925 2209 2937 2307 
Q 2950 2406 2950 2484 
Q 2950 2769 2794 2926 
Q 2638 3084 2363 3084 
Q 1938 3084 1609 2770 
Q 1281 2456 1184 1953 
L 800 0 
L 225 0 
L 909 3500 
L 1484 3500 
L 1375 2956 
Q 1609 3263 1923 3423 
Q 2238 3584 2597 3584 
Q 2978 3584 3223 3384 
Q 3469 3184 3519 2828 
Q 3781 3197 4126 3390 
Q 4472 3584 4856 3584 
Q 5306 3584 5551 3325 
Q 5797 3066 5797 2591 
Q 5797 2488 5784 2364 
Q 5772 2241 5747 2113 
z
" transform="scale(0.015625)"/>
       <path id="DejaVuSans-Oblique-61" d="M 3438 1997 
L 3047 0 
L 2472 0 
L 2578 531 
Q 2325 219 2001 64 
Q 1678 -91 1281 -91 
Q 834 -91 548 182 
Q 263 456 263 884 
Q 263 1497 752 1853 
Q 1241 2209 2100 2209 
L 2900 2209 
L 2931 2363 
Q 2938 2388 2941 2417 
Q 2944 2447 2944 2509 
Q 2944 2788 2717 2942 
Q 2491 3097 2081 3097 
Q 1800 3097 1504 3025 
Q 1209 2953 897 2809 
L 997 3341 
Q 1322 3463 1633 3523 
Q 1944 3584 2234 3584 
Q 2853 3584 3176 3315 
Q 3500 3047 3500 2534 
Q 3500 2431 3484 2292 
Q 3469 2153 3438 1997 
z
M 2816 1759 
L 2241 1759 
Q 1534 1759 1195 1570 
Q 856 1381 856 984 
Q 856 709 1029 553 
Q 1203 397 1509 397 
Q 1978 397 2328 733 
Q 2678 1069 2791 1631 
L 2816 1759 
z
" transform="scale(0.015625)"/>
       <path id="DejaVuSans-Oblique-78" d="M 3841 3500 
L 2234 1784 
L 3219 0 
L 2559 0 
L 1819 1388 
L 531 0 
L -166 0 
L 1556 1844 
L 641 3500 
L 1300 3500 
L 1972 2234 
L 3144 3500 
L 3841 3500 
z
" transform="scale(0.015625)"/>
      </defs>
      <use xlink:href="#DejaVuSans-Oblique-46" transform="translate(0 0.51875)"/>
      <use xlink:href="#DejaVuSans-Oblique-79" transform="translate(57.519531 -15.8875) scale(0.7)"/>
      <use xlink:href="#DejaVuSans-2f" transform="translate(101.679688 0.51875)"/>
      <use xlink:href="#DejaVuSans-Oblique-46" transform="translate(135.371094 0.51875)"/>
      <use xlink:href="#DejaVuSans-Oblique-6d" transform="translate(199.907396 38.8) scale(0.7)"/>
      <use xlink:href="#DejaVuSans-Oblique-61" transform="translate(268.095872 38.8) scale(0.7)"/>
      <use xlink:href="#DejaVuSans-Oblique-78" transform="translate(310.99138 38.8) scale(0.7)"/>
      <use xlink:href="#DejaVuSans-30" transform="translate(192.890625 -26.825) scale(0.7)"/>
      <use xlink:href="#DejaVuSans-20" transform="translate(355.151536 0.51875)"/>
      <use xlink:href="#DejaVuSans-28" transform="translate(386.938646 0.51875)"/>
      <use xlink:href="#DejaVuSans-31" transform="translate(425.952318 0.51875)"/>
      <use xlink:href="#DejaVuSans-29" transform="translate(489.575365 0.51875)"/>
     </g>
    </g>
   </g>
   <g id="line2d_25">
    <path d="M 58.12 88.933005 
L 60.236566 88.857165 
L 62.353131 88.791589 
L 64.469697 88.738578 
L 66.586263 88.700734 
L 68.702828 88.680982 
L 70.819394 88.682599 
L 72.93596 88.709232 
L 75.052525 88.764915 
L 77.169091 88.854083 
L 79.285657 88.981571 
L 81.402222 89.1526 
L 83.518788 89.37275 
L 85.635354 89.647912 
L 87.751919 89.984204 
L 89.868485 90.38787 
L 91.985051 90.865129 
L 94.101616 91.42199 
L 96.218182 92.064025 
L 98.334747 92.796097 
L 100.451313 93.622045 
L 102.567879 94.544336 
L 104.684444 95.563703 
L 106.80101 96.678767 
L 108.917576 97.885668 
L 111.034141 99.177727 
L 113.150707 100.545132 
L 115.267273 101.97467 
L 117.383838 103.449467 
L 119.500404 104.948738 
L 121.61697 106.447587 
L 123.733535 107.917262 
L 125.850101 109.32742 
L 127.966667 110.655384 
L 130.083232 111.913195 
L 132.199798 113.194225 
L 134.316364 114.659664 
L 136.432929 116.344781 
L 138.549495 118.052415 
L 140.666061 119.581749 
L 142.782626 120.868657 
L 144.899192 121.925382 
L 147.015758 122.777723 
L 149.132323 123.445183 
L 151.248889 123.939409 
L 153.365455 124.266338 
L 155.48202 124.428132 
L 157.598586 124.424411 
L 159.715152 124.252974 
L 161.831717 123.910272 
L 163.948283 123.39178 
L 166.064848 122.6924 
L 168.181414 121.806965 
L 170.29798 120.730882 
L 172.414545 119.460964 
L 174.531111 117.996431 
L 176.647677 116.340069 
L 178.764242 114.499455 
L 180.880808 112.488132 
L 182.997374 110.326569 
L 185.113939 108.042674 
L 187.230505 105.671684 
L 189.347071 103.255245 
L 191.463636 100.839642 
L 193.580202 98.473281 
L 195.696768 96.203664 
L 197.813333 94.074277 
L 199.929899 92.121789 
L 202.046465 90.373989 
L 204.16303 88.848671 
L 206.279596 87.553551 
L 208.396162 86.48708 
L 210.512727 85.639923 
L 212.629293 84.996793 
L 214.745859 84.538369 
L 216.862424 84.243075 
L 218.97899 84.088586 
L 221.095556 84.052993 
L 223.212121 84.115632 
L 225.328687 84.257607 
L 227.445253 84.462062 
L 229.561818 84.714268 
L 231.678384 85.001582 
L 233.794949 85.313307 
L 235.911515 85.640521 
L 238.028081 85.975868 
L 240.144646 86.31336 
L 242.261212 86.648175 
L 244.377778 86.976483 
L 246.494343 87.29528 
L 248.610909 87.602251 
L 250.727475 87.895643 
L 252.84404 88.17417 
L 254.960606 88.436918 
L 257.077172 88.683281 
L 259.193737 88.912897 
L 261.310303 89.125601 
L 263.426869 89.32139 
L 265.543434 89.500388 
L 267.66 89.662825 
" clip-path="url(#p0657dd6702)" style="fill: none; stroke: #ffa500; stroke-width: 2; stroke-linecap: square"/>
   </g>
   <g id="line2d_26">
    <path d="M 58.12 89.745942 
L 60.236566 89.761435 
L 62.353131 89.798434 
L 64.469697 89.860734 
L 66.586263 89.952644 
L 68.702828 90.079045 
L 70.819394 90.24545 
L 72.93596 90.458071 
L 75.052525 90.723887 
L 77.169091 91.050708 
L 79.285657 91.447247 
L 81.402222 91.923187 
L 83.518788 92.489235 
L 85.635354 93.157187 
L 87.751919 93.939964 
L 89.868485 94.851658 
L 91.985051 95.907552 
L 94.101616 97.124145 
L 96.218182 98.519172 
L 98.334747 100.111632 
L 100.451313 101.921834 
L 102.567879 103.971488 
L 104.684444 106.283841 
L 106.80101 108.883838 
L 108.917576 111.798241 
L 111.034141 115.055454 
L 113.150707 118.68445 
L 115.267273 122.711354 
L 117.383838 127.150287 
L 119.500404 131.98071 
L 121.61697 137.093402 
L 123.733535 142.165439 
L 125.850101 146.385216 
L 127.966667 147.925248 
L 130.083232 143.3209 
L 132.199798 128.284517 
L 134.316364 103.035296 
L 136.432929 77.311342 
L 138.549495 61.363603 
L 140.666061 55.955578 
L 142.782626 56.775068 
L 144.899192 60.18702 
L 147.015758 64.268378 
L 149.132323 68.180109 
L 151.248889 71.603032 
L 153.365455 74.441551 
L 155.48202 76.689454 
L 157.598586 78.372381 
L 159.715152 79.524079 
L 161.831717 80.177239 
L 163.948283 80.360645 
L 166.064848 80.099062 
L 168.181414 79.414377 
L 170.29798 78.327309 
L 172.414545 76.859438 
L 174.531111 75.035366 
L 176.647677 72.884904 
L 178.764242 70.445079 
L 180.880808 67.761753 
L 182.997374 64.890563 
L 185.113939 61.89689 
L 187.230505 58.854603 
L 189.347071 55.84347 
L 191.463636 52.945331 
L 193.580202 50.239383 
L 195.696768 47.797155 
L 197.813333 45.677882 
L 199.929899 43.924964 
L 202.046465 42.564003 
L 204.16303 41.602623 
L 206.279596 41.031928 
L 208.396162 40.829229 
L 210.512727 40.961493 
L 212.629293 41.388987 
L 214.745859 42.068687 
L 216.862424 42.957138 
L 218.97899 44.01265 
L 221.095556 45.196805 
L 223.212121 46.475346 
L 225.328687 47.81857 
L 227.445253 49.201354 
L 229.561818 50.602919 
L 231.678384 52.006453 
L 233.794949 53.398649 
L 235.911515 54.769221 
L 238.028081 56.110441 
L 240.144646 57.416703 
L 242.261212 58.684139 
L 244.377778 59.910281 
L 246.494343 61.093776 
L 248.610909 62.234147 
L 250.727475 63.33159 
L 252.84404 64.386817 
L 254.960606 65.400919 
L 257.077172 66.375267 
L 259.193737 67.311422 
L 261.310303 68.211073 
L 263.426869 69.075985 
L 265.543434 69.907964 
L 267.66 70.70882 
" clip-path="url(#p0657dd6702)" style="fill: none; stroke: #0000ff; stroke-width: 2; stroke-linecap: square"/>
   </g>
   <g id="line2d_27">
    <path d="M 58.12 78.06112 
L 65.104667 76.348401 
L 66.850833 76.080177 
L 70.343167 75.42301 
L 73.8355 74.99442 
L 79.074 74.865407 
L 84.3125 75.693916 
L 86.058667 76.15567 
L 89.551 77.763176 
L 93.043333 80.004417 
L 94.7895 81.343011 
L 98.281833 85.023144 
L 100.028 87.310096 
L 101.774167 89.780614 
L 103.520333 92.55643 
L 107.012667 98.961285 
L 110.505 106.826661 
L 113.997333 116.045924 
L 115.7435 121.17655 
L 119.235833 132.237515 
L 122.728167 144.254277 
L 124.474333 149.72428 
L 126.2205 154.408365 
L 127.966667 156.42042 
L 129.712833 154.069833 
L 131.459 144.938878 
L 133.205167 128.837065 
L 134.951333 109.606581 
L 136.6975 93.320463 
L 138.443667 84.062647 
L 140.189833 81.236213 
L 141.936 82.543421 
L 143.682167 85.997818 
L 148.920667 98.654988 
L 152.413 105.798679 
L 154.159167 108.585095 
L 155.905333 110.745662 
L 157.6515 112.726558 
L 159.397667 114.052267 
L 161.143833 115.132014 
L 162.89 115.684432 
L 164.636167 115.563486 
L 166.382333 114.980908 
L 168.1285 113.983639 
L 169.874667 112.623541 
L 171.620833 110.474465 
L 173.367 107.98571 
L 175.113167 104.691537 
L 176.859333 101.106126 
L 178.6055 96.86003 
L 180.351667 92.004494 
L 183.844 80.809657 
L 190.828667 55.50313 
L 194.321 43.235051 
L 196.067167 37.808056 
L 197.813333 32.921497 
L 199.5595 28.910168 
L 201.305667 25.461718 
L 203.051833 22.65349 
L 204.798 20.592408 
L 206.544167 19.19937 
L 208.290333 18.623696 
L 210.0365 18.22 
L 211.782667 18.80904 
L 213.528833 19.232943 
L 217.021167 21.633642 
L 218.767333 23.230552 
L 225.752 30.377801 
L 227.498167 32.583172 
L 234.482833 39.639865 
L 243.213667 47.434685 
L 244.959833 48.727447 
L 246.706 49.852087 
L 248.452167 51.247459 
L 251.9445 53.223174 
L 257.183 56.0306 
L 258.929167 56.855733 
L 260.675333 57.421808 
L 262.4215 58.183957 
L 265.913833 59.283986 
L 271.152333 60.422138 
L 272.8985 60.656937 
L 276.390833 60.780443 
L 279.883167 60.700645 
L 281.629333 60.537833 
L 285.121667 59.887695 
L 286.867833 59.401375 
L 289 58.592473 
L 289 58.592473 
" clip-path="url(#p0657dd6702)" style="fill: none; stroke-dasharray: 3.7,1.6; stroke-dashoffset: 0; stroke: #000000"/>
   </g>
   <g id="line2d_28">
    <path d="M 58.12 86.718315 
L 60.236566 86.657967 
L 62.353131 86.62939 
L 64.469697 86.638679 
L 66.586263 86.692745 
L 68.702828 86.799394 
L 70.819394 86.967416 
L 72.93596 87.20667 
L 75.052525 87.528169 
L 77.169091 87.944158 
L 79.285657 88.468186 
L 81.402222 89.115154 
L 83.518788 89.901353 
L 85.635354 90.844466 
L 87.751919 91.963536 
L 89.868485 93.278895 
L 91.985051 94.812048 
L 94.101616 96.585503 
L 96.218182 98.622564 
L 98.334747 100.947096 
L 100.451313 103.583247 
L 102.567879 106.555192 
L 104.684444 109.886912 
L 106.80101 113.601972 
L 108.917576 117.723277 
L 111.034141 122.272548 
L 113.150707 127.26895 
L 115.267273 132.725391 
L 117.383838 138.639122 
L 119.500404 144.968816 
L 121.61697 151.580357 
L 123.733535 158.122068 
L 125.850101 163.752004 
L 127.966667 166.62 
L 130.083232 163.273462 
L 132.199798 149.51811 
L 134.316364 125.734328 
L 136.432929 101.695491 
L 138.549495 87.455385 
L 140.666061 83.576695 
L 142.782626 85.683093 
L 144.899192 90.15177 
L 147.015758 95.085468 
L 149.132323 99.66466 
L 151.248889 103.581808 
L 153.365455 106.747257 
L 155.48202 109.156954 
L 157.598586 110.83616 
L 159.715152 111.816421 
L 161.831717 112.126879 
L 163.948283 111.791792 
L 166.064848 110.83083 
L 168.181414 109.26071 
L 170.29798 107.097559 
L 172.414545 104.359769 
L 174.531111 101.071165 
L 176.647677 97.264341 
L 178.764242 92.983902 
L 180.880808 88.289253 
L 182.997374 83.256499 
L 185.113939 77.978932 
L 187.230505 72.565655 
L 189.347071 67.138083 
L 191.463636 61.824341 
L 193.580202 56.752031 
L 195.696768 52.040187 
L 197.813333 47.791526 
L 199.929899 44.08612 
L 202.046465 40.97736 
L 204.16303 38.490661 
L 206.279596 36.624846 
L 208.396162 35.355676 
L 210.512727 34.640783 
L 212.629293 34.425147 
L 214.745859 34.646423 
L 216.862424 35.23958 
L 218.97899 36.140603 
L 221.095556 37.289166 
L 223.212121 38.630346 
L 225.328687 40.115545 
L 227.445253 41.702783 
L 229.561818 43.356555 
L 231.678384 45.047403 
L 233.794949 46.751324 
L 235.911515 48.449109 
L 238.028081 50.125677 
L 240.144646 51.76943 
L 242.261212 53.371681 
L 244.377778 54.926131 
L 246.494343 56.428424 
L 248.610909 57.875765 
L 250.727475 59.266601 
L 252.84404 60.600354 
L 254.960606 61.877205 
L 257.077172 63.097916 
L 259.193737 64.263686 
L 261.310303 65.376042 
L 263.426869 66.436743 
L 265.543434 67.44772 
L 267.66 68.411013 
" clip-path="url(#p0657dd6702)" style="fill: none; stroke: #000000; stroke-width: 2; stroke-linecap: square"/>
   </g>
   <g id="patch_3">
    <path d="M 58.12 174.04 
L 58.12 10.8 
" style="fill: none; stroke: #000000; stroke-width: 0.8; stroke-linejoin: miter; stroke-linecap: square"/>
   </g>
   <g id="patch_4">
    <path d="M 267.66 174.04 
L 267.66 10.8 
" style="fill: none; stroke: #000000; stroke-width: 0.8; stroke-linejoin: miter; stroke-linecap: square"/>
   </g>
   <g id="patch_5">
    <path d="M 58.12 174.04 
L 267.66 174.04 
" style="fill: none; stroke: #000000; stroke-width: 0.8; stroke-linejoin: miter; stroke-linecap: square"/>
   </g>
   <g id="patch_6">
    <path d="M 58.12 10.8 
L 267.66 10.8 
" style="fill: none; stroke: #000000; stroke-width: 0.8; stroke-linejoin: miter; stroke-linecap: square"/>
   </g>
   <g id="legend_1">
    <g id="patch_7">
     <path d="M 65.12 77.5125 
L 182.460625 77.5125 
Q 184.460625 77.5125 184.460625 75.5125 
L 184.460625 17.8 
Q 184.460625 15.8 182.460625 15.8 
L 65.12 15.8 
Q 63.12 15.8 63.12 17.8 
L 63.12 75.5125 
Q 63.12 77.5125 65.12 77.5125 
z
" style="fill: #ffffff; opacity: 0.8; stroke: #cccccc; stroke-linejoin: miter"/>
    </g>
    <g id="line2d_29">
     <path d="M 67.12 23.898438 
L 77.12 23.898438 
L 87.12 23.898438 
" style="fill: none; stroke: #ffa500; stroke-width: 2; stroke-linecap: square"/>
    </g>
    <g id="text_15">
     <!-- SPP -->
     <g transform="translate(95.12 27.398438) scale(0.1 -0.1)">
      <defs>
       <path id="DejaVuSans-53" d="M 3425 4513 
L 3425 3897 
Q 3066 4069 2747 4153 
Q 2428 4238 2131 4238 
Q 1616 4238 1336 4038 
Q 1056 3838 1056 3469 
Q 1056 3159 1242 3001 
Q 1428 2844 1947 2747 
L 2328 2669 
Q 3034 2534 3370 2195 
Q 3706 1856 3706 1288 
Q 3706 609 3251 259 
Q 2797 -91 1919 -91 
Q 1588 -91 1214 -16 
Q 841 59 441 206 
L 441 856 
Q 825 641 1194 531 
Q 1563 422 1919 422 
Q 2459 422 2753 634 
Q 3047 847 3047 1241 
Q 3047 1584 2836 1778 
Q 2625 1972 2144 2069 
L 1759 2144 
Q 1053 2284 737 2584 
Q 422 2884 422 3419 
Q 422 4038 858 4394 
Q 1294 4750 2059 4750 
Q 2388 4750 2728 4690 
Q 3069 4631 3425 4513 
z
" transform="scale(0.015625)"/>
       <path id="DejaVuSans-50" d="M 1259 4147 
L 1259 2394 
L 2053 2394 
Q 2494 2394 2734 2622 
Q 2975 2850 2975 3272 
Q 2975 3691 2734 3919 
Q 2494 4147 2053 4147 
L 1259 4147 
z
M 628 4666 
L 2053 4666 
Q 2838 4666 3239 4311 
Q 3641 3956 3641 3272 
Q 3641 2581 3239 2228 
Q 2838 1875 2053 1875 
L 1259 1875 
L 1259 0 
L 628 0 
L 628 4666 
z
" transform="scale(0.015625)"/>
      </defs>
      <use xlink:href="#DejaVuSans-53"/>
      <use xlink:href="#DejaVuSans-50" transform="translate(63.476562 0)"/>
      <use xlink:href="#DejaVuSans-50" transform="translate(123.779297 0)"/>
     </g>
    </g>
    <g id="line2d_30">
     <path d="M 67.12 38.576562 
L 77.12 38.576562 
L 87.12 38.576562 
" style="fill: none; stroke: #0000ff; stroke-width: 2; stroke-linecap: square"/>
    </g>
    <g id="text_16">
     <!-- Air -->
     <g transform="translate(95.12 42.076562) scale(0.1 -0.1)">
      <defs>
       <path id="DejaVuSans-41" d="M 2188 4044 
L 1331 1722 
L 3047 1722 
L 2188 4044 
z
M 1831 4666 
L 2547 4666 
L 4325 0 
L 3669 0 
L 3244 1197 
L 1141 1197 
L 716 0 
L 50 0 
L 1831 4666 
z
" transform="scale(0.015625)"/>
       <path id="DejaVuSans-69" d="M 603 3500 
L 1178 3500 
L 1178 0 
L 603 0 
L 603 3500 
z
M 603 4863 
L 1178 4863 
L 1178 4134 
L 603 4134 
L 603 4863 
z
" transform="scale(0.015625)"/>
       <path id="DejaVuSans-72" d="M 2631 2963 
Q 2534 3019 2420 3045 
Q 2306 3072 2169 3072 
Q 1681 3072 1420 2755 
Q 1159 2438 1159 1844 
L 1159 0 
L 581 0 
L 581 3500 
L 1159 3500 
L 1159 2956 
Q 1341 3275 1631 3429 
Q 1922 3584 2338 3584 
Q 2397 3584 2469 3576 
Q 2541 3569 2628 3553 
L 2631 2963 
z
" transform="scale(0.015625)"/>
      </defs>
      <use xlink:href="#DejaVuSans-41"/>
      <use xlink:href="#DejaVuSans-69" transform="translate(68.408203 0)"/>
      <use xlink:href="#DejaVuSans-72" transform="translate(96.191406 0)"/>
     </g>
    </g>
    <g id="line2d_31">
     <path d="M 67.12 53.254687 
L 77.12 53.254687 
L 87.12 53.254687 
" style="fill: none; stroke-dasharray: 3.7,1.6; stroke-dashoffset: 0; stroke: #000000"/>
    </g>
    <g id="text_17">
     <!-- Total (Numerical) -->
     <g transform="translate(95.12 56.754687) scale(0.1 -0.1)">
      <defs>
       <path id="DejaVuSans-54" d="M -19 4666 
L 3928 4666 
L 3928 4134 
L 2272 4134 
L 2272 0 
L 1638 0 
L 1638 4134 
L -19 4134 
L -19 4666 
z
" transform="scale(0.015625)"/>
       <path id="DejaVuSans-6f" d="M 1959 3097 
Q 1497 3097 1228 2736 
Q 959 2375 959 1747 
Q 959 1119 1226 758 
Q 1494 397 1959 397 
Q 2419 397 2687 759 
Q 2956 1122 2956 1747 
Q 2956 2369 2687 2733 
Q 2419 3097 1959 3097 
z
M 1959 3584 
Q 2709 3584 3137 3096 
Q 3566 2609 3566 1747 
Q 3566 888 3137 398 
Q 2709 -91 1959 -91 
Q 1206 -91 779 398 
Q 353 888 353 1747 
Q 353 2609 779 3096 
Q 1206 3584 1959 3584 
z
" transform="scale(0.015625)"/>
       <path id="DejaVuSans-74" d="M 1172 4494 
L 1172 3500 
L 2356 3500 
L 2356 3053 
L 1172 3053 
L 1172 1153 
Q 1172 725 1289 603 
Q 1406 481 1766 481 
L 2356 481 
L 2356 0 
L 1766 0 
Q 1100 0 847 248 
Q 594 497 594 1153 
L 594 3053 
L 172 3053 
L 172 3500 
L 594 3500 
L 594 4494 
L 1172 4494 
z
" transform="scale(0.015625)"/>
       <path id="DejaVuSans-61" d="M 2194 1759 
Q 1497 1759 1228 1600 
Q 959 1441 959 1056 
Q 959 750 1161 570 
Q 1363 391 1709 391 
Q 2188 391 2477 730 
Q 2766 1069 2766 1631 
L 2766 1759 
L 2194 1759 
z
M 3341 1997 
L 3341 0 
L 2766 0 
L 2766 531 
Q 2569 213 2275 61 
Q 1981 -91 1556 -91 
Q 1019 -91 701 211 
Q 384 513 384 1019 
Q 384 1609 779 1909 
Q 1175 2209 1959 2209 
L 2766 2209 
L 2766 2266 
Q 2766 2663 2505 2880 
Q 2244 3097 1772 3097 
Q 1472 3097 1187 3025 
Q 903 2953 641 2809 
L 641 3341 
Q 956 3463 1253 3523 
Q 1550 3584 1831 3584 
Q 2591 3584 2966 3190 
Q 3341 2797 3341 1997 
z
" transform="scale(0.015625)"/>
       <path id="DejaVuSans-6c" d="M 603 4863 
L 1178 4863 
L 1178 0 
L 603 0 
L 603 4863 
z
" transform="scale(0.015625)"/>
       <path id="DejaVuSans-4e" d="M 628 4666 
L 1478 4666 
L 3547 763 
L 3547 4666 
L 4159 4666 
L 4159 0 
L 3309 0 
L 1241 3903 
L 1241 0 
L 628 0 
L 628 4666 
z
" transform="scale(0.015625)"/>
       <path id="DejaVuSans-75" d="M 544 1381 
L 544 3500 
L 1119 3500 
L 1119 1403 
Q 1119 906 1312 657 
Q 1506 409 1894 409 
Q 2359 409 2629 706 
Q 2900 1003 2900 1516 
L 2900 3500 
L 3475 3500 
L 3475 0 
L 2900 0 
L 2900 538 
Q 2691 219 2414 64 
Q 2138 -91 1772 -91 
Q 1169 -91 856 284 
Q 544 659 544 1381 
z
M 1991 3584 
L 1991 3584 
z
" transform="scale(0.015625)"/>
       <path id="DejaVuSans-65" d="M 3597 1894 
L 3597 1613 
L 953 1613 
Q 991 1019 1311 708 
Q 1631 397 2203 397 
Q 2534 397 2845 478 
Q 3156 559 3463 722 
L 3463 178 
Q 3153 47 2828 -22 
Q 2503 -91 2169 -91 
Q 1331 -91 842 396 
Q 353 884 353 1716 
Q 353 2575 817 3079 
Q 1281 3584 2069 3584 
Q 2775 3584 3186 3129 
Q 3597 2675 3597 1894 
z
M 3022 2063 
Q 3016 2534 2758 2815 
Q 2500 3097 2075 3097 
Q 1594 3097 1305 2825 
Q 1016 2553 972 2059 
L 3022 2063 
z
" transform="scale(0.015625)"/>
       <path id="DejaVuSans-63" d="M 3122 3366 
L 3122 2828 
Q 2878 2963 2633 3030 
Q 2388 3097 2138 3097 
Q 1578 3097 1268 2742 
Q 959 2388 959 1747 
Q 959 1106 1268 751 
Q 1578 397 2138 397 
Q 2388 397 2633 464 
Q 2878 531 3122 666 
L 3122 134 
Q 2881 22 2623 -34 
Q 2366 -91 2075 -91 
Q 1284 -91 818 406 
Q 353 903 353 1747 
Q 353 2603 823 3093 
Q 1294 3584 2113 3584 
Q 2378 3584 2631 3529 
Q 2884 3475 3122 3366 
z
" transform="scale(0.015625)"/>
      </defs>
      <use xlink:href="#DejaVuSans-54"/>
      <use xlink:href="#DejaVuSans-6f" transform="translate(44.083984 0)"/>
      <use xlink:href="#DejaVuSans-74" transform="translate(105.265625 0)"/>
      <use xlink:href="#DejaVuSans-61" transform="translate(144.474609 0)"/>
      <use xlink:href="#DejaVuSans-6c" transform="translate(205.753906 0)"/>
      <use xlink:href="#DejaVuSans-20" transform="translate(233.537109 0)"/>
      <use xlink:href="#DejaVuSans-28" transform="translate(265.324219 0)"/>
      <use xlink:href="#DejaVuSans-4e" transform="translate(304.337891 0)"/>
      <use xlink:href="#DejaVuSans-75" transform="translate(379.142578 0)"/>
      <use xlink:href="#DejaVuSans-6d" transform="translate(442.521484 0)"/>
      <use xlink:href="#DejaVuSans-65" transform="translate(539.933594 0)"/>
      <use xlink:href="#DejaVuSans-72" transform="translate(601.457031 0)"/>
      <use xlink:href="#DejaVuSans-69" transform="translate(642.570312 0)"/>
      <use xlink:href="#DejaVuSans-63" transform="translate(670.353516 0)"/>
      <use xlink:href="#DejaVuSans-61" transform="translate(725.333984 0)"/>
      <use xlink:href="#DejaVuSans-6c" transform="translate(786.613281 0)"/>
      <use xlink:href="#DejaVuSans-29" transform="translate(814.396484 0)"/>
     </g>
    </g>
    <g id="line2d_32">
     <path d="M 67.12 67.932813 
L 77.12 67.932813 
L 87.12 67.932813 
" style="fill: none; stroke: #000000; stroke-width: 2; stroke-linecap: square"/>
    </g>
    <g id="text_18">
     <!-- Total -->
     <g transform="translate(95.12 71.432813) scale(0.1 -0.1)">
      <use xlink:href="#DejaVuSans-54"/>
      <use xlink:href="#DejaVuSans-6f" transform="translate(44.083984 0)"/>
      <use xlink:href="#DejaVuSans-74" transform="translate(105.265625 0)"/>
      <use xlink:href="#DejaVuSans-61" transform="translate(144.474609 0)"/>
      <use xlink:href="#DejaVuSans-6c" transform="translate(205.753906 0)"/>
     </g>
    </g>
   </g>
  </g>
 </g>
 <defs>
  <clipPath id="p0657dd6702">
   <rect x="58.12" y="10.8" width="209.54" height="163.24"/>
  </clipPath>
 </defs>
</svg>
