<?xml version="1.0" encoding="utf-8" standalone="no"?>
<!DOCTYPE svg PUBLIC "-//W3C//DTD SVG 1.1//EN"
  "http://www.w3.org/Graphics/SVG/1.1/DTD/svg11.dtd">
<svg xmlns:xlink="http://www.w3.org/1999/xlink" width="216pt" height="216pt" viewBox="0 0 216 216" xmlns="http://www.w3.org/2000/svg" version="1.1">
 <metadata>
  <rdf:RDF xmlns:dc="http://purl.org/dc/elements/1.1/" xmlns:cc="http://creativecommons.org/ns#" xmlns:rdf="http://www.w3.org/1999/02/22-rdf-syntax-ns#">
   <cc:Work>
    <dc:type rdf:resource="http://purl.org/dc/dcmitype/StillImage"/>
    <dc:date>2025-05-27T16:41:53.356575</dc:date>
    <dc:format>image/svg+xml</dc:format>
    <dc:creator>
     <cc:Agent>
      <dc:title>Matplotlib v3.9.2, https://matplotlib.org/</dc:title>
     </cc:Agent>
    </dc:creator>
   </cc:Work>
  </rdf:RDF>
 </metadata>
 <defs>
  <style type="text/css">*{stroke-linejoin: round; stroke-linecap: butt}</style>
 </defs>
 <g id="figure_1">
  <g id="patch_1">
   <path d="M 0 216 
L 216 216 
L 216 0 
L 0 0 
z
" style="fill: #ffffff"/>
  </g>
  <g id="axes_1">
   <g id="patch_2">
    <path d="M 186.055 108 
C 186.055 98.16849 184.118407 88.432579 180.356051 79.349448 
C 176.593695 70.266317 171.078744 62.01261 164.126817 55.060683 
C 157.17489 48.108756 148.921183 42.593805 139.838052 38.831449 
C 130.754921 35.069093 121.01901 33.1325 111.1875 33.1325 
C 101.35599 33.1325 91.620079 35.069093 82.536948 38.831449 
C 73.453817 42.593805 65.20011 48.108756 58.248183 55.060683 
C 51.296256 62.01261 45.781305 70.266317 42.018949 79.349448 
C 38.256593 88.432579 36.32 98.16849 36.32 108 
C 36.32 117.83151 38.256593 127.567421 42.018949 136.650552 
C 45.781305 145.733683 51.296256 153.98739 58.248183 160.939317 
C 65.20011 167.891244 73.453817 173.406195 82.536948 177.168551 
C 91.620079 180.930907 101.35599 182.8675 111.1875 182.8675 
C 121.01901 182.8675 130.754921 180.930907 139.838052 177.168551 
C 148.921183 173.406195 157.17489 167.891244 164.126817 160.939317 
C 171.078744 153.98739 176.593695 145.733683 180.356051 136.650552 
C 184.118407 127.567421 186.055 117.83151 186.055 108 
M 111.1875 108 
C 111.1875 108 111.1875 108 111.1875 108 
C 111.1875 108 111.1875 108 111.1875 108 
C 111.1875 108 111.1875 108 111.1875 108 
C 111.1875 108 111.1875 108 111.1875 108 
C 111.1875 108 111.1875 108 111.1875 108 
C 111.1875 108 111.1875 108 111.1875 108 
C 111.1875 108 111.1875 108 111.1875 108 
C 111.1875 108 111.1875 108 111.1875 108 
C 111.1875 108 111.1875 108 111.1875 108 
C 111.1875 108 111.1875 108 111.1875 108 
C 111.1875 108 111.1875 108 111.1875 108 
C 111.1875 108 111.1875 108 111.1875 108 
C 111.1875 108 111.1875 108 111.1875 108 
C 111.1875 108 111.1875 108 111.1875 108 
C 111.1875 108 111.1875 108 111.1875 108 
C 111.1875 108 111.1875 108 111.1875 108 
z
" style="fill: #ffffff"/>
   </g>
   <g id="matplotlib.axis_1">
    <g id="xtick_1">
     <g id="line2d_1">
      <path d="M 111.1875 108 
L 186.055 108 
" clip-path="url(#pbb05099f6e)" style="fill: none; stroke: #b0b0b0; stroke-width: 0.8; stroke-linecap: square"/>
     </g>
     <g id="text_1">
      <!-- 0° -->
      <g transform="translate(194.37375 110.759375) scale(0.1 -0.1)">
       <defs>
        <path id="DejaVuSans-30" d="M 2034 4250 
Q 1547 4250 1301 3770 
Q 1056 3291 1056 2328 
Q 1056 1369 1301 889 
Q 1547 409 2034 409 
Q 2525 409 2770 889 
Q 3016 1369 3016 2328 
Q 3016 3291 2770 3770 
Q 2525 4250 2034 4250 
z
M 2034 4750 
Q 2819 4750 3233 4129 
Q 3647 3509 3647 2328 
Q 3647 1150 3233 529 
Q 2819 -91 2034 -91 
Q 1250 -91 836 529 
Q 422 1150 422 2328 
Q 422 3509 836 4129 
Q 1250 4750 2034 4750 
z
" transform="scale(0.015625)"/>
        <path id="DejaVuSans-b0" d="M 1600 4347 
Q 1350 4347 1178 4173 
Q 1006 4000 1006 3750 
Q 1006 3503 1178 3333 
Q 1350 3163 1600 3163 
Q 1850 3163 2022 3333 
Q 2194 3503 2194 3750 
Q 2194 3997 2020 4172 
Q 1847 4347 1600 4347 
z
M 1600 4750 
Q 1800 4750 1984 4673 
Q 2169 4597 2303 4453 
Q 2447 4313 2519 4134 
Q 2591 3956 2591 3750 
Q 2591 3338 2302 3052 
Q 2013 2766 1594 2766 
Q 1172 2766 890 3047 
Q 609 3328 609 3750 
Q 609 4169 896 4459 
Q 1184 4750 1600 4750 
z
" transform="scale(0.015625)"/>
       </defs>
       <use xlink:href="#DejaVuSans-30"/>
       <use xlink:href="#DejaVuSans-b0" x="63.623047"/>
      </g>
     </g>
    </g>
    <g id="xtick_2">
     <g id="line2d_2">
      <path d="M 111.1875 108 
L 164.126817 55.060683 
" clip-path="url(#pbb05099f6e)" style="fill: none; stroke: #b0b0b0; stroke-width: 0.8; stroke-linecap: square"/>
     </g>
     <g id="text_2">
      <!-- 45° -->
      <g transform="translate(165.163812 47.920563) scale(0.1 -0.1)">
       <defs>
        <path id="DejaVuSans-34" d="M 2419 4116 
L 825 1625 
L 2419 1625 
L 2419 4116 
z
M 2253 4666 
L 3047 4666 
L 3047 1625 
L 3713 1625 
L 3713 1100 
L 3047 1100 
L 3047 0 
L 2419 0 
L 2419 1100 
L 313 1100 
L 313 1709 
L 2253 4666 
z
" transform="scale(0.015625)"/>
        <path id="DejaVuSans-35" d="M 691 4666 
L 3169 4666 
L 3169 4134 
L 1269 4134 
L 1269 2991 
Q 1406 3038 1543 3061 
Q 1681 3084 1819 3084 
Q 2600 3084 3056 2656 
Q 3513 2228 3513 1497 
Q 3513 744 3044 326 
Q 2575 -91 1722 -91 
Q 1428 -91 1123 -41 
Q 819 9 494 109 
L 494 744 
Q 775 591 1075 516 
Q 1375 441 1709 441 
Q 2250 441 2565 725 
Q 2881 1009 2881 1497 
Q 2881 1984 2565 2268 
Q 2250 2553 1709 2553 
Q 1456 2553 1204 2497 
Q 953 2441 691 2322 
L 691 4666 
z
" transform="scale(0.015625)"/>
       </defs>
       <use xlink:href="#DejaVuSans-34"/>
       <use xlink:href="#DejaVuSans-35" x="63.623047"/>
       <use xlink:href="#DejaVuSans-b0" x="127.246094"/>
      </g>
     </g>
    </g>
    <g id="xtick_3">
     <g id="line2d_3">
      <path d="M 111.1875 108 
L 111.1875 33.1325 
" clip-path="url(#pbb05099f6e)" style="fill: none; stroke: #b0b0b0; stroke-width: 0.8; stroke-linecap: square"/>
     </g>
     <g id="text_3">
      <!-- 90° -->
      <g transform="translate(102.325 21.891875) scale(0.1 -0.1)">
       <defs>
        <path id="DejaVuSans-39" d="M 703 97 
L 703 672 
Q 941 559 1184 500 
Q 1428 441 1663 441 
Q 2288 441 2617 861 
Q 2947 1281 2994 2138 
Q 2813 1869 2534 1725 
Q 2256 1581 1919 1581 
Q 1219 1581 811 2004 
Q 403 2428 403 3163 
Q 403 3881 828 4315 
Q 1253 4750 1959 4750 
Q 2769 4750 3195 4129 
Q 3622 3509 3622 2328 
Q 3622 1225 3098 567 
Q 2575 -91 1691 -91 
Q 1453 -91 1209 -44 
Q 966 3 703 97 
z
M 1959 2075 
Q 2384 2075 2632 2365 
Q 2881 2656 2881 3163 
Q 2881 3666 2632 3958 
Q 2384 4250 1959 4250 
Q 1534 4250 1286 3958 
Q 1038 3666 1038 3163 
Q 1038 2656 1286 2365 
Q 1534 2075 1959 2075 
z
" transform="scale(0.015625)"/>
       </defs>
       <use xlink:href="#DejaVuSans-39"/>
       <use xlink:href="#DejaVuSans-30" x="63.623047"/>
       <use xlink:href="#DejaVuSans-b0" x="127.246094"/>
      </g>
     </g>
    </g>
    <g id="xtick_4">
     <g id="line2d_4">
      <path d="M 111.1875 108 
L 58.248183 55.060683 
" clip-path="url(#pbb05099f6e)" style="fill: none; stroke: #b0b0b0; stroke-width: 0.8; stroke-linecap: square"/>
     </g>
     <g id="text_4">
      <!-- 135° -->
      <g transform="translate(36.304938 47.920563) scale(0.1 -0.1)">
       <defs>
        <path id="DejaVuSans-31" d="M 794 531 
L 1825 531 
L 1825 4091 
L 703 3866 
L 703 4441 
L 1819 4666 
L 2450 4666 
L 2450 531 
L 3481 531 
L 3481 0 
L 794 0 
L 794 531 
z
" transform="scale(0.015625)"/>
        <path id="DejaVuSans-33" d="M 2597 2516 
Q 3050 2419 3304 2112 
Q 3559 1806 3559 1356 
Q 3559 666 3084 287 
Q 2609 -91 1734 -91 
Q 1441 -91 1130 -33 
Q 819 25 488 141 
L 488 750 
Q 750 597 1062 519 
Q 1375 441 1716 441 
Q 2309 441 2620 675 
Q 2931 909 2931 1356 
Q 2931 1769 2642 2001 
Q 2353 2234 1838 2234 
L 1294 2234 
L 1294 2753 
L 1863 2753 
Q 2328 2753 2575 2939 
Q 2822 3125 2822 3475 
Q 2822 3834 2567 4026 
Q 2313 4219 1838 4219 
Q 1578 4219 1281 4162 
Q 984 4106 628 3988 
L 628 4550 
Q 988 4650 1302 4700 
Q 1616 4750 1894 4750 
Q 2613 4750 3031 4423 
Q 3450 4097 3450 3541 
Q 3450 3153 3228 2886 
Q 3006 2619 2597 2516 
z
" transform="scale(0.015625)"/>
       </defs>
       <use xlink:href="#DejaVuSans-31"/>
       <use xlink:href="#DejaVuSans-33" x="63.623047"/>
       <use xlink:href="#DejaVuSans-35" x="127.246094"/>
       <use xlink:href="#DejaVuSans-b0" x="190.869141"/>
      </g>
     </g>
    </g>
    <g id="xtick_5">
     <g id="line2d_5">
      <path d="M 111.1875 108 
L 36.32 108 
" clip-path="url(#pbb05099f6e)" style="fill: none; stroke: #b0b0b0; stroke-width: 0.8; stroke-linecap: square"/>
     </g>
     <g id="text_5">
      <!-- 180° -->
      <g transform="translate(10.27625 110.759375) scale(0.1 -0.1)">
       <defs>
        <path id="DejaVuSans-38" d="M 2034 2216 
Q 1584 2216 1326 1975 
Q 1069 1734 1069 1313 
Q 1069 891 1326 650 
Q 1584 409 2034 409 
Q 2484 409 2743 651 
Q 3003 894 3003 1313 
Q 3003 1734 2745 1975 
Q 2488 2216 2034 2216 
z
M 1403 2484 
Q 997 2584 770 2862 
Q 544 3141 544 3541 
Q 544 4100 942 4425 
Q 1341 4750 2034 4750 
Q 2731 4750 3128 4425 
Q 3525 4100 3525 3541 
Q 3525 3141 3298 2862 
Q 3072 2584 2669 2484 
Q 3125 2378 3379 2068 
Q 3634 1759 3634 1313 
Q 3634 634 3220 271 
Q 2806 -91 2034 -91 
Q 1263 -91 848 271 
Q 434 634 434 1313 
Q 434 1759 690 2068 
Q 947 2378 1403 2484 
z
M 1172 3481 
Q 1172 3119 1398 2916 
Q 1625 2713 2034 2713 
Q 2441 2713 2670 2916 
Q 2900 3119 2900 3481 
Q 2900 3844 2670 4047 
Q 2441 4250 2034 4250 
Q 1625 4250 1398 4047 
Q 1172 3844 1172 3481 
z
" transform="scale(0.015625)"/>
       </defs>
       <use xlink:href="#DejaVuSans-31"/>
       <use xlink:href="#DejaVuSans-38" x="63.623047"/>
       <use xlink:href="#DejaVuSans-30" x="127.246094"/>
       <use xlink:href="#DejaVuSans-b0" x="190.869141"/>
      </g>
     </g>
    </g>
    <g id="xtick_6">
     <g id="line2d_6">
      <path d="M 111.1875 108 
L 58.248183 160.939317 
" clip-path="url(#pbb05099f6e)" style="fill: none; stroke: #b0b0b0; stroke-width: 0.8; stroke-linecap: square"/>
     </g>
     <g id="text_6">
      <!-- 225° -->
      <g transform="translate(36.304938 173.598187) scale(0.1 -0.1)">
       <defs>
        <path id="DejaVuSans-32" d="M 1228 531 
L 3431 531 
L 3431 0 
L 469 0 
L 469 531 
Q 828 903 1448 1529 
Q 2069 2156 2228 2338 
Q 2531 2678 2651 2914 
Q 2772 3150 2772 3378 
Q 2772 3750 2511 3984 
Q 2250 4219 1831 4219 
Q 1534 4219 1204 4116 
Q 875 4013 500 3803 
L 500 4441 
Q 881 4594 1212 4672 
Q 1544 4750 1819 4750 
Q 2544 4750 2975 4387 
Q 3406 4025 3406 3419 
Q 3406 3131 3298 2873 
Q 3191 2616 2906 2266 
Q 2828 2175 2409 1742 
Q 1991 1309 1228 531 
z
" transform="scale(0.015625)"/>
       </defs>
       <use xlink:href="#DejaVuSans-32"/>
       <use xlink:href="#DejaVuSans-32" x="63.623047"/>
       <use xlink:href="#DejaVuSans-35" x="127.246094"/>
       <use xlink:href="#DejaVuSans-b0" x="190.869141"/>
      </g>
     </g>
    </g>
    <g id="xtick_7">
     <g id="line2d_7">
      <path d="M 111.1875 108 
L 111.1875 182.8675 
" clip-path="url(#pbb05099f6e)" style="fill: none; stroke: #b0b0b0; stroke-width: 0.8; stroke-linecap: square"/>
     </g>
     <g id="text_7">
      <!-- 270° -->
      <g transform="translate(99.14375 199.626875) scale(0.1 -0.1)">
       <defs>
        <path id="DejaVuSans-37" d="M 525 4666 
L 3525 4666 
L 3525 4397 
L 1831 0 
L 1172 0 
L 2766 4134 
L 525 4134 
L 525 4666 
z
" transform="scale(0.015625)"/>
       </defs>
       <use xlink:href="#DejaVuSans-32"/>
       <use xlink:href="#DejaVuSans-37" x="63.623047"/>
       <use xlink:href="#DejaVuSans-30" x="127.246094"/>
       <use xlink:href="#DejaVuSans-b0" x="190.869141"/>
      </g>
     </g>
    </g>
    <g id="xtick_8">
     <g id="line2d_8">
      <path d="M 111.1875 108 
L 164.126817 160.939317 
" clip-path="url(#pbb05099f6e)" style="fill: none; stroke: #b0b0b0; stroke-width: 0.8; stroke-linecap: square"/>
     </g>
     <g id="text_8">
      <!-- 315° -->
      <g transform="translate(161.982562 173.598187) scale(0.1 -0.1)">
       <use xlink:href="#DejaVuSans-33"/>
       <use xlink:href="#DejaVuSans-31" x="63.623047"/>
       <use xlink:href="#DejaVuSans-35" x="127.246094"/>
       <use xlink:href="#DejaVuSans-b0" x="190.869141"/>
      </g>
     </g>
    </g>
   </g>
   <g id="matplotlib.axis_2">
    <g id="ytick_1">
     <g id="line2d_9">
      <path d="M 111.1875 108 
C 111.1875 108 111.1875 108 111.1875 108 
C 111.1875 108 111.1875 108 111.1875 108 
C 111.1875 108 111.1875 108 111.1875 108 
C 111.1875 108 111.1875 108 111.1875 108 
C 111.1875 108 111.1875 108 111.1875 108 
C 111.1875 108 111.1875 108 111.1875 108 
C 111.1875 108 111.1875 108 111.1875 108 
C 111.1875 108 111.1875 108 111.1875 108 
C 111.1875 108 111.1875 108 111.1875 108 
C 111.1875 108 111.1875 108 111.1875 108 
C 111.1875 108 111.1875 108 111.1875 108 
C 111.1875 108 111.1875 108 111.1875 108 
C 111.1875 108 111.1875 108 111.1875 108 
C 111.1875 108 111.1875 108 111.1875 108 
C 111.1875 108 111.1875 108 111.1875 108 
C 111.1875 108 111.1875 108 111.1875 108 
" clip-path="url(#pbb05099f6e)" style="fill: none; stroke: #b0b0b0; stroke-width: 0.8; stroke-linecap: square"/>
     </g>
     <g id="text_9">
      <!-- 0 -->
      <g transform="translate(111.1875 105.920312) scale(0.1 -0.1)">
       <use xlink:href="#DejaVuSans-30"/>
      </g>
     </g>
    </g>
    <g id="ytick_2">
     <g id="line2d_10">
      <path d="M 148.62125 108 
C 148.62125 103.084245 147.652953 98.21629 145.771775 93.674724 
C 143.890597 89.133159 141.133122 85.006305 137.657158 81.530342 
C 134.181195 78.054378 130.054341 75.296903 125.512776 73.415725 
C 120.97121 71.534547 116.103255 70.56625 111.1875 70.56625 
C 106.271745 70.56625 101.40379 71.534547 96.862224 73.415725 
C 92.320659 75.296903 88.193805 78.054378 84.717842 81.530342 
C 81.241878 85.006305 78.484403 89.133159 76.603225 93.674724 
C 74.722047 98.21629 73.75375 103.084245 73.75375 108 
C 73.75375 112.915755 74.722047 117.78371 76.603225 122.325276 
C 78.484403 126.866841 81.241878 130.993695 84.717842 134.469658 
C 88.193805 137.945622 92.320659 140.703097 96.862224 142.584275 
C 101.40379 144.465453 106.271745 145.43375 111.1875 145.43375 
C 116.103255 145.43375 120.97121 144.465453 125.512776 142.584275 
C 130.054341 140.703097 134.181195 137.945622 137.657158 134.469658 
C 141.133122 130.993695 143.890597 126.866841 145.771775 122.325276 
C 147.652953 117.78371 148.62125 112.915755 148.62125 108 
" clip-path="url(#pbb05099f6e)" style="fill: none; stroke: #b0b0b0; stroke-width: 0.8; stroke-linecap: square"/>
     </g>
     <g id="text_10">
      <!-- 1 -->
      <g transform="translate(145.771775 91.595037) scale(0.1 -0.1)">
       <use xlink:href="#DejaVuSans-31"/>
      </g>
     </g>
    </g>
    <g id="ytick_3">
     <g id="line2d_11">
      <path d="M 186.055 108 
C 186.055 98.16849 184.118407 88.432579 180.356051 79.349448 
C 176.593695 70.266317 171.078744 62.01261 164.126817 55.060683 
C 157.17489 48.108756 148.921183 42.593805 139.838052 38.831449 
C 130.754921 35.069093 121.01901 33.1325 111.1875 33.1325 
C 101.35599 33.1325 91.620079 35.069093 82.536948 38.831449 
C 73.453817 42.593805 65.20011 48.108756 58.248183 55.060683 
C 51.296256 62.01261 45.781305 70.266317 42.018949 79.349448 
C 38.256593 88.432579 36.32 98.16849 36.32 108 
C 36.32 117.83151 38.256593 127.567421 42.018949 136.650552 
C 45.781305 145.733683 51.296256 153.98739 58.248183 160.939317 
C 65.20011 167.891244 73.453817 173.406195 82.536948 177.168551 
C 91.620079 180.930907 101.35599 182.8675 111.1875 182.8675 
C 121.01901 182.8675 130.754921 180.930907 139.838052 177.168551 
C 148.921183 173.406195 157.17489 167.891244 164.126817 160.939317 
C 171.078744 153.98739 176.593695 145.733683 180.356051 136.650552 
C 184.118407 127.567421 186.055 117.83151 186.055 108 
" clip-path="url(#pbb05099f6e)" style="fill: none; stroke: #b0b0b0; stroke-width: 0.8; stroke-linecap: square"/>
     </g>
     <g id="text_11">
      <!-- 2 -->
      <g transform="translate(180.356051 77.269761) scale(0.1 -0.1)">
       <use xlink:href="#DejaVuSans-32"/>
      </g>
     </g>
    </g>
   </g>
   <g id="line2d_12">
    <path d="M 117.24677 108 
L 118.448907 107.538524 
L 119.761315 106.905817 
L 121.151752 106.079548 
L 122.584594 105.042863 
L 124.021806 103.784807 
L 125.423955 102.300583 
L 126.751245 100.591625 
L 127.964532 98.66551 
L 129.026292 96.535704 
L 129.901531 94.221151 
L 130.558585 91.74573 
L 130.969813 89.137603 
L 131.112163 86.428461 
L 130.967588 83.652715 
L 130.523319 80.846641 
L 129.771986 78.04752 
L 128.711594 75.292784 
L 127.345364 72.619213 
L 125.681442 70.062181 
L 123.732505 67.654997 
L 121.515275 65.42833 
L 119.049964 63.409753 
L 116.359668 61.623397 
L 113.469748 60.089727 
L 110.4072 58.825432 
L 107.200052 57.843427 
L 103.876799 57.152958 
L 100.465893 56.759796 
L 96.995307 56.666497 
L 93.492178 56.872724 
L 89.982535 57.3756 
L 86.491119 58.170081 
L 83.041281 59.249319 
L 79.654969 60.605012 
L 76.352781 62.227714 
L 73.154078 64.107091 
L 70.077138 66.232125 
L 67.139341 68.591241 
L 64.357361 71.172372 
L 61.747356 73.962949 
L 59.325122 76.949829 
L 57.106221 80.119163 
L 55.106051 83.456219 
L 53.339847 86.945176 
L 51.822619 90.568898 
L 50.569013 94.308711 
L 49.593096 98.144198 
L 48.908074 102.053036 
L 48.525942 106.010877 
L 48.45709 109.991309 
L 48.709866 113.965891 
L 49.290119 117.904281 
L 50.200751 121.774465 
L 51.441276 125.543074 
L 53.007427 129.175815 
L 54.890824 132.637974 
L 57.07872 135.895015 
L 59.553844 138.913234 
L 62.29436 141.660465 
L 65.273947 144.106817 
L 68.462004 146.225406 
L 71.823996 147.993078 
L 75.321925 149.391079 
L 78.914929 150.405663 
L 82.559988 151.028598 
L 86.212729 151.257572 
L 89.828316 151.096453 
L 93.36238 150.555413 
L 96.771988 149.650888 
L 100.016608 148.405382 
L 103.059051 146.847102 
L 105.866346 145.009441 
L 108.410541 142.930305 
L 110.66939 140.651311 
L 112.626907 138.216876 
L 114.273764 135.673201 
L 115.607525 133.067206 
L 116.632701 130.445424 
L 117.360621 127.852887 
L 117.809118 125.332051 
L 118.002045 122.921773 
L 117.968619 120.656375 
L 117.742618 118.564835 
L 117.361457 116.67011 
L 116.865159 114.988623 
L 116.295249 113.529931 
L 115.693617 112.296574 
L 115.101364 111.284122 
L 114.557675 110.481407 
L 114.098752 109.870948 
L 113.756828 109.429536 
L 113.5593 109.128982 
L 113.528001 108.936995 
L 113.678631 108.818166 
L 114.020361 108.735026 
L 114.555625 108.649153 
L 115.2801 108.522294 
L 116.18287 108.317465 
L 117.24677 108 
" clip-path="url(#pbb05099f6e)" style="fill: none; stroke: #ff0000; stroke-width: 4; stroke-linecap: square"/>
   </g>
   <g id="patch_3">
    <path d="M 186.055 108 
C 186.055 98.16849 184.118407 88.432579 180.356051 79.349448 
C 176.593695 70.266317 171.078744 62.01261 164.126817 55.060683 
C 157.17489 48.108756 148.921183 42.593805 139.838052 38.831449 
C 130.754921 35.069093 121.01901 33.1325 111.1875 33.1325 
C 101.35599 33.1325 91.620079 35.069093 82.536948 38.831449 
C 73.453817 42.593805 65.20011 48.108756 58.248183 55.060683 
C 51.296256 62.01261 45.781305 70.266317 42.018949 79.349448 
C 38.256593 88.432579 36.32 98.16849 36.32 108 
C 36.32 117.83151 38.256593 127.567421 42.018949 136.650552 
C 45.781305 145.733683 51.296256 153.98739 58.248183 160.939317 
C 65.20011 167.891244 73.453817 173.406195 82.536948 177.168551 
C 91.620079 180.930907 101.35599 182.8675 111.1875 182.8675 
C 121.01901 182.8675 130.754921 180.930907 139.838052 177.168551 
C 148.921183 173.406195 157.17489 167.891244 164.126817 160.939317 
C 171.078744 153.98739 176.593695 145.733683 180.356051 136.650552 
C 184.118407 127.567421 186.055 117.83151 186.055 108 
" style="fill: none; stroke: #000000; stroke-width: 0.8; stroke-linejoin: miter; stroke-linecap: square"/>
   </g>
   <g id="legend_1">
    <g id="patch_4">
     <path d="M 125.67425 145.6735 
L 179.77425 145.6735 
Q 181.77425 145.6735 181.77425 143.6735 
L 181.77425 129.9735 
Q 181.77425 127.9735 179.77425 127.9735 
L 125.67425 127.9735 
Q 123.67425 127.9735 123.67425 129.9735 
L 123.67425 143.6735 
Q 123.67425 145.6735 125.67425 145.6735 
z
" style="fill: #ffffff; opacity: 0.8; stroke: #cccccc; stroke-linejoin: miter"/>
    </g>
    <g id="line2d_13">
     <path d="M 127.67425 136.0735 
L 137.67425 136.0735 
L 147.67425 136.0735 
" style="fill: none; stroke: #ff0000; stroke-width: 4; stroke-linecap: square"/>
    </g>
    <g id="text_12">
     <!-- $D(\varphi)$ -->
     <g transform="translate(155.67425 139.5735) scale(0.1 -0.1)">
      <defs>
       <path id="DejaVuSans-Oblique-44" d="M 1081 4666 
L 2438 4666 
Q 3519 4666 4070 4208 
Q 4622 3750 4622 2847 
Q 4622 2250 4412 1698 
Q 4203 1147 3834 769 
Q 3463 381 2891 190 
Q 2319 0 1538 0 
L 172 0 
L 1081 4666 
z
M 1613 4147 
L 909 519 
L 1734 519 
Q 2794 519 3375 1128 
Q 3956 1738 3956 2847 
Q 3956 3519 3581 3833 
Q 3206 4147 2406 4147 
L 1613 4147 
z
" transform="scale(0.015625)"/>
       <path id="DejaVuSans-28" d="M 1984 4856 
Q 1566 4138 1362 3434 
Q 1159 2731 1159 2009 
Q 1159 1288 1364 580 
Q 1569 -128 1984 -844 
L 1484 -844 
Q 1016 -109 783 600 
Q 550 1309 550 2009 
Q 550 2706 781 3412 
Q 1013 4119 1484 4856 
L 1984 4856 
z
" transform="scale(0.015625)"/>
       <path id="DejaVuSans-Oblique-3c6" d="M 2969 3034 
Q 2766 3034 2675 2581 
L 2259 438 
Q 2553 438 2916 763 
Q 3244 1053 3375 1750 
Q 3497 2400 3300 2750 
Q 3138 3034 2969 3034 
z
M 3063 3525 
Q 3513 3525 3819 3113 
Q 4147 2672 3981 1750 
Q 3828 903 3291 400 
Q 2784 -75 2159 -75 
L 1916 -1331 
L 1344 -1331 
L 1588 -78 
Q 963 -78 641 400 
Q 309 888 475 1747 
Q 647 2641 1166 3097 
Q 1556 3438 2084 3525 
L 1984 3016 
Q 1766 2944 1538 2700 
Q 1194 2341 1081 1747 
Q 963 1116 1156 756 
Q 1334 434 1688 434 
L 2103 2581 
Q 2288 3525 3063 3525 
z
" transform="scale(0.015625)"/>
       <path id="DejaVuSans-29" d="M 513 4856 
L 1013 4856 
Q 1481 4119 1714 3412 
Q 1947 2706 1947 2009 
Q 1947 1309 1714 600 
Q 1481 -109 1013 -844 
L 513 -844 
Q 928 -128 1133 580 
Q 1338 1288 1338 2009 
Q 1338 2731 1133 3434 
Q 928 4138 513 4856 
z
" transform="scale(0.015625)"/>
      </defs>
      <use xlink:href="#DejaVuSans-Oblique-44" transform="translate(0 0.125)"/>
      <use xlink:href="#DejaVuSans-28" transform="translate(77.001953 0.125)"/>
      <use xlink:href="#DejaVuSans-Oblique-3c6" transform="translate(116.015625 0.125)"/>
      <use xlink:href="#DejaVuSans-29" transform="translate(181.982422 0.125)"/>
     </g>
    </g>
   </g>
  </g>
 </g>
 <defs>
  <clipPath id="pbb05099f6e">
   <path d="M 186.055 108 
C 186.055 98.16849 184.118407 88.432579 180.356051 79.349448 
C 176.593695 70.266317 171.078744 62.01261 164.126817 55.060683 
C 157.17489 48.108756 148.921183 42.593805 139.838052 38.831449 
C 130.754921 35.069093 121.01901 33.1325 111.1875 33.1325 
C 101.35599 33.1325 91.620079 35.069093 82.536948 38.831449 
C 73.453817 42.593805 65.20011 48.108756 58.248183 55.060683 
C 51.296256 62.01261 45.781305 70.266317 42.018949 79.349448 
C 38.256593 88.432579 36.32 98.16849 36.32 108 
C 36.32 117.83151 38.256593 127.567421 42.018949 136.650552 
C 45.781305 145.733683 51.296256 153.98739 58.248183 160.939317 
C 65.20011 167.891244 73.453817 173.406195 82.536948 177.168551 
C 91.620079 180.930907 101.35599 182.8675 111.1875 182.8675 
C 121.01901 182.8675 130.754921 180.930907 139.838052 177.168551 
C 148.921183 173.406195 157.17489 167.891244 164.126817 160.939317 
C 171.078744 153.98739 176.593695 145.733683 180.356051 136.650552 
C 184.118407 127.567421 186.055 117.83151 186.055 108 
M 111.1875 108 
C 111.1875 108 111.1875 108 111.1875 108 
C 111.1875 108 111.1875 108 111.1875 108 
C 111.1875 108 111.1875 108 111.1875 108 
C 111.1875 108 111.1875 108 111.1875 108 
C 111.1875 108 111.1875 108 111.1875 108 
C 111.1875 108 111.1875 108 111.1875 108 
C 111.1875 108 111.1875 108 111.1875 108 
C 111.1875 108 111.1875 108 111.1875 108 
C 111.1875 108 111.1875 108 111.1875 108 
C 111.1875 108 111.1875 108 111.1875 108 
C 111.1875 108 111.1875 108 111.1875 108 
C 111.1875 108 111.1875 108 111.1875 108 
C 111.1875 108 111.1875 108 111.1875 108 
C 111.1875 108 111.1875 108 111.1875 108 
C 111.1875 108 111.1875 108 111.1875 108 
C 111.1875 108 111.1875 108 111.1875 108 
z
"/>
  </clipPath>
 </defs>
</svg>
