<?xml version="1.0" encoding="utf-8" standalone="no"?>
<!DOCTYPE svg PUBLIC "-//W3C//DTD SVG 1.1//EN"
  "http://www.w3.org/Graphics/SVG/1.1/DTD/svg11.dtd">
<svg xmlns:xlink="http://www.w3.org/1999/xlink" width="720pt" height="288pt" viewBox="0 0 720 288" xmlns="http://www.w3.org/2000/svg" version="1.1">
 <metadata>
  <rdf:RDF xmlns:dc="http://purl.org/dc/elements/1.1/" xmlns:cc="http://creativecommons.org/ns#" xmlns:rdf="http://www.w3.org/1999/02/22-rdf-syntax-ns#">
   <cc:Work>
    <dc:type rdf:resource="http://purl.org/dc/dcmitype/StillImage"/>
    <dc:date>2025-05-21T21:03:26.127937</dc:date>
    <dc:format>image/svg+xml</dc:format>
    <dc:creator>
     <cc:Agent>
      <dc:title>Matplotlib v3.9.2, https://matplotlib.org/</dc:title>
     </cc:Agent>
    </dc:creator>
   </cc:Work>
  </rdf:RDF>
 </metadata>
 <defs>
  <style type="text/css">*{stroke-linejoin: round; stroke-linecap: butt}</style>
 </defs>
 <g id="figure_1">
  <g id="patch_1">
   <path d="M 0 288 
L 720 288 
L 720 0 
L 0 0 
z
" style="fill: #ffffff"/>
  </g>
  <g id="axes_1">
   <g id="patch_2">
    <path d="M 288.25 154.08 
C 288.25 140.790538 285.632266 127.630299 280.546609 115.352437 
C 275.460952 103.074574 268.006275 91.917863 258.609206 82.520794 
C 249.212137 73.123725 238.055426 65.669048 225.777563 60.583391 
C 213.499701 55.497734 200.339462 52.88 187.05 52.88 
C 173.760538 52.88 160.600299 55.497734 148.322437 60.583391 
C 136.044574 65.669048 124.887863 73.123725 115.490794 82.520794 
C 106.093725 91.917863 98.639048 103.074574 93.553391 115.352437 
C 88.467734 127.630299 85.85 140.790538 85.85 154.08 
C 85.85 167.369462 88.467734 180.529701 93.553391 192.807563 
C 98.639048 205.085426 106.093725 216.242137 115.490794 225.639206 
C 124.887863 235.036275 136.044574 242.490952 148.322437 247.576609 
C 160.600299 252.662266 173.760538 255.28 187.05 255.28 
C 200.339462 255.28 213.499701 252.662266 225.777563 247.576609 
C 238.055426 242.490952 249.212137 235.036275 258.609206 225.639206 
C 268.006275 216.242137 275.460952 205.085426 280.546609 192.807563 
C 285.632266 180.529701 288.25 167.369462 288.25 154.08 
M 187.05 154.08 
C 187.05 154.08 187.05 154.08 187.05 154.08 
C 187.05 154.08 187.05 154.08 187.05 154.08 
C 187.05 154.08 187.05 154.08 187.05 154.08 
C 187.05 154.08 187.05 154.08 187.05 154.08 
C 187.05 154.08 187.05 154.08 187.05 154.08 
C 187.05 154.08 187.05 154.08 187.05 154.08 
C 187.05 154.08 187.05 154.08 187.05 154.08 
C 187.05 154.08 187.05 154.08 187.05 154.08 
C 187.05 154.08 187.05 154.08 187.05 154.08 
C 187.05 154.08 187.05 154.08 187.05 154.08 
C 187.05 154.08 187.05 154.08 187.05 154.08 
C 187.05 154.08 187.05 154.08 187.05 154.08 
C 187.05 154.08 187.05 154.08 187.05 154.08 
C 187.05 154.08 187.05 154.08 187.05 154.08 
C 187.05 154.08 187.05 154.08 187.05 154.08 
C 187.05 154.08 187.05 154.08 187.05 154.08 
z
" style="fill: #ffffff"/>
   </g>
   <g id="matplotlib.axis_1">
    <g id="xtick_1">
     <g id="line2d_1">
      <path d="M 187.05 154.08 
L 288.25 154.08 
" clip-path="url(#p193ecd32fe)" style="fill: none; stroke: #b0b0b0; stroke-width: 0.8; stroke-linecap: square"/>
     </g>
     <g id="text_1">
      <!-- 0° -->
      <g transform="translate(295.4325 157.39125) scale(0.12 -0.12)">
       <defs>
        <path id="DejaVuSans-30" d="M 2034 4250 
Q 1547 4250 1301 3770 
Q 1056 3291 1056 2328 
Q 1056 1369 1301 889 
Q 1547 409 2034 409 
Q 2525 409 2770 889 
Q 3016 1369 3016 2328 
Q 3016 3291 2770 3770 
Q 2525 4250 2034 4250 
z
M 2034 4750 
Q 2819 4750 3233 4129 
Q 3647 3509 3647 2328 
Q 3647 1150 3233 529 
Q 2819 -91 2034 -91 
Q 1250 -91 836 529 
Q 422 1150 422 2328 
Q 422 3509 836 4129 
Q 1250 4750 2034 4750 
z
" transform="scale(0.015625)"/>
        <path id="DejaVuSans-b0" d="M 1600 4347 
Q 1350 4347 1178 4173 
Q 1006 4000 1006 3750 
Q 1006 3503 1178 3333 
Q 1350 3163 1600 3163 
Q 1850 3163 2022 3333 
Q 2194 3503 2194 3750 
Q 2194 3997 2020 4172 
Q 1847 4347 1600 4347 
z
M 1600 4750 
Q 1800 4750 1984 4673 
Q 2169 4597 2303 4453 
Q 2447 4313 2519 4134 
Q 2591 3956 2591 3750 
Q 2591 3338 2302 3052 
Q 2013 2766 1594 2766 
Q 1172 2766 890 3047 
Q 609 3328 609 3750 
Q 609 4169 896 4459 
Q 1184 4750 1600 4750 
z
" transform="scale(0.015625)"/>
       </defs>
       <use xlink:href="#DejaVuSans-30"/>
       <use xlink:href="#DejaVuSans-b0" x="63.623047"/>
      </g>
     </g>
    </g>
    <g id="xtick_2">
     <g id="line2d_2">
      <path d="M 187.05 154.08 
L 258.609206 82.520794 
" clip-path="url(#p193ecd32fe)" style="fill: none; stroke: #b0b0b0; stroke-width: 0.8; stroke-linecap: square"/>
     </g>
     <g id="text_2">
      <!-- 45° -->
      <g transform="translate(257.873701 75.932549) scale(0.12 -0.12)">
       <defs>
        <path id="DejaVuSans-34" d="M 2419 4116 
L 825 1625 
L 2419 1625 
L 2419 4116 
z
M 2253 4666 
L 3047 4666 
L 3047 1625 
L 3713 1625 
L 3713 1100 
L 3047 1100 
L 3047 0 
L 2419 0 
L 2419 1100 
L 313 1100 
L 313 1709 
L 2253 4666 
z
" transform="scale(0.015625)"/>
        <path id="DejaVuSans-35" d="M 691 4666 
L 3169 4666 
L 3169 4134 
L 1269 4134 
L 1269 2991 
Q 1406 3038 1543 3061 
Q 1681 3084 1819 3084 
Q 2600 3084 3056 2656 
Q 3513 2228 3513 1497 
Q 3513 744 3044 326 
Q 2575 -91 1722 -91 
Q 1428 -91 1123 -41 
Q 819 9 494 109 
L 494 744 
Q 775 591 1075 516 
Q 1375 441 1709 441 
Q 2250 441 2565 725 
Q 2881 1009 2881 1497 
Q 2881 1984 2565 2268 
Q 2250 2553 1709 2553 
Q 1456 2553 1204 2497 
Q 953 2441 691 2322 
L 691 4666 
z
" transform="scale(0.015625)"/>
       </defs>
       <use xlink:href="#DejaVuSans-34"/>
       <use xlink:href="#DejaVuSans-35" x="63.623047"/>
       <use xlink:href="#DejaVuSans-b0" x="127.246094"/>
      </g>
     </g>
    </g>
    <g id="xtick_3">
     <g id="line2d_3">
      <path d="M 187.05 154.08 
L 187.05 52.88 
" clip-path="url(#p193ecd32fe)" style="fill: none; stroke: #b0b0b0; stroke-width: 0.8; stroke-linecap: square"/>
     </g>
     <g id="text_3">
      <!-- 90° -->
      <g transform="translate(176.415 42.19125) scale(0.12 -0.12)">
       <defs>
        <path id="DejaVuSans-39" d="M 703 97 
L 703 672 
Q 941 559 1184 500 
Q 1428 441 1663 441 
Q 2288 441 2617 861 
Q 2947 1281 2994 2138 
Q 2813 1869 2534 1725 
Q 2256 1581 1919 1581 
Q 1219 1581 811 2004 
Q 403 2428 403 3163 
Q 403 3881 828 4315 
Q 1253 4750 1959 4750 
Q 2769 4750 3195 4129 
Q 3622 3509 3622 2328 
Q 3622 1225 3098 567 
Q 2575 -91 1691 -91 
Q 1453 -91 1209 -44 
Q 966 3 703 97 
z
M 1959 2075 
Q 2384 2075 2632 2365 
Q 2881 2656 2881 3163 
Q 2881 3666 2632 3958 
Q 2384 4250 1959 4250 
Q 1534 4250 1286 3958 
Q 1038 3666 1038 3163 
Q 1038 2656 1286 2365 
Q 1534 2075 1959 2075 
z
" transform="scale(0.015625)"/>
       </defs>
       <use xlink:href="#DejaVuSans-39"/>
       <use xlink:href="#DejaVuSans-30" x="63.623047"/>
       <use xlink:href="#DejaVuSans-b0" x="127.246094"/>
      </g>
     </g>
    </g>
    <g id="xtick_4">
     <g id="line2d_4">
      <path d="M 187.05 154.08 
L 115.490794 82.520794 
" clip-path="url(#p193ecd32fe)" style="fill: none; stroke: #b0b0b0; stroke-width: 0.8; stroke-linecap: square"/>
     </g>
     <g id="text_4">
      <!-- 135° -->
      <g transform="translate(91.138799 75.932549) scale(0.12 -0.12)">
       <defs>
        <path id="DejaVuSans-31" d="M 794 531 
L 1825 531 
L 1825 4091 
L 703 3866 
L 703 4441 
L 1819 4666 
L 2450 4666 
L 2450 531 
L 3481 531 
L 3481 0 
L 794 0 
L 794 531 
z
" transform="scale(0.015625)"/>
        <path id="DejaVuSans-33" d="M 2597 2516 
Q 3050 2419 3304 2112 
Q 3559 1806 3559 1356 
Q 3559 666 3084 287 
Q 2609 -91 1734 -91 
Q 1441 -91 1130 -33 
Q 819 25 488 141 
L 488 750 
Q 750 597 1062 519 
Q 1375 441 1716 441 
Q 2309 441 2620 675 
Q 2931 909 2931 1356 
Q 2931 1769 2642 2001 
Q 2353 2234 1838 2234 
L 1294 2234 
L 1294 2753 
L 1863 2753 
Q 2328 2753 2575 2939 
Q 2822 3125 2822 3475 
Q 2822 3834 2567 4026 
Q 2313 4219 1838 4219 
Q 1578 4219 1281 4162 
Q 984 4106 628 3988 
L 628 4550 
Q 988 4650 1302 4700 
Q 1616 4750 1894 4750 
Q 2613 4750 3031 4423 
Q 3450 4097 3450 3541 
Q 3450 3153 3228 2886 
Q 3006 2619 2597 2516 
z
" transform="scale(0.015625)"/>
       </defs>
       <use xlink:href="#DejaVuSans-31"/>
       <use xlink:href="#DejaVuSans-33" x="63.623047"/>
       <use xlink:href="#DejaVuSans-35" x="127.246094"/>
       <use xlink:href="#DejaVuSans-b0" x="190.869141"/>
      </g>
     </g>
    </g>
    <g id="xtick_5">
     <g id="line2d_5">
      <path d="M 187.05 154.08 
L 85.85 154.08 
" clip-path="url(#p193ecd32fe)" style="fill: none; stroke: #b0b0b0; stroke-width: 0.8; stroke-linecap: square"/>
     </g>
     <g id="text_5">
      <!-- 180° -->
      <g transform="translate(57.3975 157.39125) scale(0.12 -0.12)">
       <defs>
        <path id="DejaVuSans-38" d="M 2034 2216 
Q 1584 2216 1326 1975 
Q 1069 1734 1069 1313 
Q 1069 891 1326 650 
Q 1584 409 2034 409 
Q 2484 409 2743 651 
Q 3003 894 3003 1313 
Q 3003 1734 2745 1975 
Q 2488 2216 2034 2216 
z
M 1403 2484 
Q 997 2584 770 2862 
Q 544 3141 544 3541 
Q 544 4100 942 4425 
Q 1341 4750 2034 4750 
Q 2731 4750 3128 4425 
Q 3525 4100 3525 3541 
Q 3525 3141 3298 2862 
Q 3072 2584 2669 2484 
Q 3125 2378 3379 2068 
Q 3634 1759 3634 1313 
Q 3634 634 3220 271 
Q 2806 -91 2034 -91 
Q 1263 -91 848 271 
Q 434 634 434 1313 
Q 434 1759 690 2068 
Q 947 2378 1403 2484 
z
M 1172 3481 
Q 1172 3119 1398 2916 
Q 1625 2713 2034 2713 
Q 2441 2713 2670 2916 
Q 2900 3119 2900 3481 
Q 2900 3844 2670 4047 
Q 2441 4250 2034 4250 
Q 1625 4250 1398 4047 
Q 1172 3844 1172 3481 
z
" transform="scale(0.015625)"/>
       </defs>
       <use xlink:href="#DejaVuSans-31"/>
       <use xlink:href="#DejaVuSans-38" x="63.623047"/>
       <use xlink:href="#DejaVuSans-30" x="127.246094"/>
       <use xlink:href="#DejaVuSans-b0" x="190.869141"/>
      </g>
     </g>
    </g>
    <g id="xtick_6">
     <g id="line2d_6">
      <path d="M 187.05 154.08 
L 115.490794 225.639206 
" clip-path="url(#p193ecd32fe)" style="fill: none; stroke: #b0b0b0; stroke-width: 0.8; stroke-linecap: square"/>
     </g>
     <g id="text_6">
      <!-- 225° -->
      <g transform="translate(91.138799 238.849951) scale(0.12 -0.12)">
       <defs>
        <path id="DejaVuSans-32" d="M 1228 531 
L 3431 531 
L 3431 0 
L 469 0 
L 469 531 
Q 828 903 1448 1529 
Q 2069 2156 2228 2338 
Q 2531 2678 2651 2914 
Q 2772 3150 2772 3378 
Q 2772 3750 2511 3984 
Q 2250 4219 1831 4219 
Q 1534 4219 1204 4116 
Q 875 4013 500 3803 
L 500 4441 
Q 881 4594 1212 4672 
Q 1544 4750 1819 4750 
Q 2544 4750 2975 4387 
Q 3406 4025 3406 3419 
Q 3406 3131 3298 2873 
Q 3191 2616 2906 2266 
Q 2828 2175 2409 1742 
Q 1991 1309 1228 531 
z
" transform="scale(0.015625)"/>
       </defs>
       <use xlink:href="#DejaVuSans-32"/>
       <use xlink:href="#DejaVuSans-32" x="63.623047"/>
       <use xlink:href="#DejaVuSans-35" x="127.246094"/>
       <use xlink:href="#DejaVuSans-b0" x="190.869141"/>
      </g>
     </g>
    </g>
    <g id="xtick_7">
     <g id="line2d_7">
      <path d="M 187.05 154.08 
L 187.05 255.28 
" clip-path="url(#p193ecd32fe)" style="fill: none; stroke: #b0b0b0; stroke-width: 0.8; stroke-linecap: square"/>
     </g>
     <g id="text_7">
      <!-- 270° -->
      <g transform="translate(172.5975 272.59125) scale(0.12 -0.12)">
       <defs>
        <path id="DejaVuSans-37" d="M 525 4666 
L 3525 4666 
L 3525 4397 
L 1831 0 
L 1172 0 
L 2766 4134 
L 525 4134 
L 525 4666 
z
" transform="scale(0.015625)"/>
       </defs>
       <use xlink:href="#DejaVuSans-32"/>
       <use xlink:href="#DejaVuSans-37" x="63.623047"/>
       <use xlink:href="#DejaVuSans-30" x="127.246094"/>
       <use xlink:href="#DejaVuSans-b0" x="190.869141"/>
      </g>
     </g>
    </g>
    <g id="xtick_8">
     <g id="line2d_8">
      <path d="M 187.05 154.08 
L 258.609206 225.639206 
" clip-path="url(#p193ecd32fe)" style="fill: none; stroke: #b0b0b0; stroke-width: 0.8; stroke-linecap: square"/>
     </g>
     <g id="text_8">
      <!-- 315° -->
      <g transform="translate(254.056201 238.849951) scale(0.12 -0.12)">
       <use xlink:href="#DejaVuSans-33"/>
       <use xlink:href="#DejaVuSans-31" x="63.623047"/>
       <use xlink:href="#DejaVuSans-35" x="127.246094"/>
       <use xlink:href="#DejaVuSans-b0" x="190.869141"/>
      </g>
     </g>
    </g>
   </g>
   <g id="matplotlib.axis_2">
    <g id="ytick_1">
     <g id="line2d_9">
      <path d="M 187.05 154.08 
C 187.05 154.08 187.05 154.08 187.05 154.08 
C 187.05 154.08 187.05 154.08 187.05 154.08 
C 187.05 154.08 187.05 154.08 187.05 154.08 
C 187.05 154.08 187.05 154.08 187.05 154.08 
C 187.05 154.08 187.05 154.08 187.05 154.08 
C 187.05 154.08 187.05 154.08 187.05 154.08 
C 187.05 154.08 187.05 154.08 187.05 154.08 
C 187.05 154.08 187.05 154.08 187.05 154.08 
C 187.05 154.08 187.05 154.08 187.05 154.08 
C 187.05 154.08 187.05 154.08 187.05 154.08 
C 187.05 154.08 187.05 154.08 187.05 154.08 
C 187.05 154.08 187.05 154.08 187.05 154.08 
C 187.05 154.08 187.05 154.08 187.05 154.08 
C 187.05 154.08 187.05 154.08 187.05 154.08 
C 187.05 154.08 187.05 154.08 187.05 154.08 
C 187.05 154.08 187.05 154.08 187.05 154.08 
" clip-path="url(#p193ecd32fe)" style="fill: none; stroke: #b0b0b0; stroke-width: 0.8; stroke-linecap: square"/>
     </g>
     <g id="text_9">
      <!-- 0 -->
      <g transform="translate(187.05 151.584375) scale(0.12 -0.12)">
       <use xlink:href="#DejaVuSans-30"/>
      </g>
     </g>
    </g>
    <g id="ytick_2">
     <g id="line2d_10">
      <path d="M 220.783333 154.08 
C 220.783333 149.650179 219.910755 145.263433 218.215536 141.170812 
C 216.520317 137.078191 214.035425 133.359288 210.903069 130.226931 
C 207.770712 127.094575 204.051809 124.609683 199.959188 122.914464 
C 195.866567 121.219245 191.479821 120.346667 187.05 120.346667 
C 182.620179 120.346667 178.233433 121.219245 174.140812 122.914464 
C 170.048191 124.609683 166.329288 127.094575 163.196931 130.226931 
C 160.064575 133.359288 157.579683 137.078191 155.884464 141.170812 
C 154.189245 145.263433 153.316667 149.650179 153.316667 154.08 
C 153.316667 158.509821 154.189245 162.896567 155.884464 166.989188 
C 157.579683 171.081809 160.064575 174.800712 163.196931 177.933069 
C 166.329288 181.065425 170.048191 183.550317 174.140812 185.245536 
C 178.233433 186.940755 182.620179 187.813333 187.05 187.813333 
C 191.479821 187.813333 195.866567 186.940755 199.959188 185.245536 
C 204.051809 183.550317 207.770712 181.065425 210.903069 177.933069 
C 214.035425 174.800712 216.520317 171.081809 218.215536 166.989188 
C 219.910755 162.896567 220.783333 158.509821 220.783333 154.08 
" clip-path="url(#p193ecd32fe)" style="fill: none; stroke: #b0b0b0; stroke-width: 0.8; stroke-linecap: square"/>
     </g>
     <g id="text_10">
      <!-- 1 -->
      <g transform="translate(218.215536 138.675187) scale(0.12 -0.12)">
       <use xlink:href="#DejaVuSans-31"/>
      </g>
     </g>
    </g>
    <g id="ytick_3">
     <g id="line2d_11">
      <path d="M 254.516667 154.08 
C 254.516667 145.220359 252.77151 136.446866 249.381072 128.261624 
C 245.990634 120.076383 241.02085 112.638575 234.756138 106.373862 
C 228.491425 100.10915 221.053617 95.139366 212.868376 91.748928 
C 204.683134 88.35849 195.909641 86.613333 187.05 86.613333 
C 178.190359 86.613333 169.416866 88.35849 161.231624 91.748928 
C 153.046383 95.139366 145.608575 100.10915 139.343862 106.373862 
C 133.07915 112.638575 128.109366 120.076383 124.718928 128.261624 
C 121.32849 136.446866 119.583333 145.220359 119.583333 154.08 
C 119.583333 162.939641 121.32849 171.713134 124.718928 179.898376 
C 128.109366 188.083617 133.07915 195.521425 139.343862 201.786138 
C 145.608575 208.05085 153.046383 213.020634 161.231624 216.411072 
C 169.416866 219.80151 178.190359 221.546667 187.05 221.546667 
C 195.909641 221.546667 204.683134 219.80151 212.868376 216.411072 
C 221.053617 213.020634 228.491425 208.05085 234.756138 201.786138 
C 241.02085 195.521425 245.990634 188.083617 249.381072 179.898376 
C 252.77151 171.713134 254.516667 162.939641 254.516667 154.08 
" clip-path="url(#p193ecd32fe)" style="fill: none; stroke: #b0b0b0; stroke-width: 0.8; stroke-linecap: square"/>
     </g>
     <g id="text_11">
      <!-- 2 -->
      <g transform="translate(249.381072 125.765999) scale(0.12 -0.12)">
       <use xlink:href="#DejaVuSans-32"/>
      </g>
     </g>
    </g>
    <g id="ytick_4">
     <g id="line2d_12">
      <path d="M 288.25 154.08 
C 288.25 140.790538 285.632266 127.630299 280.546609 115.352437 
C 275.460952 103.074574 268.006275 91.917863 258.609206 82.520794 
C 249.212137 73.123725 238.055426 65.669048 225.777563 60.583391 
C 213.499701 55.497734 200.339462 52.88 187.05 52.88 
C 173.760538 52.88 160.600299 55.497734 148.322437 60.583391 
C 136.044574 65.669048 124.887863 73.123725 115.490794 82.520794 
C 106.093725 91.917863 98.639048 103.074574 93.553391 115.352437 
C 88.467734 127.630299 85.85 140.790538 85.85 154.08 
C 85.85 167.369462 88.467734 180.529701 93.553391 192.807563 
C 98.639048 205.085426 106.093725 216.242137 115.490794 225.639206 
C 124.887863 235.036275 136.044574 242.490952 148.322437 247.576609 
C 160.600299 252.662266 173.760538 255.28 187.05 255.28 
C 200.339462 255.28 213.499701 252.662266 225.777563 247.576609 
C 238.055426 242.490952 249.212137 235.036275 258.609206 225.639206 
C 268.006275 216.242137 275.460952 205.085426 280.546609 192.807563 
C 285.632266 180.529701 288.25 167.369462 288.25 154.08 
" clip-path="url(#p193ecd32fe)" style="fill: none; stroke: #b0b0b0; stroke-width: 0.8; stroke-linecap: square"/>
     </g>
     <g id="text_12">
      <!-- 3 -->
      <g transform="translate(280.546609 112.856812) scale(0.12 -0.12)">
       <use xlink:href="#DejaVuSans-33"/>
      </g>
     </g>
    </g>
   </g>
   <g id="line2d_13">
    <path d="M 203.409796 154.08 
L 203.294077 153.047659 
L 202.951268 152.050693 
L 202.394216 151.122645 
L 201.6437 150.293458 
L 200.727492 149.587878 
L 199.679116 149.024065 
L 198.53632 148.612488 
L 197.339355 148.355157 
L 196.129104 148.245214 
L 194.945156 148.26692 
L 193.823888 148.396033 
L 192.796651 148.600579 
L 191.888122 148.841983 
L 191.114897 149.076524 
L 190.484393 149.25707 
L 189.994103 149.335011 
L 189.631236 149.262345 
L 189.372788 148.993803 
L 189.186023 148.488972 
L 189.029374 147.714291 
L 188.853741 146.64488 
L 188.604131 145.266086 
L 188.221605 143.574724 
L 187.645452 141.579917 
L 186.815527 139.303524 
L 185.674659 136.780108 
L 184.171048 134.056448 
L 182.260572 131.19059 
L 179.908898 128.250464 
L 177.093335 125.312105 
L 173.804345 122.457531 
L 170.046661 119.772341 
L 165.839949 117.343114 
L 161.218997 115.254697 
L 156.233398 113.587458 
L 150.946742 112.414619 
L 145.435316 111.799737 
L 139.786372 111.794443 
L 134.095982 112.4365 
L 128.46657 113.748257 
L 123.004183 115.735566 
L 117.815593 118.387183 
L 113.005316 121.674694 
L 108.67265 125.552977 
L 104.908828 129.961176 
L 101.794375 134.824168 
L 99.396754 140.054489 
L 97.768388 145.55464 
L 96.945112 151.219718 
L 96.945112 156.940282 
L 97.768388 162.60536 
L 99.396754 168.105511 
L 101.794375 173.335832 
L 104.908828 178.198824 
L 108.67265 182.607023 
L 113.005316 186.485306 
L 117.815593 189.772817 
L 123.004183 192.424434 
L 128.46657 194.411743 
L 134.095982 195.7235 
L 139.786372 196.365557 
L 145.435316 196.360263 
L 150.946742 195.745381 
L 156.233398 194.572542 
L 161.218997 192.905303 
L 165.839949 190.816886 
L 170.046661 188.387659 
L 173.804345 185.702469 
L 177.093335 182.847895 
L 179.908898 179.909536 
L 182.260572 176.96941 
L 184.171048 174.103552 
L 185.674659 171.379892 
L 186.815527 168.856476 
L 187.645452 166.580083 
L 188.221605 164.585276 
L 188.604131 162.893914 
L 188.853741 161.51512 
L 189.029374 160.445709 
L 189.186023 159.671028 
L 189.372788 159.166197 
L 189.631236 158.897655 
L 189.994103 158.824989 
L 190.484393 158.90293 
L 191.114897 159.083476 
L 191.888122 159.318017 
L 192.796651 159.559421 
L 193.823888 159.763967 
L 194.945156 159.89308 
L 196.129104 159.914786 
L 197.339355 159.804843 
L 198.53632 159.547512 
L 199.679116 159.135935 
L 200.727492 158.572122 
L 201.6437 157.866542 
L 202.394216 157.037355 
L 202.951268 156.109307 
L 203.294077 155.112341 
L 203.409796 154.08 
" clip-path="url(#p193ecd32fe)" style="fill: none; stroke: #ff0000; stroke-width: 3; stroke-linecap: square"/>
   </g>
   <g id="patch_3">
    <path d="M 288.25 154.08 
C 288.25 140.790538 285.632266 127.630299 280.546609 115.352437 
C 275.460952 103.074574 268.006275 91.917863 258.609206 82.520794 
C 249.212137 73.123725 238.055426 65.669048 225.777563 60.583391 
C 213.499701 55.497734 200.339462 52.88 187.05 52.88 
C 173.760538 52.88 160.600299 55.497734 148.322437 60.583391 
C 136.044574 65.669048 124.887863 73.123725 115.490794 82.520794 
C 106.093725 91.917863 98.639048 103.074574 93.553391 115.352437 
C 88.467734 127.630299 85.85 140.790538 85.85 154.08 
C 85.85 167.369462 88.467734 180.529701 93.553391 192.807563 
C 98.639048 205.085426 106.093725 216.242137 115.490794 225.639206 
C 124.887863 235.036275 136.044574 242.490952 148.322437 247.576609 
C 160.600299 252.662266 173.760538 255.28 187.05 255.28 
C 200.339462 255.28 213.499701 252.662266 225.777563 247.576609 
C 238.055426 242.490952 249.212137 235.036275 258.609206 225.639206 
C 268.006275 216.242137 275.460952 205.085426 280.546609 192.807563 
C 285.632266 180.529701 288.25 167.369462 288.25 154.08 
" style="fill: none; stroke: #000000; stroke-width: 0.8; stroke-linejoin: miter; stroke-linecap: square"/>
   </g>
   <g id="text_13">
    <!-- p-поляризованное излучение -->
    <g transform="translate(75.286875 24.078375) scale(0.144 -0.144)">
     <defs>
      <path id="DejaVuSans-70" d="M 1159 525 
L 1159 -1331 
L 581 -1331 
L 581 3500 
L 1159 3500 
L 1159 2969 
Q 1341 3281 1617 3432 
Q 1894 3584 2278 3584 
Q 2916 3584 3314 3078 
Q 3713 2572 3713 1747 
Q 3713 922 3314 415 
Q 2916 -91 2278 -91 
Q 1894 -91 1617 61 
Q 1341 213 1159 525 
z
M 3116 1747 
Q 3116 2381 2855 2742 
Q 2594 3103 2138 3103 
Q 1681 3103 1420 2742 
Q 1159 2381 1159 1747 
Q 1159 1113 1420 752 
Q 1681 391 2138 391 
Q 2594 391 2855 752 
Q 3116 1113 3116 1747 
z
" transform="scale(0.015625)"/>
      <path id="DejaVuSans-2d" d="M 313 2009 
L 1997 2009 
L 1997 1497 
L 313 1497 
L 313 2009 
z
" transform="scale(0.015625)"/>
      <path id="DejaVuSans-43f" d="M 3603 3500 
L 3603 0 
L 3025 0 
L 3025 3041 
L 1159 3041 
L 1159 0 
L 581 0 
L 581 3500 
L 3603 3500 
z
" transform="scale(0.015625)"/>
      <path id="DejaVuSans-43e" d="M 1959 3097 
Q 1497 3097 1228 2736 
Q 959 2375 959 1747 
Q 959 1119 1226 758 
Q 1494 397 1959 397 
Q 2419 397 2687 759 
Q 2956 1122 2956 1747 
Q 2956 2369 2687 2733 
Q 2419 3097 1959 3097 
z
M 1959 3584 
Q 2709 3584 3137 3096 
Q 3566 2609 3566 1747 
Q 3566 888 3137 398 
Q 2709 -91 1959 -91 
Q 1206 -91 779 398 
Q 353 888 353 1747 
Q 353 2609 779 3096 
Q 1206 3584 1959 3584 
z
" transform="scale(0.015625)"/>
      <path id="DejaVuSans-43b" d="M 238 0 
L 238 478 
Q 806 566 981 959 
Q 1194 1513 1194 2928 
L 1194 3500 
L 3559 3500 
L 3559 0 
L 2984 0 
L 2984 3041 
L 1769 3041 
L 1769 2694 
Q 1769 1344 1494 738 
Q 1200 91 238 0 
z
" transform="scale(0.015625)"/>
      <path id="DejaVuSans-44f" d="M 1181 2491 
Q 1181 2231 1381 2084 
Q 1581 1938 1953 1938 
L 2728 1938 
L 2728 3041 
L 1953 3041 
Q 1581 3041 1381 2897 
Q 1181 2753 1181 2491 
z
M 363 0 
L 1431 1534 
Q 1069 1616 828 1830 
Q 588 2044 588 2491 
Q 588 2997 923 3248 
Q 1259 3500 1938 3500 
L 3306 3500 
L 3306 0 
L 2728 0 
L 2728 1478 
L 2013 1478 
L 981 0 
L 363 0 
z
" transform="scale(0.015625)"/>
      <path id="DejaVuSans-440" d="M 1159 525 
L 1159 -1331 
L 581 -1331 
L 581 3500 
L 1159 3500 
L 1159 2969 
Q 1341 3281 1617 3432 
Q 1894 3584 2278 3584 
Q 2916 3584 3314 3078 
Q 3713 2572 3713 1747 
Q 3713 922 3314 415 
Q 2916 -91 2278 -91 
Q 1894 -91 1617 61 
Q 1341 213 1159 525 
z
M 3116 1747 
Q 3116 2381 2855 2742 
Q 2594 3103 2138 3103 
Q 1681 3103 1420 2742 
Q 1159 2381 1159 1747 
Q 1159 1113 1420 752 
Q 1681 391 2138 391 
Q 2594 391 2855 752 
Q 3116 1113 3116 1747 
z
" transform="scale(0.015625)"/>
      <path id="DejaVuSans-438" d="M 3578 3500 
L 3578 0 
L 3006 0 
L 3006 2809 
L 1319 0 
L 581 0 
L 581 3500 
L 1153 3500 
L 1153 697 
L 2838 3500 
L 3578 3500 
z
" transform="scale(0.015625)"/>
      <path id="DejaVuSans-437" d="M 2206 1888 
Q 2594 1813 2809 1584 
Q 3025 1356 3025 1019 
Q 3025 478 2622 193 
Q 2219 -91 1475 -91 
Q 1225 -91 961 -47 
Q 697 -3 416 84 
L 416 619 
Q 638 503 903 445 
Q 1169 388 1459 388 
Q 1931 388 2195 563 
Q 2459 738 2459 1019 
Q 2459 1294 2225 1461 
Q 1991 1628 1563 1628 
L 1100 1628 
L 1100 2103 
L 1584 2103 
Q 1947 2103 2158 2242 
Q 2369 2381 2369 2600 
Q 2369 2800 2151 2944 
Q 1934 3088 1563 3088 
Q 1341 3088 1089 3047 
Q 838 3006 534 2916 
L 534 3438 
Q 841 3513 1106 3550 
Q 1372 3588 1609 3588 
Q 2222 3588 2576 3342 
Q 2931 3097 2931 2656 
Q 2931 2366 2743 2164 
Q 2556 1963 2206 1888 
z
" transform="scale(0.015625)"/>
      <path id="DejaVuSans-432" d="M 1156 1613 
L 1156 459 
L 1975 459 
Q 2369 459 2575 607 
Q 2781 756 2781 1038 
Q 2781 1319 2575 1466 
Q 2369 1613 1975 1613 
L 1156 1613 
z
M 1156 3041 
L 1156 2072 
L 1913 2072 
Q 2238 2072 2444 2201 
Q 2650 2331 2650 2563 
Q 2650 2794 2444 2917 
Q 2238 3041 1913 3041 
L 1156 3041 
z
M 581 3500 
L 1950 3500 
Q 2566 3500 2897 3275 
Q 3228 3050 3228 2634 
Q 3228 2313 3059 2123 
Q 2891 1934 2559 1888 
Q 2956 1813 3175 1575 
Q 3394 1338 3394 981 
Q 3394 513 3033 256 
Q 2672 0 2003 0 
L 581 0 
L 581 3500 
z
" transform="scale(0.015625)"/>
      <path id="DejaVuSans-430" d="M 2194 1759 
Q 1497 1759 1228 1600 
Q 959 1441 959 1056 
Q 959 750 1161 570 
Q 1363 391 1709 391 
Q 2188 391 2477 730 
Q 2766 1069 2766 1631 
L 2766 1759 
L 2194 1759 
z
M 3341 1997 
L 3341 0 
L 2766 0 
L 2766 531 
Q 2569 213 2275 61 
Q 1981 -91 1556 -91 
Q 1019 -91 701 211 
Q 384 513 384 1019 
Q 384 1609 779 1909 
Q 1175 2209 1959 2209 
L 2766 2209 
L 2766 2266 
Q 2766 2663 2505 2880 
Q 2244 3097 1772 3097 
Q 1472 3097 1187 3025 
Q 903 2953 641 2809 
L 641 3341 
Q 956 3463 1253 3523 
Q 1550 3584 1831 3584 
Q 2591 3584 2966 3190 
Q 3341 2797 3341 1997 
z
" transform="scale(0.015625)"/>
      <path id="DejaVuSans-43d" d="M 581 3500 
L 1159 3500 
L 1159 2072 
L 3025 2072 
L 3025 3500 
L 3603 3500 
L 3603 0 
L 3025 0 
L 3025 1613 
L 1159 1613 
L 1159 0 
L 581 0 
L 581 3500 
z
" transform="scale(0.015625)"/>
      <path id="DejaVuSans-435" d="M 3597 1894 
L 3597 1613 
L 953 1613 
Q 991 1019 1311 708 
Q 1631 397 2203 397 
Q 2534 397 2845 478 
Q 3156 559 3463 722 
L 3463 178 
Q 3153 47 2828 -22 
Q 2503 -91 2169 -91 
Q 1331 -91 842 396 
Q 353 884 353 1716 
Q 353 2575 817 3079 
Q 1281 3584 2069 3584 
Q 2775 3584 3186 3129 
Q 3597 2675 3597 1894 
z
M 3022 2063 
Q 3016 2534 2758 2815 
Q 2500 3097 2075 3097 
Q 1594 3097 1305 2825 
Q 1016 2553 972 2059 
L 3022 2063 
z
" transform="scale(0.015625)"/>
      <path id="DejaVuSans-20" transform="scale(0.015625)"/>
      <path id="DejaVuSans-443" d="M 2059 -325 
Q 1816 -950 1584 -1140 
Q 1353 -1331 966 -1331 
L 506 -1331 
L 506 -850 
L 844 -850 
Q 1081 -850 1212 -737 
Q 1344 -625 1503 -206 
L 1606 56 
L 191 3500 
L 800 3500 
L 1894 763 
L 2988 3500 
L 3597 3500 
L 2059 -325 
z
" transform="scale(0.015625)"/>
      <path id="DejaVuSans-447" d="M 2625 0 
L 2625 1472 
L 1553 1472 
Q 1075 1472 756 1769 
Q 469 2038 469 2613 
L 469 3500 
L 1044 3500 
L 1044 2666 
Q 1044 2300 1206 2116 
Q 1372 1931 1697 1931 
L 2625 1931 
L 2625 3500 
L 3200 3500 
L 3200 0 
L 2625 0 
z
" transform="scale(0.015625)"/>
     </defs>
     <use xlink:href="#DejaVuSans-70"/>
     <use xlink:href="#DejaVuSans-2d" x="63.476562"/>
     <use xlink:href="#DejaVuSans-43f" x="99.560547"/>
     <use xlink:href="#DejaVuSans-43e" x="164.941406"/>
     <use xlink:href="#DejaVuSans-43b" x="226.123047"/>
     <use xlink:href="#DejaVuSans-44f" x="290.039062"/>
     <use xlink:href="#DejaVuSans-440" x="350.195312"/>
     <use xlink:href="#DejaVuSans-438" x="413.671875"/>
     <use xlink:href="#DejaVuSans-437" x="478.662109"/>
     <use xlink:href="#DejaVuSans-43e" x="531.835938"/>
     <use xlink:href="#DejaVuSans-432" x="593.017578"/>
     <use xlink:href="#DejaVuSans-430" x="651.953125"/>
     <use xlink:href="#DejaVuSans-43d" x="713.232422"/>
     <use xlink:href="#DejaVuSans-43d" x="778.613281"/>
     <use xlink:href="#DejaVuSans-43e" x="843.994141"/>
     <use xlink:href="#DejaVuSans-435" x="905.175781"/>
     <use xlink:href="#DejaVuSans-20" x="966.699219"/>
     <use xlink:href="#DejaVuSans-438" x="998.486328"/>
     <use xlink:href="#DejaVuSans-437" x="1063.476562"/>
     <use xlink:href="#DejaVuSans-43b" x="1116.650391"/>
     <use xlink:href="#DejaVuSans-443" x="1180.566406"/>
     <use xlink:href="#DejaVuSans-447" x="1239.746094"/>
     <use xlink:href="#DejaVuSans-435" x="1298.828125"/>
     <use xlink:href="#DejaVuSans-43d" x="1360.351562"/>
     <use xlink:href="#DejaVuSans-438" x="1425.732422"/>
     <use xlink:href="#DejaVuSans-435" x="1490.722656"/>
    </g>
   </g>
   <g id="legend_1">
    <g id="patch_4">
     <path d="M 204.81 59.88 
L 269.73 59.88 
Q 272.13 59.88 272.13 57.48 
L 272.13 41.04 
Q 272.13 38.64 269.73 38.64 
L 204.81 38.64 
Q 202.41 38.64 202.41 41.04 
L 202.41 57.48 
Q 202.41 59.88 204.81 59.88 
z
" style="fill: #ffffff; opacity: 0.8; stroke: #cccccc; stroke-linejoin: miter"/>
    </g>
    <g id="line2d_14">
     <path d="M 207.21 48.36 
L 219.21 48.36 
L 231.21 48.36 
" style="fill: none; stroke: #ff0000; stroke-width: 3; stroke-linecap: square"/>
    </g>
    <g id="text_14">
     <!-- $D(\varphi)$ -->
     <g transform="translate(240.81 52.56) scale(0.12 -0.12)">
      <defs>
       <path id="DejaVuSans-Oblique-44" d="M 1081 4666 
L 2438 4666 
Q 3519 4666 4070 4208 
Q 4622 3750 4622 2847 
Q 4622 2250 4412 1698 
Q 4203 1147 3834 769 
Q 3463 381 2891 190 
Q 2319 0 1538 0 
L 172 0 
L 1081 4666 
z
M 1613 4147 
L 909 519 
L 1734 519 
Q 2794 519 3375 1128 
Q 3956 1738 3956 2847 
Q 3956 3519 3581 3833 
Q 3206 4147 2406 4147 
L 1613 4147 
z
" transform="scale(0.015625)"/>
       <path id="DejaVuSans-28" d="M 1984 4856 
Q 1566 4138 1362 3434 
Q 1159 2731 1159 2009 
Q 1159 1288 1364 580 
Q 1569 -128 1984 -844 
L 1484 -844 
Q 1016 -109 783 600 
Q 550 1309 550 2009 
Q 550 2706 781 3412 
Q 1013 4119 1484 4856 
L 1984 4856 
z
" transform="scale(0.015625)"/>
       <path id="DejaVuSans-Oblique-3c6" d="M 2969 3034 
Q 2766 3034 2675 2581 
L 2259 438 
Q 2553 438 2916 763 
Q 3244 1053 3375 1750 
Q 3497 2400 3300 2750 
Q 3138 3034 2969 3034 
z
M 3063 3525 
Q 3513 3525 3819 3113 
Q 4147 2672 3981 1750 
Q 3828 903 3291 400 
Q 2784 -75 2159 -75 
L 1916 -1331 
L 1344 -1331 
L 1588 -78 
Q 963 -78 641 400 
Q 309 888 475 1747 
Q 647 2641 1166 3097 
Q 1556 3438 2084 3525 
L 1984 3016 
Q 1766 2944 1538 2700 
Q 1194 2341 1081 1747 
Q 963 1116 1156 756 
Q 1334 434 1688 434 
L 2103 2581 
Q 2288 3525 3063 3525 
z
" transform="scale(0.015625)"/>
       <path id="DejaVuSans-29" d="M 513 4856 
L 1013 4856 
Q 1481 4119 1714 3412 
Q 1947 2706 1947 2009 
Q 1947 1309 1714 600 
Q 1481 -109 1013 -844 
L 513 -844 
Q 928 -128 1133 580 
Q 1338 1288 1338 2009 
Q 1338 2731 1133 3434 
Q 928 4138 513 4856 
z
" transform="scale(0.015625)"/>
      </defs>
      <use xlink:href="#DejaVuSans-Oblique-44" transform="translate(0 0.125)"/>
      <use xlink:href="#DejaVuSans-28" transform="translate(77.001953 0.125)"/>
      <use xlink:href="#DejaVuSans-Oblique-3c6" transform="translate(116.015625 0.125)"/>
      <use xlink:href="#DejaVuSans-29" transform="translate(181.982422 0.125)"/>
     </g>
    </g>
   </g>
  </g>
  <g id="axes_2">
   <g id="patch_5">
    <path d="M 641.77 154.08 
C 641.77 140.790538 639.152266 127.630299 634.066609 115.352437 
C 628.980952 103.074574 621.526275 91.917863 612.129206 82.520794 
C 602.732137 73.123725 591.575426 65.669048 579.297563 60.583391 
C 567.019701 55.497734 553.859462 52.88 540.57 52.88 
C 527.280538 52.88 514.120299 55.497734 501.842437 60.583391 
C 489.564574 65.669048 478.407863 73.123725 469.010794 82.520794 
C 459.613725 91.917863 452.159048 103.074574 447.073391 115.352437 
C 441.987734 127.630299 439.37 140.790538 439.37 154.08 
C 439.37 167.369462 441.987734 180.529701 447.073391 192.807563 
C 452.159048 205.085426 459.613725 216.242137 469.010794 225.639206 
C 478.407863 235.036275 489.564574 242.490952 501.842437 247.576609 
C 514.120299 252.662266 527.280538 255.28 540.57 255.28 
C 553.859462 255.28 567.019701 252.662266 579.297563 247.576609 
C 591.575426 242.490952 602.732137 235.036275 612.129206 225.639206 
C 621.526275 216.242137 628.980952 205.085426 634.066609 192.807563 
C 639.152266 180.529701 641.77 167.369462 641.77 154.08 
M 540.57 154.08 
C 540.57 154.08 540.57 154.08 540.57 154.08 
C 540.57 154.08 540.57 154.08 540.57 154.08 
C 540.57 154.08 540.57 154.08 540.57 154.08 
C 540.57 154.08 540.57 154.08 540.57 154.08 
C 540.57 154.08 540.57 154.08 540.57 154.08 
C 540.57 154.08 540.57 154.08 540.57 154.08 
C 540.57 154.08 540.57 154.08 540.57 154.08 
C 540.57 154.08 540.57 154.08 540.57 154.08 
C 540.57 154.08 540.57 154.08 540.57 154.08 
C 540.57 154.08 540.57 154.08 540.57 154.08 
C 540.57 154.08 540.57 154.08 540.57 154.08 
C 540.57 154.08 540.57 154.08 540.57 154.08 
C 540.57 154.08 540.57 154.08 540.57 154.08 
C 540.57 154.08 540.57 154.08 540.57 154.08 
C 540.57 154.08 540.57 154.08 540.57 154.08 
C 540.57 154.08 540.57 154.08 540.57 154.08 
z
" style="fill: #ffffff"/>
   </g>
   <g id="matplotlib.axis_3">
    <g id="xtick_9">
     <g id="line2d_15">
      <path d="M 540.57 154.08 
L 641.77 154.08 
" clip-path="url(#p9827a91ebe)" style="fill: none; stroke: #b0b0b0; stroke-width: 0.8; stroke-linecap: square"/>
     </g>
     <g id="text_15">
      <!-- 0° -->
      <g transform="translate(648.9525 157.39125) scale(0.12 -0.12)">
       <use xlink:href="#DejaVuSans-30"/>
       <use xlink:href="#DejaVuSans-b0" x="63.623047"/>
      </g>
     </g>
    </g>
    <g id="xtick_10">
     <g id="line2d_16">
      <path d="M 540.57 154.08 
L 612.129206 82.520794 
" clip-path="url(#p9827a91ebe)" style="fill: none; stroke: #b0b0b0; stroke-width: 0.8; stroke-linecap: square"/>
     </g>
     <g id="text_16">
      <!-- 45° -->
      <g transform="translate(611.393701 75.932549) scale(0.12 -0.12)">
       <use xlink:href="#DejaVuSans-34"/>
       <use xlink:href="#DejaVuSans-35" x="63.623047"/>
       <use xlink:href="#DejaVuSans-b0" x="127.246094"/>
      </g>
     </g>
    </g>
    <g id="xtick_11">
     <g id="line2d_17">
      <path d="M 540.57 154.08 
L 540.57 52.88 
" clip-path="url(#p9827a91ebe)" style="fill: none; stroke: #b0b0b0; stroke-width: 0.8; stroke-linecap: square"/>
     </g>
     <g id="text_17">
      <!-- 90° -->
      <g transform="translate(529.935 42.19125) scale(0.12 -0.12)">
       <use xlink:href="#DejaVuSans-39"/>
       <use xlink:href="#DejaVuSans-30" x="63.623047"/>
       <use xlink:href="#DejaVuSans-b0" x="127.246094"/>
      </g>
     </g>
    </g>
    <g id="xtick_12">
     <g id="line2d_18">
      <path d="M 540.57 154.08 
L 469.010794 82.520794 
" clip-path="url(#p9827a91ebe)" style="fill: none; stroke: #b0b0b0; stroke-width: 0.8; stroke-linecap: square"/>
     </g>
     <g id="text_18">
      <!-- 135° -->
      <g transform="translate(444.658799 75.932549) scale(0.12 -0.12)">
       <use xlink:href="#DejaVuSans-31"/>
       <use xlink:href="#DejaVuSans-33" x="63.623047"/>
       <use xlink:href="#DejaVuSans-35" x="127.246094"/>
       <use xlink:href="#DejaVuSans-b0" x="190.869141"/>
      </g>
     </g>
    </g>
    <g id="xtick_13">
     <g id="line2d_19">
      <path d="M 540.57 154.08 
L 439.37 154.08 
" clip-path="url(#p9827a91ebe)" style="fill: none; stroke: #b0b0b0; stroke-width: 0.8; stroke-linecap: square"/>
     </g>
     <g id="text_19">
      <!-- 180° -->
      <g transform="translate(410.9175 157.39125) scale(0.12 -0.12)">
       <use xlink:href="#DejaVuSans-31"/>
       <use xlink:href="#DejaVuSans-38" x="63.623047"/>
       <use xlink:href="#DejaVuSans-30" x="127.246094"/>
       <use xlink:href="#DejaVuSans-b0" x="190.869141"/>
      </g>
     </g>
    </g>
    <g id="xtick_14">
     <g id="line2d_20">
      <path d="M 540.57 154.08 
L 469.010794 225.639206 
" clip-path="url(#p9827a91ebe)" style="fill: none; stroke: #b0b0b0; stroke-width: 0.8; stroke-linecap: square"/>
     </g>
     <g id="text_20">
      <!-- 225° -->
      <g transform="translate(444.658799 238.849951) scale(0.12 -0.12)">
       <use xlink:href="#DejaVuSans-32"/>
       <use xlink:href="#DejaVuSans-32" x="63.623047"/>
       <use xlink:href="#DejaVuSans-35" x="127.246094"/>
       <use xlink:href="#DejaVuSans-b0" x="190.869141"/>
      </g>
     </g>
    </g>
    <g id="xtick_15">
     <g id="line2d_21">
      <path d="M 540.57 154.08 
L 540.57 255.28 
" clip-path="url(#p9827a91ebe)" style="fill: none; stroke: #b0b0b0; stroke-width: 0.8; stroke-linecap: square"/>
     </g>
     <g id="text_21">
      <!-- 270° -->
      <g transform="translate(526.1175 272.59125) scale(0.12 -0.12)">
       <use xlink:href="#DejaVuSans-32"/>
       <use xlink:href="#DejaVuSans-37" x="63.623047"/>
       <use xlink:href="#DejaVuSans-30" x="127.246094"/>
       <use xlink:href="#DejaVuSans-b0" x="190.869141"/>
      </g>
     </g>
    </g>
    <g id="xtick_16">
     <g id="line2d_22">
      <path d="M 540.57 154.08 
L 612.129206 225.639206 
" clip-path="url(#p9827a91ebe)" style="fill: none; stroke: #b0b0b0; stroke-width: 0.8; stroke-linecap: square"/>
     </g>
     <g id="text_22">
      <!-- 315° -->
      <g transform="translate(607.576201 238.849951) scale(0.12 -0.12)">
       <use xlink:href="#DejaVuSans-33"/>
       <use xlink:href="#DejaVuSans-31" x="63.623047"/>
       <use xlink:href="#DejaVuSans-35" x="127.246094"/>
       <use xlink:href="#DejaVuSans-b0" x="190.869141"/>
      </g>
     </g>
    </g>
   </g>
   <g id="matplotlib.axis_4">
    <g id="ytick_5">
     <g id="line2d_23">
      <path d="M 540.57 154.08 
C 540.57 154.08 540.57 154.08 540.57 154.08 
C 540.57 154.08 540.57 154.08 540.57 154.08 
C 540.57 154.08 540.57 154.08 540.57 154.08 
C 540.57 154.08 540.57 154.08 540.57 154.08 
C 540.57 154.08 540.57 154.08 540.57 154.08 
C 540.57 154.08 540.57 154.08 540.57 154.08 
C 540.57 154.08 540.57 154.08 540.57 154.08 
C 540.57 154.08 540.57 154.08 540.57 154.08 
C 540.57 154.08 540.57 154.08 540.57 154.08 
C 540.57 154.08 540.57 154.08 540.57 154.08 
C 540.57 154.08 540.57 154.08 540.57 154.08 
C 540.57 154.08 540.57 154.08 540.57 154.08 
C 540.57 154.08 540.57 154.08 540.57 154.08 
C 540.57 154.08 540.57 154.08 540.57 154.08 
C 540.57 154.08 540.57 154.08 540.57 154.08 
C 540.57 154.08 540.57 154.08 540.57 154.08 
" clip-path="url(#p9827a91ebe)" style="fill: none; stroke: #b0b0b0; stroke-width: 0.8; stroke-linecap: square"/>
     </g>
     <g id="text_23">
      <!-- 0 -->
      <g transform="translate(540.57 151.584375) scale(0.12 -0.12)">
       <use xlink:href="#DejaVuSans-30"/>
      </g>
     </g>
    </g>
    <g id="ytick_6">
     <g id="line2d_24">
      <path d="M 574.303333 154.08 
C 574.303333 149.650179 573.430755 145.263433 571.735536 141.170812 
C 570.040317 137.078191 567.555425 133.359288 564.423069 130.226931 
C 561.290712 127.094575 557.571809 124.609683 553.479188 122.914464 
C 549.386567 121.219245 544.999821 120.346667 540.57 120.346667 
C 536.140179 120.346667 531.753433 121.219245 527.660812 122.914464 
C 523.568191 124.609683 519.849288 127.094575 516.716931 130.226931 
C 513.584575 133.359288 511.099683 137.078191 509.404464 141.170812 
C 507.709245 145.263433 506.836667 149.650179 506.836667 154.08 
C 506.836667 158.509821 507.709245 162.896567 509.404464 166.989188 
C 511.099683 171.081809 513.584575 174.800712 516.716931 177.933069 
C 519.849288 181.065425 523.568191 183.550317 527.660812 185.245536 
C 531.753433 186.940755 536.140179 187.813333 540.57 187.813333 
C 544.999821 187.813333 549.386567 186.940755 553.479188 185.245536 
C 557.571809 183.550317 561.290712 181.065425 564.423069 177.933069 
C 567.555425 174.800712 570.040317 171.081809 571.735536 166.989188 
C 573.430755 162.896567 574.303333 158.509821 574.303333 154.08 
" clip-path="url(#p9827a91ebe)" style="fill: none; stroke: #b0b0b0; stroke-width: 0.8; stroke-linecap: square"/>
     </g>
     <g id="text_24">
      <!-- 1 -->
      <g transform="translate(571.735536 138.675187) scale(0.12 -0.12)">
       <use xlink:href="#DejaVuSans-31"/>
      </g>
     </g>
    </g>
    <g id="ytick_7">
     <g id="line2d_25">
      <path d="M 608.036667 154.08 
C 608.036667 145.220359 606.29151 136.446866 602.901072 128.261624 
C 599.510634 120.076383 594.54085 112.638575 588.276138 106.373862 
C 582.011425 100.10915 574.573617 95.139366 566.388376 91.748928 
C 558.203134 88.35849 549.429641 86.613333 540.57 86.613333 
C 531.710359 86.613333 522.936866 88.35849 514.751624 91.748928 
C 506.566383 95.139366 499.128575 100.10915 492.863862 106.373862 
C 486.59915 112.638575 481.629366 120.076383 478.238928 128.261624 
C 474.84849 136.446866 473.103333 145.220359 473.103333 154.08 
C 473.103333 162.939641 474.84849 171.713134 478.238928 179.898376 
C 481.629366 188.083617 486.59915 195.521425 492.863862 201.786138 
C 499.128575 208.05085 506.566383 213.020634 514.751624 216.411072 
C 522.936866 219.80151 531.710359 221.546667 540.57 221.546667 
C 549.429641 221.546667 558.203134 219.80151 566.388376 216.411072 
C 574.573617 213.020634 582.011425 208.05085 588.276138 201.786138 
C 594.54085 195.521425 599.510634 188.083617 602.901072 179.898376 
C 606.29151 171.713134 608.036667 162.939641 608.036667 154.08 
" clip-path="url(#p9827a91ebe)" style="fill: none; stroke: #b0b0b0; stroke-width: 0.8; stroke-linecap: square"/>
     </g>
     <g id="text_25">
      <!-- 2 -->
      <g transform="translate(602.901072 125.765999) scale(0.12 -0.12)">
       <use xlink:href="#DejaVuSans-32"/>
      </g>
     </g>
    </g>
    <g id="ytick_8">
     <g id="line2d_26">
      <path d="M 641.77 154.08 
C 641.77 140.790538 639.152266 127.630299 634.066609 115.352437 
C 628.980952 103.074574 621.526275 91.917863 612.129206 82.520794 
C 602.732137 73.123725 591.575426 65.669048 579.297563 60.583391 
C 567.019701 55.497734 553.859462 52.88 540.57 52.88 
C 527.280538 52.88 514.120299 55.497734 501.842437 60.583391 
C 489.564574 65.669048 478.407863 73.123725 469.010794 82.520794 
C 459.613725 91.917863 452.159048 103.074574 447.073391 115.352437 
C 441.987734 127.630299 439.37 140.790538 439.37 154.08 
C 439.37 167.369462 441.987734 180.529701 447.073391 192.807563 
C 452.159048 205.085426 459.613725 216.242137 469.010794 225.639206 
C 478.407863 235.036275 489.564574 242.490952 501.842437 247.576609 
C 514.120299 252.662266 527.280538 255.28 540.57 255.28 
C 553.859462 255.28 567.019701 252.662266 579.297563 247.576609 
C 591.575426 242.490952 602.732137 235.036275 612.129206 225.639206 
C 621.526275 216.242137 628.980952 205.085426 634.066609 192.807563 
C 639.152266 180.529701 641.77 167.369462 641.77 154.08 
" clip-path="url(#p9827a91ebe)" style="fill: none; stroke: #b0b0b0; stroke-width: 0.8; stroke-linecap: square"/>
     </g>
     <g id="text_26">
      <!-- 3 -->
      <g transform="translate(634.066609 112.856812) scale(0.12 -0.12)">
       <use xlink:href="#DejaVuSans-33"/>
      </g>
     </g>
    </g>
   </g>
   <g id="line2d_27">
    <path d="M 540.57 154.08 
L 540.840845 154.062787 
L 541.642499 153.943129 
L 542.942721 153.622695 
L 544.689087 153.011245 
L 546.810906 152.030289 
L 549.221806 150.616339 
L 551.822894 148.723599 
L 554.506378 146.326008 
L 557.15952 143.418563 
L 559.668771 140.017873 
L 561.92395 136.161909 
L 563.822298 131.908978 
L 565.272288 127.335941 
L 566.197013 122.535743 
L 566.537075 117.614346 
L 566.252829 112.687172 
L 565.325932 107.875181 
L 563.760115 103.300732 
L 561.581172 99.083364 
L 558.836153 95.335665 
L 555.591785 92.159358 
L 551.932199 89.641766 
L 547.956017 87.85276 
L 543.772925 86.842324 
L 539.499846 86.638807 
L 535.25685 87.247927 
L 531.162957 88.652575 
L 527.331968 90.813415 
L 523.868494 93.670254 
L 520.864311 97.14415 
L 518.395173 101.140166 
L 516.518212 105.550677 
L 515.27 110.259115 
L 514.665351 115.144003 
L 514.696911 120.083158 
L 515.335539 124.95788 
L 516.531476 129.657008 
L 518.216246 134.08067 
L 520.305238 138.143615 
L 522.700854 141.777993 
L 525.296131 144.935486 
L 527.978686 147.588726 
L 530.63485 149.731929 
L 533.153851 151.380743 
L 535.43187 152.571309 
L 537.375846 153.358569 
L 538.906889 153.813883 
L 539.963155 154.022053 
L 540.502118 154.077845 
L 540.502118 154.082155 
L 539.963155 154.137947 
L 538.906889 154.346117 
L 537.375846 154.801431 
L 535.43187 155.588691 
L 533.153851 156.779257 
L 530.63485 158.428071 
L 527.978686 160.571274 
L 525.296131 163.224514 
L 522.700854 166.382007 
L 520.305238 170.016385 
L 518.216246 174.07933 
L 516.531476 178.502992 
L 515.335539 183.20212 
L 514.696911 188.076842 
L 514.665351 193.015997 
L 515.27 197.900885 
L 516.518212 202.609323 
L 518.395173 207.019834 
L 520.864311 211.01585 
L 523.868494 214.489746 
L 527.331968 217.346585 
L 531.162957 219.507425 
L 535.25685 220.912073 
L 539.499846 221.521193 
L 543.772925 221.317676 
L 547.956017 220.30724 
L 551.932199 218.518234 
L 555.591785 216.000642 
L 558.836153 212.824335 
L 561.581172 209.076636 
L 563.760115 204.859268 
L 565.325932 200.284819 
L 566.252829 195.472828 
L 566.537075 190.545654 
L 566.197013 185.624257 
L 565.272288 180.824059 
L 563.822298 176.251022 
L 561.92395 171.998091 
L 559.668771 168.142127 
L 557.15952 164.741437 
L 554.506378 161.833992 
L 551.822894 159.436401 
L 549.221806 157.543661 
L 546.810906 156.129711 
L 544.689087 155.148755 
L 542.942721 154.537305 
L 541.642499 154.216871 
L 540.840845 154.097213 
L 540.57 154.08 
" clip-path="url(#p9827a91ebe)" style="fill: none; stroke: #ff0000; stroke-width: 3; stroke-linecap: square"/>
   </g>
   <g id="patch_6">
    <path d="M 641.77 154.08 
C 641.77 140.790538 639.152266 127.630299 634.066609 115.352437 
C 628.980952 103.074574 621.526275 91.917863 612.129206 82.520794 
C 602.732137 73.123725 591.575426 65.669048 579.297563 60.583391 
C 567.019701 55.497734 553.859462 52.88 540.57 52.88 
C 527.280538 52.88 514.120299 55.497734 501.842437 60.583391 
C 489.564574 65.669048 478.407863 73.123725 469.010794 82.520794 
C 459.613725 91.917863 452.159048 103.074574 447.073391 115.352437 
C 441.987734 127.630299 439.37 140.790538 439.37 154.08 
C 439.37 167.369462 441.987734 180.529701 447.073391 192.807563 
C 452.159048 205.085426 459.613725 216.242137 469.010794 225.639206 
C 478.407863 235.036275 489.564574 242.490952 501.842437 247.576609 
C 514.120299 252.662266 527.280538 255.28 540.57 255.28 
C 553.859462 255.28 567.019701 252.662266 579.297563 247.576609 
C 591.575426 242.490952 602.732137 235.036275 612.129206 225.639206 
C 621.526275 216.242137 628.980952 205.085426 634.066609 192.807563 
C 639.152266 180.529701 641.77 167.369462 641.77 154.08 
" style="fill: none; stroke: #000000; stroke-width: 0.8; stroke-linejoin: miter; stroke-linecap: square"/>
   </g>
   <g id="text_27">
    <!-- s-поляризованное излучение -->
    <g transform="translate(429.627 24.078375) scale(0.144 -0.144)">
     <defs>
      <path id="DejaVuSans-73" d="M 2834 3397 
L 2834 2853 
Q 2591 2978 2328 3040 
Q 2066 3103 1784 3103 
Q 1356 3103 1142 2972 
Q 928 2841 928 2578 
Q 928 2378 1081 2264 
Q 1234 2150 1697 2047 
L 1894 2003 
Q 2506 1872 2764 1633 
Q 3022 1394 3022 966 
Q 3022 478 2636 193 
Q 2250 -91 1575 -91 
Q 1294 -91 989 -36 
Q 684 19 347 128 
L 347 722 
Q 666 556 975 473 
Q 1284 391 1588 391 
Q 1994 391 2212 530 
Q 2431 669 2431 922 
Q 2431 1156 2273 1281 
Q 2116 1406 1581 1522 
L 1381 1569 
Q 847 1681 609 1914 
Q 372 2147 372 2553 
Q 372 3047 722 3315 
Q 1072 3584 1716 3584 
Q 2034 3584 2315 3537 
Q 2597 3491 2834 3397 
z
" transform="scale(0.015625)"/>
     </defs>
     <use xlink:href="#DejaVuSans-73"/>
     <use xlink:href="#DejaVuSans-2d" x="52.099609"/>
     <use xlink:href="#DejaVuSans-43f" x="88.183594"/>
     <use xlink:href="#DejaVuSans-43e" x="153.564453"/>
     <use xlink:href="#DejaVuSans-43b" x="214.746094"/>
     <use xlink:href="#DejaVuSans-44f" x="278.662109"/>
     <use xlink:href="#DejaVuSans-440" x="338.818359"/>
     <use xlink:href="#DejaVuSans-438" x="402.294922"/>
     <use xlink:href="#DejaVuSans-437" x="467.285156"/>
     <use xlink:href="#DejaVuSans-43e" x="520.458984"/>
     <use xlink:href="#DejaVuSans-432" x="581.640625"/>
     <use xlink:href="#DejaVuSans-430" x="640.576172"/>
     <use xlink:href="#DejaVuSans-43d" x="701.855469"/>
     <use xlink:href="#DejaVuSans-43d" x="767.236328"/>
     <use xlink:href="#DejaVuSans-43e" x="832.617188"/>
     <use xlink:href="#DejaVuSans-435" x="893.798828"/>
     <use xlink:href="#DejaVuSans-20" x="955.322266"/>
     <use xlink:href="#DejaVuSans-438" x="987.109375"/>
     <use xlink:href="#DejaVuSans-437" x="1052.099609"/>
     <use xlink:href="#DejaVuSans-43b" x="1105.273438"/>
     <use xlink:href="#DejaVuSans-443" x="1169.189453"/>
     <use xlink:href="#DejaVuSans-447" x="1228.369141"/>
     <use xlink:href="#DejaVuSans-435" x="1287.451172"/>
     <use xlink:href="#DejaVuSans-43d" x="1348.974609"/>
     <use xlink:href="#DejaVuSans-438" x="1414.355469"/>
     <use xlink:href="#DejaVuSans-435" x="1479.345703"/>
    </g>
   </g>
   <g id="legend_2">
    <g id="patch_7">
     <path d="M 558.33 59.88 
L 623.25 59.88 
Q 625.65 59.88 625.65 57.48 
L 625.65 41.04 
Q 625.65 38.64 623.25 38.64 
L 558.33 38.64 
Q 555.93 38.64 555.93 41.04 
L 555.93 57.48 
Q 555.93 59.88 558.33 59.88 
z
" style="fill: #ffffff; opacity: 0.8; stroke: #cccccc; stroke-linejoin: miter"/>
    </g>
    <g id="line2d_28">
     <path d="M 560.73 48.36 
L 572.73 48.36 
L 584.73 48.36 
" style="fill: none; stroke: #ff0000; stroke-width: 3; stroke-linecap: square"/>
    </g>
    <g id="text_28">
     <!-- $D(\varphi)$ -->
     <g transform="translate(594.33 52.56) scale(0.12 -0.12)">
      <use xlink:href="#DejaVuSans-Oblique-44" transform="translate(0 0.125)"/>
      <use xlink:href="#DejaVuSans-28" transform="translate(77.001953 0.125)"/>
      <use xlink:href="#DejaVuSans-Oblique-3c6" transform="translate(116.015625 0.125)"/>
      <use xlink:href="#DejaVuSans-29" transform="translate(181.982422 0.125)"/>
     </g>
    </g>
   </g>
  </g>
 </g>
 <defs>
  <clipPath id="p193ecd32fe">
   <path d="M 288.25 154.08 
C 288.25 140.790538 285.632266 127.630299 280.546609 115.352437 
C 275.460952 103.074574 268.006275 91.917863 258.609206 82.520794 
C 249.212137 73.123725 238.055426 65.669048 225.777563 60.583391 
C 213.499701 55.497734 200.339462 52.88 187.05 52.88 
C 173.760538 52.88 160.600299 55.497734 148.322437 60.583391 
C 136.044574 65.669048 124.887863 73.123725 115.490794 82.520794 
C 106.093725 91.917863 98.639048 103.074574 93.553391 115.352437 
C 88.467734 127.630299 85.85 140.790538 85.85 154.08 
C 85.85 167.369462 88.467734 180.529701 93.553391 192.807563 
C 98.639048 205.085426 106.093725 216.242137 115.490794 225.639206 
C 124.887863 235.036275 136.044574 242.490952 148.322437 247.576609 
C 160.600299 252.662266 173.760538 255.28 187.05 255.28 
C 200.339462 255.28 213.499701 252.662266 225.777563 247.576609 
C 238.055426 242.490952 249.212137 235.036275 258.609206 225.639206 
C 268.006275 216.242137 275.460952 205.085426 280.546609 192.807563 
C 285.632266 180.529701 288.25 167.369462 288.25 154.08 
M 187.05 154.08 
C 187.05 154.08 187.05 154.08 187.05 154.08 
C 187.05 154.08 187.05 154.08 187.05 154.08 
C 187.05 154.08 187.05 154.08 187.05 154.08 
C 187.05 154.08 187.05 154.08 187.05 154.08 
C 187.05 154.08 187.05 154.08 187.05 154.08 
C 187.05 154.08 187.05 154.08 187.05 154.08 
C 187.05 154.08 187.05 154.08 187.05 154.08 
C 187.05 154.08 187.05 154.08 187.05 154.08 
C 187.05 154.08 187.05 154.08 187.05 154.08 
C 187.05 154.08 187.05 154.08 187.05 154.08 
C 187.05 154.08 187.05 154.08 187.05 154.08 
C 187.05 154.08 187.05 154.08 187.05 154.08 
C 187.05 154.08 187.05 154.08 187.05 154.08 
C 187.05 154.08 187.05 154.08 187.05 154.08 
C 187.05 154.08 187.05 154.08 187.05 154.08 
C 187.05 154.08 187.05 154.08 187.05 154.08 
z
"/>
  </clipPath>
  <clipPath id="p9827a91ebe">
   <path d="M 641.77 154.08 
C 641.77 140.790538 639.152266 127.630299 634.066609 115.352437 
C 628.980952 103.074574 621.526275 91.917863 612.129206 82.520794 
C 602.732137 73.123725 591.575426 65.669048 579.297563 60.583391 
C 567.019701 55.497734 553.859462 52.88 540.57 52.88 
C 527.280538 52.88 514.120299 55.497734 501.842437 60.583391 
C 489.564574 65.669048 478.407863 73.123725 469.010794 82.520794 
C 459.613725 91.917863 452.159048 103.074574 447.073391 115.352437 
C 441.987734 127.630299 439.37 140.790538 439.37 154.08 
C 439.37 167.369462 441.987734 180.529701 447.073391 192.807563 
C 452.159048 205.085426 459.613725 216.242137 469.010794 225.639206 
C 478.407863 235.036275 489.564574 242.490952 501.842437 247.576609 
C 514.120299 252.662266 527.280538 255.28 540.57 255.28 
C 553.859462 255.28 567.019701 252.662266 579.297563 247.576609 
C 591.575426 242.490952 602.732137 235.036275 612.129206 225.639206 
C 621.526275 216.242137 628.980952 205.085426 634.066609 192.807563 
C 639.152266 180.529701 641.77 167.369462 641.77 154.08 
M 540.57 154.08 
C 540.57 154.08 540.57 154.08 540.57 154.08 
C 540.57 154.08 540.57 154.08 540.57 154.08 
C 540.57 154.08 540.57 154.08 540.57 154.08 
C 540.57 154.08 540.57 154.08 540.57 154.08 
C 540.57 154.08 540.57 154.08 540.57 154.08 
C 540.57 154.08 540.57 154.08 540.57 154.08 
C 540.57 154.08 540.57 154.08 540.57 154.08 
C 540.57 154.08 540.57 154.08 540.57 154.08 
C 540.57 154.08 540.57 154.08 540.57 154.08 
C 540.57 154.08 540.57 154.08 540.57 154.08 
C 540.57 154.08 540.57 154.08 540.57 154.08 
C 540.57 154.08 540.57 154.08 540.57 154.08 
C 540.57 154.08 540.57 154.08 540.57 154.08 
C 540.57 154.08 540.57 154.08 540.57 154.08 
C 540.57 154.08 540.57 154.08 540.57 154.08 
C 540.57 154.08 540.57 154.08 540.57 154.08 
z
"/>
  </clipPath>
 </defs>
</svg>
