<?xml version="1.0" encoding="utf-8" standalone="no"?>
<!DOCTYPE svg PUBLIC "-//W3C//DTD SVG 1.1//EN"
  "http://www.w3.org/Graphics/SVG/1.1/DTD/svg11.dtd">
<svg xmlns:xlink="http://www.w3.org/1999/xlink" width="720pt" height="288pt" viewBox="0 0 720 288" xmlns="http://www.w3.org/2000/svg" version="1.1">
 <metadata>
  <rdf:RDF xmlns:dc="http://purl.org/dc/elements/1.1/" xmlns:cc="http://creativecommons.org/ns#" xmlns:rdf="http://www.w3.org/1999/02/22-rdf-syntax-ns#">
   <cc:Work>
    <dc:type rdf:resource="http://purl.org/dc/dcmitype/StillImage"/>
    <dc:date>2025-05-23T03:01:27.959025</dc:date>
    <dc:format>image/svg+xml</dc:format>
    <dc:creator>
     <cc:Agent>
      <dc:title>Matplotlib v3.9.2, https://matplotlib.org/</dc:title>
     </cc:Agent>
    </dc:creator>
   </cc:Work>
  </rdf:RDF>
 </metadata>
 <defs>
  <style type="text/css">*{stroke-linejoin: round; stroke-linecap: butt}</style>
 </defs>
 <g id="figure_1">
  <g id="patch_1">
   <path d="M 0 288 
L 720 288 
L 720 0 
L 0 0 
z
" style="fill: #ffffff"/>
  </g>
  <g id="axes_1">
   <g id="patch_2">
    <path d="M 291.2875 152.76 
C 291.2875 138.918999 288.561125 125.212584 283.264403 112.425166 
C 277.967681 99.637749 270.203621 88.018011 260.416555 78.230945 
C 250.629489 68.443879 239.009751 60.679819 226.222334 55.383097 
C 213.434916 50.086375 199.728501 47.36 185.8875 47.36 
C 172.046499 47.36 158.340084 50.086375 145.552666 55.383097 
C 132.765249 60.679819 121.145511 68.443879 111.358445 78.230945 
C 101.571379 88.018011 93.807319 99.637749 88.510597 112.425166 
C 83.213875 125.212584 80.4875 138.918999 80.4875 152.76 
C 80.4875 166.601001 83.213875 180.307416 88.510597 193.094834 
C 93.807319 205.882251 101.571379 217.501989 111.358445 227.289055 
C 121.145511 237.076121 132.765249 244.840181 145.552666 250.136903 
C 158.340084 255.433625 172.046499 258.16 185.8875 258.16 
C 199.728501 258.16 213.434916 255.433625 226.222334 250.136903 
C 239.009751 244.840181 250.629489 237.076121 260.416555 227.289055 
C 270.203621 217.501989 277.967681 205.882251 283.264403 193.094834 
C 288.561125 180.307416 291.2875 166.601001 291.2875 152.76 
M 185.8875 152.76 
C 185.8875 152.76 185.8875 152.76 185.8875 152.76 
C 185.8875 152.76 185.8875 152.76 185.8875 152.76 
C 185.8875 152.76 185.8875 152.76 185.8875 152.76 
C 185.8875 152.76 185.8875 152.76 185.8875 152.76 
C 185.8875 152.76 185.8875 152.76 185.8875 152.76 
C 185.8875 152.76 185.8875 152.76 185.8875 152.76 
C 185.8875 152.76 185.8875 152.76 185.8875 152.76 
C 185.8875 152.76 185.8875 152.76 185.8875 152.76 
C 185.8875 152.76 185.8875 152.76 185.8875 152.76 
C 185.8875 152.76 185.8875 152.76 185.8875 152.76 
C 185.8875 152.76 185.8875 152.76 185.8875 152.76 
C 185.8875 152.76 185.8875 152.76 185.8875 152.76 
C 185.8875 152.76 185.8875 152.76 185.8875 152.76 
C 185.8875 152.76 185.8875 152.76 185.8875 152.76 
C 185.8875 152.76 185.8875 152.76 185.8875 152.76 
C 185.8875 152.76 185.8875 152.76 185.8875 152.76 
z
" style="fill: #ffffff"/>
   </g>
   <g id="matplotlib.axis_1">
    <g id="xtick_1">
     <g id="line2d_1">
      <path d="M 185.8875 152.76 
L 291.2875 152.76 
" clip-path="url(#p53608323a7)" style="fill: none; stroke: #b0b0b0; stroke-width: 0.8; stroke-linecap: square"/>
     </g>
     <g id="text_1">
      <!-- 0° -->
      <g transform="translate(299.60625 155.519375) scale(0.1 -0.1)">
       <defs>
        <path id="DejaVuSans-30" d="M 2034 4250 
Q 1547 4250 1301 3770 
Q 1056 3291 1056 2328 
Q 1056 1369 1301 889 
Q 1547 409 2034 409 
Q 2525 409 2770 889 
Q 3016 1369 3016 2328 
Q 3016 3291 2770 3770 
Q 2525 4250 2034 4250 
z
M 2034 4750 
Q 2819 4750 3233 4129 
Q 3647 3509 3647 2328 
Q 3647 1150 3233 529 
Q 2819 -91 2034 -91 
Q 1250 -91 836 529 
Q 422 1150 422 2328 
Q 422 3509 836 4129 
Q 1250 4750 2034 4750 
z
" transform="scale(0.015625)"/>
        <path id="DejaVuSans-b0" d="M 1600 4347 
Q 1350 4347 1178 4173 
Q 1006 4000 1006 3750 
Q 1006 3503 1178 3333 
Q 1350 3163 1600 3163 
Q 1850 3163 2022 3333 
Q 2194 3503 2194 3750 
Q 2194 3997 2020 4172 
Q 1847 4347 1600 4347 
z
M 1600 4750 
Q 1800 4750 1984 4673 
Q 2169 4597 2303 4453 
Q 2447 4313 2519 4134 
Q 2591 3956 2591 3750 
Q 2591 3338 2302 3052 
Q 2013 2766 1594 2766 
Q 1172 2766 890 3047 
Q 609 3328 609 3750 
Q 609 4169 896 4459 
Q 1184 4750 1600 4750 
z
" transform="scale(0.015625)"/>
       </defs>
       <use xlink:href="#DejaVuSans-30"/>
       <use xlink:href="#DejaVuSans-b0" x="63.623047"/>
      </g>
     </g>
    </g>
    <g id="xtick_2">
     <g id="line2d_2">
      <path d="M 185.8875 152.76 
L 260.416555 78.230945 
" clip-path="url(#p53608323a7)" style="fill: none; stroke: #b0b0b0; stroke-width: 0.8; stroke-linecap: square"/>
     </g>
     <g id="text_2">
      <!-- 45° -->
      <g transform="translate(261.45355 71.090825) scale(0.1 -0.1)">
       <defs>
        <path id="DejaVuSans-34" d="M 2419 4116 
L 825 1625 
L 2419 1625 
L 2419 4116 
z
M 2253 4666 
L 3047 4666 
L 3047 1625 
L 3713 1625 
L 3713 1100 
L 3047 1100 
L 3047 0 
L 2419 0 
L 2419 1100 
L 313 1100 
L 313 1709 
L 2253 4666 
z
" transform="scale(0.015625)"/>
        <path id="DejaVuSans-35" d="M 691 4666 
L 3169 4666 
L 3169 4134 
L 1269 4134 
L 1269 2991 
Q 1406 3038 1543 3061 
Q 1681 3084 1819 3084 
Q 2600 3084 3056 2656 
Q 3513 2228 3513 1497 
Q 3513 744 3044 326 
Q 2575 -91 1722 -91 
Q 1428 -91 1123 -41 
Q 819 9 494 109 
L 494 744 
Q 775 591 1075 516 
Q 1375 441 1709 441 
Q 2250 441 2565 725 
Q 2881 1009 2881 1497 
Q 2881 1984 2565 2268 
Q 2250 2553 1709 2553 
Q 1456 2553 1204 2497 
Q 953 2441 691 2322 
L 691 4666 
z
" transform="scale(0.015625)"/>
       </defs>
       <use xlink:href="#DejaVuSans-34"/>
       <use xlink:href="#DejaVuSans-35" x="63.623047"/>
       <use xlink:href="#DejaVuSans-b0" x="127.246094"/>
      </g>
     </g>
    </g>
    <g id="xtick_3">
     <g id="line2d_3">
      <path d="M 185.8875 152.76 
L 185.8875 47.36 
" clip-path="url(#p53608323a7)" style="fill: none; stroke: #b0b0b0; stroke-width: 0.8; stroke-linecap: square"/>
     </g>
     <g id="text_3">
      <!-- 90° -->
      <g transform="translate(177.025 36.119375) scale(0.1 -0.1)">
       <defs>
        <path id="DejaVuSans-39" d="M 703 97 
L 703 672 
Q 941 559 1184 500 
Q 1428 441 1663 441 
Q 2288 441 2617 861 
Q 2947 1281 2994 2138 
Q 2813 1869 2534 1725 
Q 2256 1581 1919 1581 
Q 1219 1581 811 2004 
Q 403 2428 403 3163 
Q 403 3881 828 4315 
Q 1253 4750 1959 4750 
Q 2769 4750 3195 4129 
Q 3622 3509 3622 2328 
Q 3622 1225 3098 567 
Q 2575 -91 1691 -91 
Q 1453 -91 1209 -44 
Q 966 3 703 97 
z
M 1959 2075 
Q 2384 2075 2632 2365 
Q 2881 2656 2881 3163 
Q 2881 3666 2632 3958 
Q 2384 4250 1959 4250 
Q 1534 4250 1286 3958 
Q 1038 3666 1038 3163 
Q 1038 2656 1286 2365 
Q 1534 2075 1959 2075 
z
" transform="scale(0.015625)"/>
       </defs>
       <use xlink:href="#DejaVuSans-39"/>
       <use xlink:href="#DejaVuSans-30" x="63.623047"/>
       <use xlink:href="#DejaVuSans-b0" x="127.246094"/>
      </g>
     </g>
    </g>
    <g id="xtick_4">
     <g id="line2d_4">
      <path d="M 185.8875 152.76 
L 111.358445 78.230945 
" clip-path="url(#p53608323a7)" style="fill: none; stroke: #b0b0b0; stroke-width: 0.8; stroke-linecap: square"/>
     </g>
     <g id="text_4">
      <!-- 135° -->
      <g transform="translate(89.4152 71.090825) scale(0.1 -0.1)">
       <defs>
        <path id="DejaVuSans-31" d="M 794 531 
L 1825 531 
L 1825 4091 
L 703 3866 
L 703 4441 
L 1819 4666 
L 2450 4666 
L 2450 531 
L 3481 531 
L 3481 0 
L 794 0 
L 794 531 
z
" transform="scale(0.015625)"/>
        <path id="DejaVuSans-33" d="M 2597 2516 
Q 3050 2419 3304 2112 
Q 3559 1806 3559 1356 
Q 3559 666 3084 287 
Q 2609 -91 1734 -91 
Q 1441 -91 1130 -33 
Q 819 25 488 141 
L 488 750 
Q 750 597 1062 519 
Q 1375 441 1716 441 
Q 2309 441 2620 675 
Q 2931 909 2931 1356 
Q 2931 1769 2642 2001 
Q 2353 2234 1838 2234 
L 1294 2234 
L 1294 2753 
L 1863 2753 
Q 2328 2753 2575 2939 
Q 2822 3125 2822 3475 
Q 2822 3834 2567 4026 
Q 2313 4219 1838 4219 
Q 1578 4219 1281 4162 
Q 984 4106 628 3988 
L 628 4550 
Q 988 4650 1302 4700 
Q 1616 4750 1894 4750 
Q 2613 4750 3031 4423 
Q 3450 4097 3450 3541 
Q 3450 3153 3228 2886 
Q 3006 2619 2597 2516 
z
" transform="scale(0.015625)"/>
       </defs>
       <use xlink:href="#DejaVuSans-31"/>
       <use xlink:href="#DejaVuSans-33" x="63.623047"/>
       <use xlink:href="#DejaVuSans-35" x="127.246094"/>
       <use xlink:href="#DejaVuSans-b0" x="190.869141"/>
      </g>
     </g>
    </g>
    <g id="xtick_5">
     <g id="line2d_5">
      <path d="M 185.8875 152.76 
L 80.4875 152.76 
" clip-path="url(#p53608323a7)" style="fill: none; stroke: #b0b0b0; stroke-width: 0.8; stroke-linecap: square"/>
     </g>
     <g id="text_5">
      <!-- 180° -->
      <g transform="translate(54.44375 155.519375) scale(0.1 -0.1)">
       <defs>
        <path id="DejaVuSans-38" d="M 2034 2216 
Q 1584 2216 1326 1975 
Q 1069 1734 1069 1313 
Q 1069 891 1326 650 
Q 1584 409 2034 409 
Q 2484 409 2743 651 
Q 3003 894 3003 1313 
Q 3003 1734 2745 1975 
Q 2488 2216 2034 2216 
z
M 1403 2484 
Q 997 2584 770 2862 
Q 544 3141 544 3541 
Q 544 4100 942 4425 
Q 1341 4750 2034 4750 
Q 2731 4750 3128 4425 
Q 3525 4100 3525 3541 
Q 3525 3141 3298 2862 
Q 3072 2584 2669 2484 
Q 3125 2378 3379 2068 
Q 3634 1759 3634 1313 
Q 3634 634 3220 271 
Q 2806 -91 2034 -91 
Q 1263 -91 848 271 
Q 434 634 434 1313 
Q 434 1759 690 2068 
Q 947 2378 1403 2484 
z
M 1172 3481 
Q 1172 3119 1398 2916 
Q 1625 2713 2034 2713 
Q 2441 2713 2670 2916 
Q 2900 3119 2900 3481 
Q 2900 3844 2670 4047 
Q 2441 4250 2034 4250 
Q 1625 4250 1398 4047 
Q 1172 3844 1172 3481 
z
" transform="scale(0.015625)"/>
       </defs>
       <use xlink:href="#DejaVuSans-31"/>
       <use xlink:href="#DejaVuSans-38" x="63.623047"/>
       <use xlink:href="#DejaVuSans-30" x="127.246094"/>
       <use xlink:href="#DejaVuSans-b0" x="190.869141"/>
      </g>
     </g>
    </g>
    <g id="xtick_6">
     <g id="line2d_6">
      <path d="M 185.8875 152.76 
L 111.358445 227.289055 
" clip-path="url(#p53608323a7)" style="fill: none; stroke: #b0b0b0; stroke-width: 0.8; stroke-linecap: square"/>
     </g>
     <g id="text_6">
      <!-- 225° -->
      <g transform="translate(89.4152 239.947925) scale(0.1 -0.1)">
       <defs>
        <path id="DejaVuSans-32" d="M 1228 531 
L 3431 531 
L 3431 0 
L 469 0 
L 469 531 
Q 828 903 1448 1529 
Q 2069 2156 2228 2338 
Q 2531 2678 2651 2914 
Q 2772 3150 2772 3378 
Q 2772 3750 2511 3984 
Q 2250 4219 1831 4219 
Q 1534 4219 1204 4116 
Q 875 4013 500 3803 
L 500 4441 
Q 881 4594 1212 4672 
Q 1544 4750 1819 4750 
Q 2544 4750 2975 4387 
Q 3406 4025 3406 3419 
Q 3406 3131 3298 2873 
Q 3191 2616 2906 2266 
Q 2828 2175 2409 1742 
Q 1991 1309 1228 531 
z
" transform="scale(0.015625)"/>
       </defs>
       <use xlink:href="#DejaVuSans-32"/>
       <use xlink:href="#DejaVuSans-32" x="63.623047"/>
       <use xlink:href="#DejaVuSans-35" x="127.246094"/>
       <use xlink:href="#DejaVuSans-b0" x="190.869141"/>
      </g>
     </g>
    </g>
    <g id="xtick_7">
     <g id="line2d_7">
      <path d="M 185.8875 152.76 
L 185.8875 258.16 
" clip-path="url(#p53608323a7)" style="fill: none; stroke: #b0b0b0; stroke-width: 0.8; stroke-linecap: square"/>
     </g>
     <g id="text_7">
      <!-- 270° -->
      <g transform="translate(173.84375 274.919375) scale(0.1 -0.1)">
       <defs>
        <path id="DejaVuSans-37" d="M 525 4666 
L 3525 4666 
L 3525 4397 
L 1831 0 
L 1172 0 
L 2766 4134 
L 525 4134 
L 525 4666 
z
" transform="scale(0.015625)"/>
       </defs>
       <use xlink:href="#DejaVuSans-32"/>
       <use xlink:href="#DejaVuSans-37" x="63.623047"/>
       <use xlink:href="#DejaVuSans-30" x="127.246094"/>
       <use xlink:href="#DejaVuSans-b0" x="190.869141"/>
      </g>
     </g>
    </g>
    <g id="xtick_8">
     <g id="line2d_8">
      <path d="M 185.8875 152.76 
L 260.416555 227.289055 
" clip-path="url(#p53608323a7)" style="fill: none; stroke: #b0b0b0; stroke-width: 0.8; stroke-linecap: square"/>
     </g>
     <g id="text_8">
      <!-- 315° -->
      <g transform="translate(258.2723 239.947925) scale(0.1 -0.1)">
       <use xlink:href="#DejaVuSans-33"/>
       <use xlink:href="#DejaVuSans-31" x="63.623047"/>
       <use xlink:href="#DejaVuSans-35" x="127.246094"/>
       <use xlink:href="#DejaVuSans-b0" x="190.869141"/>
      </g>
     </g>
    </g>
   </g>
   <g id="matplotlib.axis_2">
    <g id="ytick_1">
     <g id="line2d_9">
      <path d="M 185.8875 152.76 
C 185.8875 152.76 185.8875 152.76 185.8875 152.76 
C 185.8875 152.76 185.8875 152.76 185.8875 152.76 
C 185.8875 152.76 185.8875 152.76 185.8875 152.76 
C 185.8875 152.76 185.8875 152.76 185.8875 152.76 
C 185.8875 152.76 185.8875 152.76 185.8875 152.76 
C 185.8875 152.76 185.8875 152.76 185.8875 152.76 
C 185.8875 152.76 185.8875 152.76 185.8875 152.76 
C 185.8875 152.76 185.8875 152.76 185.8875 152.76 
C 185.8875 152.76 185.8875 152.76 185.8875 152.76 
C 185.8875 152.76 185.8875 152.76 185.8875 152.76 
C 185.8875 152.76 185.8875 152.76 185.8875 152.76 
C 185.8875 152.76 185.8875 152.76 185.8875 152.76 
C 185.8875 152.76 185.8875 152.76 185.8875 152.76 
C 185.8875 152.76 185.8875 152.76 185.8875 152.76 
C 185.8875 152.76 185.8875 152.76 185.8875 152.76 
C 185.8875 152.76 185.8875 152.76 185.8875 152.76 
" clip-path="url(#p53608323a7)" style="fill: none; stroke: #b0b0b0; stroke-width: 0.8; stroke-linecap: square"/>
     </g>
     <g id="text_9">
      <!-- 0 -->
      <g transform="translate(185.8875 150.680313) scale(0.1 -0.1)">
       <use xlink:href="#DejaVuSans-30"/>
      </g>
     </g>
    </g>
    <g id="ytick_2">
     <g id="line2d_10">
      <path d="M 238.5875 152.76 
C 238.5875 145.839499 237.224312 138.986292 234.575951 132.592583 
C 231.92759 126.198874 228.04556 120.389006 223.152027 115.495473 
C 218.258494 110.60194 212.448626 106.71991 206.054917 104.071549 
C 199.661208 101.423188 192.808001 100.06 185.8875 100.06 
C 178.966999 100.06 172.113792 101.423188 165.720083 104.071549 
C 159.326374 106.71991 153.516506 110.60194 148.622973 115.495473 
C 143.72944 120.389006 139.84741 126.198874 137.199049 132.592583 
C 134.550688 138.986292 133.1875 145.839499 133.1875 152.76 
C 133.1875 159.680501 134.550688 166.533708 137.199049 172.927417 
C 139.84741 179.321126 143.72944 185.130994 148.622973 190.024527 
C 153.516506 194.91806 159.326374 198.80009 165.720083 201.448451 
C 172.113792 204.096812 178.966999 205.46 185.8875 205.46 
C 192.808001 205.46 199.661208 204.096812 206.054917 201.448451 
C 212.448626 198.80009 218.258494 194.91806 223.152027 190.024527 
C 228.04556 185.130994 231.92759 179.321126 234.575951 172.927417 
C 237.224312 166.533708 238.5875 159.680501 238.5875 152.76 
" clip-path="url(#p53608323a7)" style="fill: none; stroke: #b0b0b0; stroke-width: 0.8; stroke-linecap: square"/>
     </g>
     <g id="text_10">
      <!-- 1 -->
      <g transform="translate(234.575951 130.512896) scale(0.1 -0.1)">
       <use xlink:href="#DejaVuSans-31"/>
      </g>
     </g>
    </g>
    <g id="ytick_3">
     <g id="line2d_11">
      <path d="M 291.2875 152.76 
C 291.2875 138.918999 288.561125 125.212584 283.264403 112.425166 
C 277.967681 99.637749 270.203621 88.018011 260.416555 78.230945 
C 250.629489 68.443879 239.009751 60.679819 226.222334 55.383097 
C 213.434916 50.086375 199.728501 47.36 185.8875 47.36 
C 172.046499 47.36 158.340084 50.086375 145.552666 55.383097 
C 132.765249 60.679819 121.145511 68.443879 111.358445 78.230945 
C 101.571379 88.018011 93.807319 99.637749 88.510597 112.425166 
C 83.213875 125.212584 80.4875 138.918999 80.4875 152.76 
C 80.4875 166.601001 83.213875 180.307416 88.510597 193.094834 
C 93.807319 205.882251 101.571379 217.501989 111.358445 227.289055 
C 121.145511 237.076121 132.765249 244.840181 145.552666 250.136903 
C 158.340084 255.433625 172.046499 258.16 185.8875 258.16 
C 199.728501 258.16 213.434916 255.433625 226.222334 250.136903 
C 239.009751 244.840181 250.629489 237.076121 260.416555 227.289055 
C 270.203621 217.501989 277.967681 205.882251 283.264403 193.094834 
C 288.561125 180.307416 291.2875 166.601001 291.2875 152.76 
" clip-path="url(#p53608323a7)" style="fill: none; stroke: #b0b0b0; stroke-width: 0.8; stroke-linecap: square"/>
     </g>
     <g id="text_11">
      <!-- 2 -->
      <g transform="translate(283.264403 110.345479) scale(0.1 -0.1)">
       <use xlink:href="#DejaVuSans-32"/>
      </g>
     </g>
    </g>
   </g>
   <g id="line2d_12">
    <path d="M 224.369058 152.76 
L 226.726266 150.16462 
L 228.952933 147.264025 
L 231.006284 144.064067 
L 232.843795 140.576525 
L 234.424041 136.819063 
L 235.707526 132.81507 
L 236.657492 128.593378 
L 237.240674 124.187861 
L 237.427986 119.636941 
L 237.195137 114.982987 
L 236.523148 110.271646 
L 235.398769 105.551101 
L 233.814784 100.871279 
L 231.770205 96.283037 
L 229.270341 91.837324 
L 226.326753 87.584352 
L 222.957095 83.572787 
L 219.18485 79.848973 
L 215.038954 76.456218 
L 210.55334 73.434132 
L 205.766401 70.818054 
L 200.720381 68.638552 
L 195.460723 66.921029 
L 190.035374 65.685413 
L 184.49407 64.945956 
L 178.887614 64.711126 
L 173.267158 64.983596 
L 167.683507 65.760331 
L 162.186453 67.032747 
L 156.824151 68.786967 
L 151.642544 71.004129 
L 146.68485 73.660762 
L 141.991105 76.729213 
L 137.597778 80.178107 
L 133.537451 83.972838 
L 129.838564 88.07608 
L 126.525235 92.448304 
L 123.617136 97.048301 
L 121.12943 101.833691 
L 119.072769 106.761421 
L 117.453341 111.788252 
L 116.272958 116.871209 
L 115.52919 121.968018 
L 115.215535 127.037508 
L 115.321615 132.039987 
L 115.833403 136.937584 
L 116.733467 141.694572 
L 118.001245 146.277649 
L 119.61332 150.656198 
L 121.54373 154.802523 
L 123.764272 158.692049 
L 126.24484 162.303501 
L 128.953754 165.619054 
L 131.858121 168.624457 
L 134.924192 171.309127 
L 138.117743 173.666208 
L 141.40445 175.692606 
L 144.75029 177.388978 
L 148.121933 178.759692 
L 151.487145 179.812738 
L 154.815185 180.559604 
L 158.077199 181.015095 
L 161.246599 181.197116 
L 164.299427 181.126397 
L 167.214692 180.826174 
L 169.974674 180.321823 
L 172.565189 179.640444 
L 174.975803 178.810414 
L 177.199999 177.860887 
L 179.235267 176.821286 
L 181.083144 175.720754 
L 182.749164 174.587609 
L 184.242742 173.448782 
L 185.576975 172.329283 
L 186.768367 171.251669 
L 187.836469 170.235563 
L 188.803456 169.297209 
L 189.693631 168.449087 
L 190.532868 167.699602 
L 191.348005 167.052844 
L 192.166203 166.508441 
L 193.014273 166.061509 
L 193.917998 165.702694 
L 194.901452 165.418325 
L 195.986346 165.190656 
L 197.191402 164.998227 
L 198.531782 164.816299 
L 200.018587 164.61739 
L 201.658423 164.371885 
L 203.453072 164.048707 
L 205.399253 163.616048 
L 207.488504 163.042123 
L 209.707168 162.295957 
L 212.036503 161.348161 
L 214.452907 160.171699 
L 216.928257 158.742616 
L 219.43036 157.040712 
L 221.923495 155.050155 
L 224.369058 152.76 
" clip-path="url(#p53608323a7)" style="fill: none; stroke: #ff0000; stroke-width: 3; stroke-linecap: square"/>
   </g>
   <g id="line2d_13">
    <path d="M 204.818717 152.76 
L 208.444496 150.496751 
L 212.065689 147.453418 
L 215.506375 143.597808 
L 218.581203 138.937324 
L 221.104492 133.52087 
L 222.899667 127.438614 
L 223.808514 120.81957 
L 223.699726 113.827074 
L 222.476261 106.652372 
L 220.081077 99.506659 
L 216.500924 92.611981 
L 211.76797 86.191506 
L 205.959193 80.459704 
L 199.19357 75.612953 
L 191.62727 71.821088 
L 183.447141 69.220317 
L 174.862874 67.907841 
L 166.098323 67.93841 
L 157.382439 69.322908 
L 148.940325 72.028949 
L 140.984847 75.983354 
L 133.709201 81.07625 
L 127.280725 87.166498 
L 121.836177 94.088073 
L 117.478577 101.657009 
L 114.275618 109.678534 
L 112.25956 117.954038 
L 111.428445 126.287585 
L 111.748421 134.491731 
L 113.156919 142.392507 
L 115.56645 149.833473 
L 118.868757 156.678844 
L 122.93914 162.815733 
L 127.640774 168.155594 
L 132.828919 172.634982 
L 138.35495 176.215732 
L 144.070198 178.884652 
L 149.829598 180.65281 
L 155.495179 181.554434 
L 160.939407 181.645433 
L 166.048386 181.001504 
L 170.72489 179.715781 
L 174.891155 177.895972 
L 178.491324 175.660955 
L 181.493418 173.136817 
L 183.890655 170.452392 
L 185.701973 167.734379 
L 186.971588 165.102203 
L 187.767487 162.662817 
L 188.178778 160.505701 
L 188.31191 158.698325 
L 188.285823 157.282379 
L 188.226197 156.271023 
L 188.259015 155.647417 
L 188.503743 155.36469 
L 189.066453 155.347488 
L 190.033281 155.495098 
L 191.464582 155.686107 
L 193.390169 155.784407 
L 195.805933 155.646325 
L 198.672146 155.128512 
L 201.913598 154.096219 
" clip-path="url(#p53608323a7)" style="fill: none; stroke-dasharray: 11.1,4.8; stroke-dashoffset: 0; stroke: #0000ff; stroke-width: 3"/>
   </g>
   <g id="patch_3">
    <path d="M 291.2875 152.76 
C 291.2875 138.918999 288.561125 125.212584 283.264403 112.425166 
C 277.967681 99.637749 270.203621 88.018011 260.416555 78.230945 
C 250.629489 68.443879 239.009751 60.679819 226.222334 55.383097 
C 213.434916 50.086375 199.728501 47.36 185.8875 47.36 
C 172.046499 47.36 158.340084 50.086375 145.552666 55.383097 
C 132.765249 60.679819 121.145511 68.443879 111.358445 78.230945 
C 101.571379 88.018011 93.807319 99.637749 88.510597 112.425166 
C 83.213875 125.212584 80.4875 138.918999 80.4875 152.76 
C 80.4875 166.601001 83.213875 180.307416 88.510597 193.094834 
C 93.807319 205.882251 101.571379 217.501989 111.358445 227.289055 
C 121.145511 237.076121 132.765249 244.840181 145.552666 250.136903 
C 158.340084 255.433625 172.046499 258.16 185.8875 258.16 
C 199.728501 258.16 213.434916 255.433625 226.222334 250.136903 
C 239.009751 244.840181 250.629489 237.076121 260.416555 227.289055 
C 270.203621 217.501989 277.967681 205.882251 283.264403 193.094834 
C 288.561125 180.307416 291.2875 166.601001 291.2875 152.76 
" style="fill: none; stroke: #000000; stroke-width: 0.8; stroke-linejoin: miter; stroke-linecap: square"/>
   </g>
   <g id="text_12">
    <!-- $\lambda$=700 -->
    <g transform="translate(165.8475 20.025313) scale(0.12 -0.12)">
     <defs>
      <path id="DejaVuSans-Oblique-3bb" d="M 2350 4316 
L 3125 0 
L 2516 0 
L 2038 2588 
L 328 0 
L -281 0 
L 1903 3356 
L 1794 3975 
Q 1725 4369 1391 4369 
L 1091 4369 
L 1184 4863 
L 1550 4856 
Q 2253 4847 2350 4316 
z
" transform="scale(0.015625)"/>
      <path id="DejaVuSans-3d" d="M 678 2906 
L 4684 2906 
L 4684 2381 
L 678 2381 
L 678 2906 
z
M 678 1631 
L 4684 1631 
L 4684 1100 
L 678 1100 
L 678 1631 
z
" transform="scale(0.015625)"/>
     </defs>
     <use xlink:href="#DejaVuSans-Oblique-3bb" transform="translate(0 0.015625)"/>
     <use xlink:href="#DejaVuSans-3d" transform="translate(59.179688 0.015625)"/>
     <use xlink:href="#DejaVuSans-37" transform="translate(142.96875 0.015625)"/>
     <use xlink:href="#DejaVuSans-30" transform="translate(206.591797 0.015625)"/>
     <use xlink:href="#DejaVuSans-30" transform="translate(270.214844 0.015625)"/>
    </g>
   </g>
   <g id="legend_1">
    <g id="patch_4">
     <path d="M 87.4875 253.16 
L 191.2875 253.16 
Q 193.2875 253.16 193.2875 251.16 
L 193.2875 222.76 
Q 193.2875 220.76 191.2875 220.76 
L 87.4875 220.76 
Q 85.4875 220.76 85.4875 222.76 
L 85.4875 251.16 
Q 85.4875 253.16 87.4875 253.16 
z
" style="fill: #ffffff; opacity: 0.8; stroke: #cccccc; stroke-linejoin: miter"/>
    </g>
    <g id="line2d_14">
     <path d="M 89.4875 228.86 
L 99.4875 228.86 
L 109.4875 228.86 
" style="fill: none; stroke: #ff0000; stroke-width: 3; stroke-linecap: square"/>
    </g>
    <g id="text_13">
     <!-- $D(\varphi)$, Теория -->
     <g transform="translate(117.4875 232.36) scale(0.1 -0.1)">
      <defs>
       <path id="DejaVuSans-Oblique-44" d="M 1081 4666 
L 2438 4666 
Q 3519 4666 4070 4208 
Q 4622 3750 4622 2847 
Q 4622 2250 4412 1698 
Q 4203 1147 3834 769 
Q 3463 381 2891 190 
Q 2319 0 1538 0 
L 172 0 
L 1081 4666 
z
M 1613 4147 
L 909 519 
L 1734 519 
Q 2794 519 3375 1128 
Q 3956 1738 3956 2847 
Q 3956 3519 3581 3833 
Q 3206 4147 2406 4147 
L 1613 4147 
z
" transform="scale(0.015625)"/>
       <path id="DejaVuSans-28" d="M 1984 4856 
Q 1566 4138 1362 3434 
Q 1159 2731 1159 2009 
Q 1159 1288 1364 580 
Q 1569 -128 1984 -844 
L 1484 -844 
Q 1016 -109 783 600 
Q 550 1309 550 2009 
Q 550 2706 781 3412 
Q 1013 4119 1484 4856 
L 1984 4856 
z
" transform="scale(0.015625)"/>
       <path id="DejaVuSans-Oblique-3c6" d="M 2969 3034 
Q 2766 3034 2675 2581 
L 2259 438 
Q 2553 438 2916 763 
Q 3244 1053 3375 1750 
Q 3497 2400 3300 2750 
Q 3138 3034 2969 3034 
z
M 3063 3525 
Q 3513 3525 3819 3113 
Q 4147 2672 3981 1750 
Q 3828 903 3291 400 
Q 2784 -75 2159 -75 
L 1916 -1331 
L 1344 -1331 
L 1588 -78 
Q 963 -78 641 400 
Q 309 888 475 1747 
Q 647 2641 1166 3097 
Q 1556 3438 2084 3525 
L 1984 3016 
Q 1766 2944 1538 2700 
Q 1194 2341 1081 1747 
Q 963 1116 1156 756 
Q 1334 434 1688 434 
L 2103 2581 
Q 2288 3525 3063 3525 
z
" transform="scale(0.015625)"/>
       <path id="DejaVuSans-29" d="M 513 4856 
L 1013 4856 
Q 1481 4119 1714 3412 
Q 1947 2706 1947 2009 
Q 1947 1309 1714 600 
Q 1481 -109 1013 -844 
L 513 -844 
Q 928 -128 1133 580 
Q 1338 1288 1338 2009 
Q 1338 2731 1133 3434 
Q 928 4138 513 4856 
z
" transform="scale(0.015625)"/>
       <path id="DejaVuSans-2c" d="M 750 794 
L 1409 794 
L 1409 256 
L 897 -744 
L 494 -744 
L 750 256 
L 750 794 
z
" transform="scale(0.015625)"/>
       <path id="DejaVuSans-20" transform="scale(0.015625)"/>
       <path id="DejaVuSans-422" d="M -19 4666 
L 3928 4666 
L 3928 4134 
L 2272 4134 
L 2272 0 
L 1638 0 
L 1638 4134 
L -19 4134 
L -19 4666 
z
" transform="scale(0.015625)"/>
       <path id="DejaVuSans-435" d="M 3597 1894 
L 3597 1613 
L 953 1613 
Q 991 1019 1311 708 
Q 1631 397 2203 397 
Q 2534 397 2845 478 
Q 3156 559 3463 722 
L 3463 178 
Q 3153 47 2828 -22 
Q 2503 -91 2169 -91 
Q 1331 -91 842 396 
Q 353 884 353 1716 
Q 353 2575 817 3079 
Q 1281 3584 2069 3584 
Q 2775 3584 3186 3129 
Q 3597 2675 3597 1894 
z
M 3022 2063 
Q 3016 2534 2758 2815 
Q 2500 3097 2075 3097 
Q 1594 3097 1305 2825 
Q 1016 2553 972 2059 
L 3022 2063 
z
" transform="scale(0.015625)"/>
       <path id="DejaVuSans-43e" d="M 1959 3097 
Q 1497 3097 1228 2736 
Q 959 2375 959 1747 
Q 959 1119 1226 758 
Q 1494 397 1959 397 
Q 2419 397 2687 759 
Q 2956 1122 2956 1747 
Q 2956 2369 2687 2733 
Q 2419 3097 1959 3097 
z
M 1959 3584 
Q 2709 3584 3137 3096 
Q 3566 2609 3566 1747 
Q 3566 888 3137 398 
Q 2709 -91 1959 -91 
Q 1206 -91 779 398 
Q 353 888 353 1747 
Q 353 2609 779 3096 
Q 1206 3584 1959 3584 
z
" transform="scale(0.015625)"/>
       <path id="DejaVuSans-440" d="M 1159 525 
L 1159 -1331 
L 581 -1331 
L 581 3500 
L 1159 3500 
L 1159 2969 
Q 1341 3281 1617 3432 
Q 1894 3584 2278 3584 
Q 2916 3584 3314 3078 
Q 3713 2572 3713 1747 
Q 3713 922 3314 415 
Q 2916 -91 2278 -91 
Q 1894 -91 1617 61 
Q 1341 213 1159 525 
z
M 3116 1747 
Q 3116 2381 2855 2742 
Q 2594 3103 2138 3103 
Q 1681 3103 1420 2742 
Q 1159 2381 1159 1747 
Q 1159 1113 1420 752 
Q 1681 391 2138 391 
Q 2594 391 2855 752 
Q 3116 1113 3116 1747 
z
" transform="scale(0.015625)"/>
       <path id="DejaVuSans-438" d="M 3578 3500 
L 3578 0 
L 3006 0 
L 3006 2809 
L 1319 0 
L 581 0 
L 581 3500 
L 1153 3500 
L 1153 697 
L 2838 3500 
L 3578 3500 
z
" transform="scale(0.015625)"/>
       <path id="DejaVuSans-44f" d="M 1181 2491 
Q 1181 2231 1381 2084 
Q 1581 1938 1953 1938 
L 2728 1938 
L 2728 3041 
L 1953 3041 
Q 1581 3041 1381 2897 
Q 1181 2753 1181 2491 
z
M 363 0 
L 1431 1534 
Q 1069 1616 828 1830 
Q 588 2044 588 2491 
Q 588 2997 923 3248 
Q 1259 3500 1938 3500 
L 3306 3500 
L 3306 0 
L 2728 0 
L 2728 1478 
L 2013 1478 
L 981 0 
L 363 0 
z
" transform="scale(0.015625)"/>
      </defs>
      <use xlink:href="#DejaVuSans-Oblique-44" transform="translate(0 0.125)"/>
      <use xlink:href="#DejaVuSans-28" transform="translate(77.001953 0.125)"/>
      <use xlink:href="#DejaVuSans-Oblique-3c6" transform="translate(116.015625 0.125)"/>
      <use xlink:href="#DejaVuSans-29" transform="translate(181.982422 0.125)"/>
      <use xlink:href="#DejaVuSans-2c" transform="translate(220.996094 0.125)"/>
      <use xlink:href="#DejaVuSans-20" transform="translate(252.783203 0.125)"/>
      <use xlink:href="#DejaVuSans-422" transform="translate(284.570312 0.125)"/>
      <use xlink:href="#DejaVuSans-435" transform="translate(345.654297 0.125)"/>
      <use xlink:href="#DejaVuSans-43e" transform="translate(407.177734 0.125)"/>
      <use xlink:href="#DejaVuSans-440" transform="translate(468.359375 0.125)"/>
      <use xlink:href="#DejaVuSans-438" transform="translate(531.835938 0.125)"/>
      <use xlink:href="#DejaVuSans-44f" transform="translate(596.826172 0.125)"/>
     </g>
    </g>
    <g id="line2d_15">
     <path d="M 89.4875 243.56 
L 99.4875 243.56 
L 109.4875 243.56 
" style="fill: none; stroke-dasharray: 11.1,4.8; stroke-dashoffset: 0; stroke: #0000ff; stroke-width: 3"/>
    </g>
    <g id="text_14">
     <!-- $D(\varphi)$, COMSOL -->
     <g transform="translate(117.4875 247.06) scale(0.1 -0.1)">
      <defs>
       <path id="DejaVuSans-43" d="M 4122 4306 
L 4122 3641 
Q 3803 3938 3442 4084 
Q 3081 4231 2675 4231 
Q 1875 4231 1450 3742 
Q 1025 3253 1025 2328 
Q 1025 1406 1450 917 
Q 1875 428 2675 428 
Q 3081 428 3442 575 
Q 3803 722 4122 1019 
L 4122 359 
Q 3791 134 3420 21 
Q 3050 -91 2638 -91 
Q 1578 -91 968 557 
Q 359 1206 359 2328 
Q 359 3453 968 4101 
Q 1578 4750 2638 4750 
Q 3056 4750 3426 4639 
Q 3797 4528 4122 4306 
z
" transform="scale(0.015625)"/>
       <path id="DejaVuSans-4f" d="M 2522 4238 
Q 1834 4238 1429 3725 
Q 1025 3213 1025 2328 
Q 1025 1447 1429 934 
Q 1834 422 2522 422 
Q 3209 422 3611 934 
Q 4013 1447 4013 2328 
Q 4013 3213 3611 3725 
Q 3209 4238 2522 4238 
z
M 2522 4750 
Q 3503 4750 4090 4092 
Q 4678 3434 4678 2328 
Q 4678 1225 4090 567 
Q 3503 -91 2522 -91 
Q 1538 -91 948 565 
Q 359 1222 359 2328 
Q 359 3434 948 4092 
Q 1538 4750 2522 4750 
z
" transform="scale(0.015625)"/>
       <path id="DejaVuSans-4d" d="M 628 4666 
L 1569 4666 
L 2759 1491 
L 3956 4666 
L 4897 4666 
L 4897 0 
L 4281 0 
L 4281 4097 
L 3078 897 
L 2444 897 
L 1241 4097 
L 1241 0 
L 628 0 
L 628 4666 
z
" transform="scale(0.015625)"/>
       <path id="DejaVuSans-53" d="M 3425 4513 
L 3425 3897 
Q 3066 4069 2747 4153 
Q 2428 4238 2131 4238 
Q 1616 4238 1336 4038 
Q 1056 3838 1056 3469 
Q 1056 3159 1242 3001 
Q 1428 2844 1947 2747 
L 2328 2669 
Q 3034 2534 3370 2195 
Q 3706 1856 3706 1288 
Q 3706 609 3251 259 
Q 2797 -91 1919 -91 
Q 1588 -91 1214 -16 
Q 841 59 441 206 
L 441 856 
Q 825 641 1194 531 
Q 1563 422 1919 422 
Q 2459 422 2753 634 
Q 3047 847 3047 1241 
Q 3047 1584 2836 1778 
Q 2625 1972 2144 2069 
L 1759 2144 
Q 1053 2284 737 2584 
Q 422 2884 422 3419 
Q 422 4038 858 4394 
Q 1294 4750 2059 4750 
Q 2388 4750 2728 4690 
Q 3069 4631 3425 4513 
z
" transform="scale(0.015625)"/>
       <path id="DejaVuSans-4c" d="M 628 4666 
L 1259 4666 
L 1259 531 
L 3531 531 
L 3531 0 
L 628 0 
L 628 4666 
z
" transform="scale(0.015625)"/>
      </defs>
      <use xlink:href="#DejaVuSans-Oblique-44" transform="translate(0 0.125)"/>
      <use xlink:href="#DejaVuSans-28" transform="translate(77.001953 0.125)"/>
      <use xlink:href="#DejaVuSans-Oblique-3c6" transform="translate(116.015625 0.125)"/>
      <use xlink:href="#DejaVuSans-29" transform="translate(181.982422 0.125)"/>
      <use xlink:href="#DejaVuSans-2c" transform="translate(220.996094 0.125)"/>
      <use xlink:href="#DejaVuSans-20" transform="translate(252.783203 0.125)"/>
      <use xlink:href="#DejaVuSans-43" transform="translate(284.570312 0.125)"/>
      <use xlink:href="#DejaVuSans-4f" transform="translate(354.394531 0.125)"/>
      <use xlink:href="#DejaVuSans-4d" transform="translate(433.105469 0.125)"/>
      <use xlink:href="#DejaVuSans-53" transform="translate(519.384766 0.125)"/>
      <use xlink:href="#DejaVuSans-4f" transform="translate(582.861328 0.125)"/>
      <use xlink:href="#DejaVuSans-4c" transform="translate(661.572266 0.125)"/>
     </g>
    </g>
   </g>
  </g>
  <g id="axes_2">
   <g id="patch_5">
    <path d="M 645.8875 152.76 
C 645.8875 138.918999 643.161125 125.212584 637.864403 112.425166 
C 632.567681 99.637749 624.803621 88.018011 615.016555 78.230945 
C 605.229489 68.443879 593.609751 60.679819 580.822334 55.383097 
C 568.034916 50.086375 554.328501 47.36 540.4875 47.36 
C 526.646499 47.36 512.940084 50.086375 500.152666 55.383097 
C 487.365249 60.679819 475.745511 68.443879 465.958445 78.230945 
C 456.171379 88.018011 448.407319 99.637749 443.110597 112.425166 
C 437.813875 125.212584 435.0875 138.918999 435.0875 152.76 
C 435.0875 166.601001 437.813875 180.307416 443.110597 193.094834 
C 448.407319 205.882251 456.171379 217.501989 465.958445 227.289055 
C 475.745511 237.076121 487.365249 244.840181 500.152666 250.136903 
C 512.940084 255.433625 526.646499 258.16 540.4875 258.16 
C 554.328501 258.16 568.034916 255.433625 580.822334 250.136903 
C 593.609751 244.840181 605.229489 237.076121 615.016555 227.289055 
C 624.803621 217.501989 632.567681 205.882251 637.864403 193.094834 
C 643.161125 180.307416 645.8875 166.601001 645.8875 152.76 
M 540.4875 152.76 
C 540.4875 152.76 540.4875 152.76 540.4875 152.76 
C 540.4875 152.76 540.4875 152.76 540.4875 152.76 
C 540.4875 152.76 540.4875 152.76 540.4875 152.76 
C 540.4875 152.76 540.4875 152.76 540.4875 152.76 
C 540.4875 152.76 540.4875 152.76 540.4875 152.76 
C 540.4875 152.76 540.4875 152.76 540.4875 152.76 
C 540.4875 152.76 540.4875 152.76 540.4875 152.76 
C 540.4875 152.76 540.4875 152.76 540.4875 152.76 
C 540.4875 152.76 540.4875 152.76 540.4875 152.76 
C 540.4875 152.76 540.4875 152.76 540.4875 152.76 
C 540.4875 152.76 540.4875 152.76 540.4875 152.76 
C 540.4875 152.76 540.4875 152.76 540.4875 152.76 
C 540.4875 152.76 540.4875 152.76 540.4875 152.76 
C 540.4875 152.76 540.4875 152.76 540.4875 152.76 
C 540.4875 152.76 540.4875 152.76 540.4875 152.76 
C 540.4875 152.76 540.4875 152.76 540.4875 152.76 
z
" style="fill: #ffffff"/>
   </g>
   <g id="matplotlib.axis_3">
    <g id="xtick_9">
     <g id="line2d_16">
      <path d="M 540.4875 152.76 
L 645.8875 152.76 
" clip-path="url(#p8b8e988797)" style="fill: none; stroke: #b0b0b0; stroke-width: 0.8; stroke-linecap: square"/>
     </g>
     <g id="text_15">
      <!-- 0° -->
      <g transform="translate(654.20625 155.519375) scale(0.1 -0.1)">
       <use xlink:href="#DejaVuSans-30"/>
       <use xlink:href="#DejaVuSans-b0" x="63.623047"/>
      </g>
     </g>
    </g>
    <g id="xtick_10">
     <g id="line2d_17">
      <path d="M 540.4875 152.76 
L 615.016555 78.230945 
" clip-path="url(#p8b8e988797)" style="fill: none; stroke: #b0b0b0; stroke-width: 0.8; stroke-linecap: square"/>
     </g>
     <g id="text_16">
      <!-- 45° -->
      <g transform="translate(616.05355 71.090825) scale(0.1 -0.1)">
       <use xlink:href="#DejaVuSans-34"/>
       <use xlink:href="#DejaVuSans-35" x="63.623047"/>
       <use xlink:href="#DejaVuSans-b0" x="127.246094"/>
      </g>
     </g>
    </g>
    <g id="xtick_11">
     <g id="line2d_18">
      <path d="M 540.4875 152.76 
L 540.4875 47.36 
" clip-path="url(#p8b8e988797)" style="fill: none; stroke: #b0b0b0; stroke-width: 0.8; stroke-linecap: square"/>
     </g>
     <g id="text_17">
      <!-- 90° -->
      <g transform="translate(531.625 36.119375) scale(0.1 -0.1)">
       <use xlink:href="#DejaVuSans-39"/>
       <use xlink:href="#DejaVuSans-30" x="63.623047"/>
       <use xlink:href="#DejaVuSans-b0" x="127.246094"/>
      </g>
     </g>
    </g>
    <g id="xtick_12">
     <g id="line2d_19">
      <path d="M 540.4875 152.76 
L 465.958445 78.230945 
" clip-path="url(#p8b8e988797)" style="fill: none; stroke: #b0b0b0; stroke-width: 0.8; stroke-linecap: square"/>
     </g>
     <g id="text_18">
      <!-- 135° -->
      <g transform="translate(444.0152 71.090825) scale(0.1 -0.1)">
       <use xlink:href="#DejaVuSans-31"/>
       <use xlink:href="#DejaVuSans-33" x="63.623047"/>
       <use xlink:href="#DejaVuSans-35" x="127.246094"/>
       <use xlink:href="#DejaVuSans-b0" x="190.869141"/>
      </g>
     </g>
    </g>
    <g id="xtick_13">
     <g id="line2d_20">
      <path d="M 540.4875 152.76 
L 435.0875 152.76 
" clip-path="url(#p8b8e988797)" style="fill: none; stroke: #b0b0b0; stroke-width: 0.8; stroke-linecap: square"/>
     </g>
     <g id="text_19">
      <!-- 180° -->
      <g transform="translate(409.04375 155.519375) scale(0.1 -0.1)">
       <use xlink:href="#DejaVuSans-31"/>
       <use xlink:href="#DejaVuSans-38" x="63.623047"/>
       <use xlink:href="#DejaVuSans-30" x="127.246094"/>
       <use xlink:href="#DejaVuSans-b0" x="190.869141"/>
      </g>
     </g>
    </g>
    <g id="xtick_14">
     <g id="line2d_21">
      <path d="M 540.4875 152.76 
L 465.958445 227.289055 
" clip-path="url(#p8b8e988797)" style="fill: none; stroke: #b0b0b0; stroke-width: 0.8; stroke-linecap: square"/>
     </g>
     <g id="text_20">
      <!-- 225° -->
      <g transform="translate(444.0152 239.947925) scale(0.1 -0.1)">
       <use xlink:href="#DejaVuSans-32"/>
       <use xlink:href="#DejaVuSans-32" x="63.623047"/>
       <use xlink:href="#DejaVuSans-35" x="127.246094"/>
       <use xlink:href="#DejaVuSans-b0" x="190.869141"/>
      </g>
     </g>
    </g>
    <g id="xtick_15">
     <g id="line2d_22">
      <path d="M 540.4875 152.76 
L 540.4875 258.16 
" clip-path="url(#p8b8e988797)" style="fill: none; stroke: #b0b0b0; stroke-width: 0.8; stroke-linecap: square"/>
     </g>
     <g id="text_21">
      <!-- 270° -->
      <g transform="translate(528.44375 274.919375) scale(0.1 -0.1)">
       <use xlink:href="#DejaVuSans-32"/>
       <use xlink:href="#DejaVuSans-37" x="63.623047"/>
       <use xlink:href="#DejaVuSans-30" x="127.246094"/>
       <use xlink:href="#DejaVuSans-b0" x="190.869141"/>
      </g>
     </g>
    </g>
    <g id="xtick_16">
     <g id="line2d_23">
      <path d="M 540.4875 152.76 
L 615.016555 227.289055 
" clip-path="url(#p8b8e988797)" style="fill: none; stroke: #b0b0b0; stroke-width: 0.8; stroke-linecap: square"/>
     </g>
     <g id="text_22">
      <!-- 315° -->
      <g transform="translate(612.8723 239.947925) scale(0.1 -0.1)">
       <use xlink:href="#DejaVuSans-33"/>
       <use xlink:href="#DejaVuSans-31" x="63.623047"/>
       <use xlink:href="#DejaVuSans-35" x="127.246094"/>
       <use xlink:href="#DejaVuSans-b0" x="190.869141"/>
      </g>
     </g>
    </g>
   </g>
   <g id="matplotlib.axis_4">
    <g id="ytick_4">
     <g id="line2d_24">
      <path d="M 540.4875 152.76 
C 540.4875 152.76 540.4875 152.76 540.4875 152.76 
C 540.4875 152.76 540.4875 152.76 540.4875 152.76 
C 540.4875 152.76 540.4875 152.76 540.4875 152.76 
C 540.4875 152.76 540.4875 152.76 540.4875 152.76 
C 540.4875 152.76 540.4875 152.76 540.4875 152.76 
C 540.4875 152.76 540.4875 152.76 540.4875 152.76 
C 540.4875 152.76 540.4875 152.76 540.4875 152.76 
C 540.4875 152.76 540.4875 152.76 540.4875 152.76 
C 540.4875 152.76 540.4875 152.76 540.4875 152.76 
C 540.4875 152.76 540.4875 152.76 540.4875 152.76 
C 540.4875 152.76 540.4875 152.76 540.4875 152.76 
C 540.4875 152.76 540.4875 152.76 540.4875 152.76 
C 540.4875 152.76 540.4875 152.76 540.4875 152.76 
C 540.4875 152.76 540.4875 152.76 540.4875 152.76 
C 540.4875 152.76 540.4875 152.76 540.4875 152.76 
C 540.4875 152.76 540.4875 152.76 540.4875 152.76 
" clip-path="url(#p8b8e988797)" style="fill: none; stroke: #b0b0b0; stroke-width: 0.8; stroke-linecap: square"/>
     </g>
     <g id="text_23">
      <!-- 0 -->
      <g transform="translate(540.4875 150.680313) scale(0.1 -0.1)">
       <use xlink:href="#DejaVuSans-30"/>
      </g>
     </g>
    </g>
    <g id="ytick_5">
     <g id="line2d_25">
      <path d="M 593.1875 152.76 
C 593.1875 145.839499 591.824312 138.986292 589.175951 132.592583 
C 586.52759 126.198874 582.64556 120.389006 577.752027 115.495473 
C 572.858494 110.60194 567.048626 106.71991 560.654917 104.071549 
C 554.261208 101.423188 547.408001 100.06 540.4875 100.06 
C 533.566999 100.06 526.713792 101.423188 520.320083 104.071549 
C 513.926374 106.71991 508.116506 110.60194 503.222973 115.495473 
C 498.32944 120.389006 494.44741 126.198874 491.799049 132.592583 
C 489.150688 138.986292 487.7875 145.839499 487.7875 152.76 
C 487.7875 159.680501 489.150688 166.533708 491.799049 172.927417 
C 494.44741 179.321126 498.32944 185.130994 503.222973 190.024527 
C 508.116506 194.91806 513.926374 198.80009 520.320083 201.448451 
C 526.713792 204.096812 533.566999 205.46 540.4875 205.46 
C 547.408001 205.46 554.261208 204.096812 560.654917 201.448451 
C 567.048626 198.80009 572.858494 194.91806 577.752027 190.024527 
C 582.64556 185.130994 586.52759 179.321126 589.175951 172.927417 
C 591.824312 166.533708 593.1875 159.680501 593.1875 152.76 
" clip-path="url(#p8b8e988797)" style="fill: none; stroke: #b0b0b0; stroke-width: 0.8; stroke-linecap: square"/>
     </g>
     <g id="text_24">
      <!-- 1 -->
      <g transform="translate(589.175951 130.512896) scale(0.1 -0.1)">
       <use xlink:href="#DejaVuSans-31"/>
      </g>
     </g>
    </g>
    <g id="ytick_6">
     <g id="line2d_26">
      <path d="M 645.8875 152.76 
C 645.8875 138.918999 643.161125 125.212584 637.864403 112.425166 
C 632.567681 99.637749 624.803621 88.018011 615.016555 78.230945 
C 605.229489 68.443879 593.609751 60.679819 580.822334 55.383097 
C 568.034916 50.086375 554.328501 47.36 540.4875 47.36 
C 526.646499 47.36 512.940084 50.086375 500.152666 55.383097 
C 487.365249 60.679819 475.745511 68.443879 465.958445 78.230945 
C 456.171379 88.018011 448.407319 99.637749 443.110597 112.425166 
C 437.813875 125.212584 435.0875 138.918999 435.0875 152.76 
C 435.0875 166.601001 437.813875 180.307416 443.110597 193.094834 
C 448.407319 205.882251 456.171379 217.501989 465.958445 227.289055 
C 475.745511 237.076121 487.365249 244.840181 500.152666 250.136903 
C 512.940084 255.433625 526.646499 258.16 540.4875 258.16 
C 554.328501 258.16 568.034916 255.433625 580.822334 250.136903 
C 593.609751 244.840181 605.229489 237.076121 615.016555 227.289055 
C 624.803621 217.501989 632.567681 205.882251 637.864403 193.094834 
C 643.161125 180.307416 645.8875 166.601001 645.8875 152.76 
" clip-path="url(#p8b8e988797)" style="fill: none; stroke: #b0b0b0; stroke-width: 0.8; stroke-linecap: square"/>
     </g>
     <g id="text_25">
      <!-- 2 -->
      <g transform="translate(637.864403 110.345479) scale(0.1 -0.1)">
       <use xlink:href="#DejaVuSans-32"/>
      </g>
     </g>
    </g>
   </g>
   <g id="line2d_27">
    <path d="M 620.266755 152.76 
L 620.290785 147.688352 
L 619.887464 142.627042 
L 619.06053 137.61629 
L 617.817805 132.695558 
L 616.171054 127.903124 
L 614.135798 123.275669 
L 611.731086 118.847905 
L 608.979234 114.652223 
L 605.905528 110.718386 
L 602.537904 107.073255 
L 598.906603 103.740552 
L 595.043807 100.740666 
L 590.983265 98.0905 
L 586.759906 95.803355 
L 582.409447 93.888862 
L 577.968003 92.352947 
L 573.471692 91.197841 
L 568.956251 90.42213 
L 564.456662 90.020841 
L 560.006784 89.985568 
L 555.639009 90.30463 
L 551.38393 90.963273 
L 547.270039 91.943891 
L 543.32344 93.226296 
L 539.567603 94.787997 
L 536.02314 96.604524 
L 532.707623 98.649764 
L 529.635435 100.896317 
L 526.817665 103.315879 
L 524.262043 105.87962 
L 521.972923 108.558588 
L 519.951308 111.324099 
L 518.194929 114.148134 
L 516.698364 117.003727 
L 515.453213 119.865331 
L 514.448307 122.70917 
L 513.669978 125.513562 
L 513.102351 128.259209 
L 512.727693 130.929446 
L 512.526776 133.510449 
L 512.479283 135.991391 
L 512.564225 138.364551 
L 512.760376 140.625355 
L 513.046711 142.77237 
L 513.402847 144.807228 
L 513.809468 146.734501 
L 514.248734 148.561501 
L 514.704663 150.298038 
L 515.163472 151.956116 
L 515.613884 153.549586 
L 516.047373 155.093749 
L 516.458364 156.604934 
L 516.844357 158.100039 
L 517.205997 159.596066 
L 517.547072 161.109633 
L 517.874434 162.656501 
L 518.197861 164.251108 
L 518.529842 165.90612 
L 518.885303 167.632025 
L 519.281275 169.43676 
L 519.736498 171.32539 
L 520.270991 173.299849 
L 520.905581 175.358739 
L 521.661402 177.497204 
L 522.559377 179.706875 
L 523.619699 181.975889 
L 524.861308 184.288987 
L 526.301395 186.627686 
L 527.954918 188.970517 
L 529.834172 191.293341 
L 531.948389 193.569718 
L 534.303404 195.771333 
L 536.901377 197.868464 
L 539.740587 199.830498 
L 542.815296 201.626455 
L 546.115689 203.225546 
L 549.627888 204.597719 
L 553.334053 205.714211 
L 557.212538 206.548076 
L 561.238138 207.074688 
L 565.38239 207.272205 
L 569.613936 207.121988 
L 573.898939 206.608972 
L 578.201544 205.721965 
L 582.484374 204.453898 
L 586.709045 202.801994 
L 590.836711 200.767876 
L 594.828598 198.357595 
L 598.646548 195.581599 
L 602.253542 192.454625 
L 605.614207 188.995527 
L 608.695287 185.227049 
L 611.466082 181.175538 
L 613.898844 176.87061 
L 615.969122 172.344775 
L 617.656058 167.63302 
L 618.942626 162.772378 
L 619.815815 157.801463 
L 620.266755 152.76 
" clip-path="url(#p8b8e988797)" style="fill: none; stroke: #ff0000; stroke-width: 3; stroke-linecap: square"/>
   </g>
   <g id="line2d_28">
    <path d="M 620.07722 152.76 
L 618.915424 144.89096 
L 616.642004 137.322718 
L 613.335395 130.225505 
L 609.102214 123.750164 
L 604.072375 118.023424 
L 598.393461 113.144401 
L 592.224632 109.182415 
L 585.730413 106.176152 
L 579.074625 104.134117 
L 572.414749 103.036256 
L 565.896918 102.836601 
L 559.651722 103.466715 
L 553.790912 104.839748 
L 548.405069 106.854853 
L 543.562242 109.401769 
L 539.307493 112.365376 
L 535.6633 115.630051 
L 532.630698 119.083692 
L 530.19106 122.621315 
L 528.308383 126.148145 
L 526.93199 129.582158 
L 525.999505 132.856058 
L 525.440033 135.91867 
L 525.177437 138.735764 
L 525.133638 141.290323 
L 525.231862 143.58226 
L 525.399773 145.627614 
L 525.572419 147.457244 
L 525.694921 149.115029 
L 525.724849 150.655635 
L 525.634188 152.141855 
L 525.41085 153.64159 
L 525.059632 155.224536 
L 524.602571 156.958655 
L 524.078613 158.906534 
L 523.542583 161.121753 
L 523.063405 163.645408 
L 522.721586 166.502931 
L 522.60601 169.701364 
L 522.810099 173.227271 
L 523.427471 177.045403 
L 524.547233 181.098284 
L 526.249113 185.306787 
L 528.598631 189.571789 
L 531.642565 193.776899 
L 535.404958 197.792215 
L 539.88389 201.479019 
L 545.049275 204.695221 
L 550.841827 207.301348 
L 557.173359 209.166797 
L 563.928465 210.176052 
L 570.967588 210.234531 
L 578.131381 209.273758 
L 585.246196 207.25554 
L 592.130462 204.17491 
L 598.601657 200.061628 
L 604.483518 194.980129 
L 609.613133 189.027885 
L 613.847544 182.332234 
L 617.069516 175.045841 
L 619.192173 167.341003 
L 620.162281 159.403101 
" clip-path="url(#p8b8e988797)" style="fill: none; stroke-dasharray: 11.1,4.8; stroke-dashoffset: 0; stroke: #0000ff; stroke-width: 3"/>
   </g>
   <g id="patch_6">
    <path d="M 645.8875 152.76 
C 645.8875 138.918999 643.161125 125.212584 637.864403 112.425166 
C 632.567681 99.637749 624.803621 88.018011 615.016555 78.230945 
C 605.229489 68.443879 593.609751 60.679819 580.822334 55.383097 
C 568.034916 50.086375 554.328501 47.36 540.4875 47.36 
C 526.646499 47.36 512.940084 50.086375 500.152666 55.383097 
C 487.365249 60.679819 475.745511 68.443879 465.958445 78.230945 
C 456.171379 88.018011 448.407319 99.637749 443.110597 112.425166 
C 437.813875 125.212584 435.0875 138.918999 435.0875 152.76 
C 435.0875 166.601001 437.813875 180.307416 443.110597 193.094834 
C 448.407319 205.882251 456.171379 217.501989 465.958445 227.289055 
C 475.745511 237.076121 487.365249 244.840181 500.152666 250.136903 
C 512.940084 255.433625 526.646499 258.16 540.4875 258.16 
C 554.328501 258.16 568.034916 255.433625 580.822334 250.136903 
C 593.609751 244.840181 605.229489 237.076121 615.016555 227.289055 
C 624.803621 217.501989 632.567681 205.882251 637.864403 193.094834 
C 643.161125 180.307416 645.8875 166.601001 645.8875 152.76 
" style="fill: none; stroke: #000000; stroke-width: 0.8; stroke-linejoin: miter; stroke-linecap: square"/>
   </g>
   <g id="text_26">
    <!-- $\lambda$=800 -->
    <g transform="translate(520.4475 20.025313) scale(0.12 -0.12)">
     <use xlink:href="#DejaVuSans-Oblique-3bb" transform="translate(0 0.015625)"/>
     <use xlink:href="#DejaVuSans-3d" transform="translate(59.179688 0.015625)"/>
     <use xlink:href="#DejaVuSans-38" transform="translate(142.96875 0.015625)"/>
     <use xlink:href="#DejaVuSans-30" transform="translate(206.591797 0.015625)"/>
     <use xlink:href="#DejaVuSans-30" transform="translate(270.214844 0.015625)"/>
    </g>
   </g>
   <g id="legend_2">
    <g id="patch_7">
     <path d="M 535.0875 84.76 
L 638.8875 84.76 
Q 640.8875 84.76 640.8875 82.76 
L 640.8875 54.36 
Q 640.8875 52.36 638.8875 52.36 
L 535.0875 52.36 
Q 533.0875 52.36 533.0875 54.36 
L 533.0875 82.76 
Q 533.0875 84.76 535.0875 84.76 
z
" style="fill: #ffffff; opacity: 0.8; stroke: #cccccc; stroke-linejoin: miter"/>
    </g>
    <g id="line2d_29">
     <path d="M 537.0875 60.46 
L 547.0875 60.46 
L 557.0875 60.46 
" style="fill: none; stroke: #ff0000; stroke-width: 3; stroke-linecap: square"/>
    </g>
    <g id="text_27">
     <!-- $D(\varphi)$, Теория -->
     <g transform="translate(565.0875 63.96) scale(0.1 -0.1)">
      <use xlink:href="#DejaVuSans-Oblique-44" transform="translate(0 0.125)"/>
      <use xlink:href="#DejaVuSans-28" transform="translate(77.001953 0.125)"/>
      <use xlink:href="#DejaVuSans-Oblique-3c6" transform="translate(116.015625 0.125)"/>
      <use xlink:href="#DejaVuSans-29" transform="translate(181.982422 0.125)"/>
      <use xlink:href="#DejaVuSans-2c" transform="translate(220.996094 0.125)"/>
      <use xlink:href="#DejaVuSans-20" transform="translate(252.783203 0.125)"/>
      <use xlink:href="#DejaVuSans-422" transform="translate(284.570312 0.125)"/>
      <use xlink:href="#DejaVuSans-435" transform="translate(345.654297 0.125)"/>
      <use xlink:href="#DejaVuSans-43e" transform="translate(407.177734 0.125)"/>
      <use xlink:href="#DejaVuSans-440" transform="translate(468.359375 0.125)"/>
      <use xlink:href="#DejaVuSans-438" transform="translate(531.835938 0.125)"/>
      <use xlink:href="#DejaVuSans-44f" transform="translate(596.826172 0.125)"/>
     </g>
    </g>
    <g id="line2d_30">
     <path d="M 537.0875 75.16 
L 547.0875 75.16 
L 557.0875 75.16 
" style="fill: none; stroke-dasharray: 11.1,4.8; stroke-dashoffset: 0; stroke: #0000ff; stroke-width: 3"/>
    </g>
    <g id="text_28">
     <!-- $D(\varphi)$, COMSOL -->
     <g transform="translate(565.0875 78.66) scale(0.1 -0.1)">
      <use xlink:href="#DejaVuSans-Oblique-44" transform="translate(0 0.125)"/>
      <use xlink:href="#DejaVuSans-28" transform="translate(77.001953 0.125)"/>
      <use xlink:href="#DejaVuSans-Oblique-3c6" transform="translate(116.015625 0.125)"/>
      <use xlink:href="#DejaVuSans-29" transform="translate(181.982422 0.125)"/>
      <use xlink:href="#DejaVuSans-2c" transform="translate(220.996094 0.125)"/>
      <use xlink:href="#DejaVuSans-20" transform="translate(252.783203 0.125)"/>
      <use xlink:href="#DejaVuSans-43" transform="translate(284.570312 0.125)"/>
      <use xlink:href="#DejaVuSans-4f" transform="translate(354.394531 0.125)"/>
      <use xlink:href="#DejaVuSans-4d" transform="translate(433.105469 0.125)"/>
      <use xlink:href="#DejaVuSans-53" transform="translate(519.384766 0.125)"/>
      <use xlink:href="#DejaVuSans-4f" transform="translate(582.861328 0.125)"/>
      <use xlink:href="#DejaVuSans-4c" transform="translate(661.572266 0.125)"/>
     </g>
    </g>
   </g>
  </g>
 </g>
 <defs>
  <clipPath id="p53608323a7">
   <path d="M 291.2875 152.76 
C 291.2875 138.918999 288.561125 125.212584 283.264403 112.425166 
C 277.967681 99.637749 270.203621 88.018011 260.416555 78.230945 
C 250.629489 68.443879 239.009751 60.679819 226.222334 55.383097 
C 213.434916 50.086375 199.728501 47.36 185.8875 47.36 
C 172.046499 47.36 158.340084 50.086375 145.552666 55.383097 
C 132.765249 60.679819 121.145511 68.443879 111.358445 78.230945 
C 101.571379 88.018011 93.807319 99.637749 88.510597 112.425166 
C 83.213875 125.212584 80.4875 138.918999 80.4875 152.76 
C 80.4875 166.601001 83.213875 180.307416 88.510597 193.094834 
C 93.807319 205.882251 101.571379 217.501989 111.358445 227.289055 
C 121.145511 237.076121 132.765249 244.840181 145.552666 250.136903 
C 158.340084 255.433625 172.046499 258.16 185.8875 258.16 
C 199.728501 258.16 213.434916 255.433625 226.222334 250.136903 
C 239.009751 244.840181 250.629489 237.076121 260.416555 227.289055 
C 270.203621 217.501989 277.967681 205.882251 283.264403 193.094834 
C 288.561125 180.307416 291.2875 166.601001 291.2875 152.76 
M 185.8875 152.76 
C 185.8875 152.76 185.8875 152.76 185.8875 152.76 
C 185.8875 152.76 185.8875 152.76 185.8875 152.76 
C 185.8875 152.76 185.8875 152.76 185.8875 152.76 
C 185.8875 152.76 185.8875 152.76 185.8875 152.76 
C 185.8875 152.76 185.8875 152.76 185.8875 152.76 
C 185.8875 152.76 185.8875 152.76 185.8875 152.76 
C 185.8875 152.76 185.8875 152.76 185.8875 152.76 
C 185.8875 152.76 185.8875 152.76 185.8875 152.76 
C 185.8875 152.76 185.8875 152.76 185.8875 152.76 
C 185.8875 152.76 185.8875 152.76 185.8875 152.76 
C 185.8875 152.76 185.8875 152.76 185.8875 152.76 
C 185.8875 152.76 185.8875 152.76 185.8875 152.76 
C 185.8875 152.76 185.8875 152.76 185.8875 152.76 
C 185.8875 152.76 185.8875 152.76 185.8875 152.76 
C 185.8875 152.76 185.8875 152.76 185.8875 152.76 
C 185.8875 152.76 185.8875 152.76 185.8875 152.76 
z
"/>
  </clipPath>
  <clipPath id="p8b8e988797">
   <path d="M 645.8875 152.76 
C 645.8875 138.918999 643.161125 125.212584 637.864403 112.425166 
C 632.567681 99.637749 624.803621 88.018011 615.016555 78.230945 
C 605.229489 68.443879 593.609751 60.679819 580.822334 55.383097 
C 568.034916 50.086375 554.328501 47.36 540.4875 47.36 
C 526.646499 47.36 512.940084 50.086375 500.152666 55.383097 
C 487.365249 60.679819 475.745511 68.443879 465.958445 78.230945 
C 456.171379 88.018011 448.407319 99.637749 443.110597 112.425166 
C 437.813875 125.212584 435.0875 138.918999 435.0875 152.76 
C 435.0875 166.601001 437.813875 180.307416 443.110597 193.094834 
C 448.407319 205.882251 456.171379 217.501989 465.958445 227.289055 
C 475.745511 237.076121 487.365249 244.840181 500.152666 250.136903 
C 512.940084 255.433625 526.646499 258.16 540.4875 258.16 
C 554.328501 258.16 568.034916 255.433625 580.822334 250.136903 
C 593.609751 244.840181 605.229489 237.076121 615.016555 227.289055 
C 624.803621 217.501989 632.567681 205.882251 637.864403 193.094834 
C 643.161125 180.307416 645.8875 166.601001 645.8875 152.76 
M 540.4875 152.76 
C 540.4875 152.76 540.4875 152.76 540.4875 152.76 
C 540.4875 152.76 540.4875 152.76 540.4875 152.76 
C 540.4875 152.76 540.4875 152.76 540.4875 152.76 
C 540.4875 152.76 540.4875 152.76 540.4875 152.76 
C 540.4875 152.76 540.4875 152.76 540.4875 152.76 
C 540.4875 152.76 540.4875 152.76 540.4875 152.76 
C 540.4875 152.76 540.4875 152.76 540.4875 152.76 
C 540.4875 152.76 540.4875 152.76 540.4875 152.76 
C 540.4875 152.76 540.4875 152.76 540.4875 152.76 
C 540.4875 152.76 540.4875 152.76 540.4875 152.76 
C 540.4875 152.76 540.4875 152.76 540.4875 152.76 
C 540.4875 152.76 540.4875 152.76 540.4875 152.76 
C 540.4875 152.76 540.4875 152.76 540.4875 152.76 
C 540.4875 152.76 540.4875 152.76 540.4875 152.76 
C 540.4875 152.76 540.4875 152.76 540.4875 152.76 
C 540.4875 152.76 540.4875 152.76 540.4875 152.76 
z
"/>
  </clipPath>
 </defs>
</svg>
